<?xml version="1.0" encoding="utf-8"?>
<!-- Generator: Adobe Illustrator 23.0.6, SVG Export Plug-In . SVG Version: 6.00 Build 0)  -->
<svg version="1.1" id="Layer_1" xmlns="http://www.w3.org/2000/svg" xmlns:xlink="http://www.w3.org/1999/xlink" x="0px" y="0px"
	 viewBox="0 0 317.1 285.5" style="enable-background:new 0 0 317.1 285.5;" xml:space="preserve">
<g>
	<path d="M92.6,182.7v12.2c0,0-74.2,1.1-68.7-80.9c1.1-10.4,14.9-60.4,73.4-56.1c2.8,0.4,5.1,2.5,7.7-2c2-4.3,18.7-41.6,67.5-33
		c2.9,1,29,4.3,42.8,37.9c2.9-0.2,53.4,0.2,49.5,52.4c0.2,1.2-0.6,1.2,3.1,2.6s33.6,12.6,24.3,44.4c-0.8,3.3-13.4,38.5-52.8,20.6
		c-0.8-0.2-2,0.8-2,0.8s-6.7,9.4-11.8,11.2c-0.4-3.3-1-14.3-1-14.3s7.1-10,9.8-18.4c1.8,1.2,25.9,32.6,46.1-2.7
		c1.2-3.7,7.1-33.4-33.4-30c1.2-4.5,18.8-39.8-19.4-52.6c-4.3-1.2-10.8-3.1-22,0.2c-1.2-3.5-2.8-37.7-48.1-40.8
		c-1.8,0.2-35.3,0.8-45.1,37.3c-0.4,1.6-0.8,2.6-4.7,1.4s-49.4-12.3-68.6,34.2C39.2,106.8,16.8,174.1,92.6,182.7z"/>
	<path d="M102,156.8c0,0-2.8-6.9,5.4-6.3c2.2,0,7.3-1.2,7.3,3.8v61.9c0,0,1.2,23.2-24,34.7c-1.1,0.5-3.6,2.6-19.1,2.6H38
		c0,0-2.2-0.8-1.9,3v6.7c0,0,0.8,1.5-2.5-0.5S7.5,247.8,7.5,247.8l28-16.6c0,0,0.9-0.3,0.9,0.6v9l39.8,0.5c0,0,17.5-0.4,23.2-14.3
		c2-5.2,2.9-10.7,2.8-16.2C102.2,203.2,101.9,156.7,102,156.8z"/>
	<path d="M215,156.2c0,0,2.8-6.9-5.4-6.3c-2.2,0-7.3-1.2-7.3,3.8v61.9c0,0-1.2,23.2,24,34.7c1.1,0.5,3.6,2.6,19.1,2.6H279
		c0,0,2.2-0.8,1.9,3v6.7c0,0-0.8,1.5,2.5-0.5s26.2-15.1,26.2-15.1l-28-16.6c0,0-0.9-0.3-0.9,0.6v9l-39.8,0.5c0,0-17.5-0.4-23.2-14.3
		c-2-5.2-2.9-10.7-2.8-16.3C214.9,202.7,215.2,156.1,215,156.2z"/>
	<path d="M141.9,153.3l16.3-28.7l17.1,28.5l-8.2,0.2c0,0-2.4-1.2-2.4,3.3v88.1c0,0,1.2,2.8-2.8,2.8s-7.6-0.2-7.6-0.2
		s-2.3,1.4-2.3-3.7v-86.4c0,0,1.4-3.7-3.9-3.7C146,153.6,143.9,153.5,141.9,153.3z"/>
	<path d="M174.1,183.1c0,0-0.1-2.4,2.5-0.9s10.4,7.1,15.3,7.2c0,3.8,0.4,11.6,0.4,11.6s0.4,1.6-3.2,0.4s-9.7-4.9-11.8-2.5
		s-3,4.7-3.7,0.4C173.6,195.7,174.1,182.8,174.1,183.1z"/>
	<path d="M124,193.3c5.2,4.1,11.6,6.5,18.2,6.8v10.2c0,0,0.9,2.8-2.2,2.2s-10.3-0.7-15.6-4.4c-0.7-0.3-0.7-0.1-0.7-4
		S124,193.7,124,193.3z"/>
</g>
</svg>
