<?xml version="1.0" encoding="utf-8"?>
<!-- Generator: Adobe Illustrator 23.0.6, SVG Export Plug-In . SVG Version: 6.00 Build 0)  -->
<svg version="1.1" id="Capa_1" xmlns="http://www.w3.org/2000/svg" xmlns:xlink="http://www.w3.org/1999/xlink" x="0px" y="0px"
	 viewBox="0 0 512 512" style="enable-background:new 0 0 512 512;" xml:space="preserve">
<g>
	<g>
		<path d="M161.9,32.4c4.1,0,7.5-3.4,7.5-7.5V10.4c0-4.1-3.4-7.5-7.5-7.5s-7.5,3.4-7.5,7.5v14.5C154.4,29.1,157.8,32.4,161.9,32.4z"
			/>
		<path d="M262.5,69.7l10.2-10.2c2.9-2.9,2.9-7.7,0-10.6c-2.9-2.9-7.7-2.9-10.6,0l-10.2,10.2c-2.9,2.9-2.9,7.7,0,10.6
			c1.5,1.5,3.4,2.2,5.3,2.2C259.1,71.9,261.1,71.2,262.5,69.7z"/>
		<path d="M61.3,249.7l-10.2,10.2c-2.9,2.9-2.9,7.7,0,10.6c1.5,1.5,3.4,2.2,5.3,2.2s3.8-0.7,5.3-2.2l10.2-10.2
			c2.9-2.9,2.9-7.7,0-10.6S64.2,246.8,61.3,249.7L61.3,249.7z"/>
		<path d="M311.2,167.2c4.1,0,7.5-3.4,7.5-7.5s-3.4-7.5-7.5-7.5h-14.5c-4.1,0-7.5,3.4-7.5,7.5s3.4,7.5,7.5,7.5H311.2z"/>
		<path d="M27.1,152.2H12.7c-4.1,0-7.5,3.4-7.5,7.5s3.4,7.5,7.5,7.5h14.5c4.1,0,7.5-3.4,7.5-7.5S31.3,152.2,27.1,152.2z"/>
		<path d="M262.5,249.7c-2.9-2.9-7.7-2.9-10.6,0c-2.9,2.9-2.9,7.7,0,10.6l9.4,9.4c1.5,1.5,3.4,2.2,5.3,2.2s3.8-0.7,5.3-2.2
			c2.9-2.9,2.9-7.7,0-10.6L262.5,249.7z"/>
		<path d="M61.3,69.7c1.5,1.5,3.4,2.2,5.3,2.2s3.8-0.7,5.3-2.2c2.9-2.9,2.9-7.7,0-10.6L61.7,48.8c-2.9-2.9-7.7-2.9-10.6,0
			c-2.9,2.9-2.9,7.7,0,10.6L61.3,69.7z"/>
		<path d="M137.9,215.3c0.6-0.6,1.3-0.7,2.1-0.4c0.8,0.3,1.2,0.9,1.2,1.7c0,9.9,8.1,18,18,18h5.6c9.9,0,18-8.1,18-18
			c0-0.8,0.4-1.4,1.2-1.7c0.8-0.3,1.5-0.2,2.1,0.4c3.4,3.4,7.9,5.3,12.7,5.3s9.3-1.9,12.7-5.3l4-4c3.4-3.4,5.3-7.9,5.3-12.7
			s-1.9-9.3-5.3-12.7c-0.6-0.6-0.7-1.3-0.4-2.1c0.3-0.8,0.9-1.2,1.7-1.2c9.9,0,18-8.1,18-18V159c0-9.9-8.1-18-18-18
			c-0.8,0-1.4-0.4-1.7-1.2c-0.3-0.8-0.2-1.5,0.4-2.1c3.4-3.4,5.3-7.9,5.3-12.7c0-4.8-1.9-9.3-5.3-12.7l-4-4
			c-3.4-3.4-7.9-5.3-12.7-5.3s-9.3,1.9-12.7,5.3c-0.6,0.6-1.3,0.7-2.1,0.4c-0.8-0.3-1.2-0.9-1.2-1.7c0-9.9-8.1-18-18-18h-5.6
			c-9.9,0-18,8.1-18,18c0,0.8-0.4,1.4-1.2,1.7c-0.8,0.3-1.5,0.2-2.1-0.4c-3.4-3.4-7.9-5.3-12.7-5.3c-4.8,0-9.3,1.9-12.7,5.3l-4,4
			c-3.4,3.4-5.3,7.9-5.3,12.7c0,4.8,1.9,9.3,5.3,12.7c0.6,0.6,0.7,1.3,0.4,2.1c-0.3,0.8-0.9,1.2-1.7,1.2c-9.9,0-18,8.1-18,18v5.6
			c0,9.9,8.1,18,18,18c0.8,0,1.4,0.4,1.7,1.2c0.3,0.8,0.2,1.5-0.4,2.1c-3.4,3.4-5.3,7.9-5.3,12.7s1.9,9.3,5.3,12.7l4,4
			C119.5,222.3,130.9,222.3,137.9,215.3L137.9,215.3z M107.1,167.6c-1.7,0-3-1.3-3-3V159c0-1.6,1.3-3,3-3c6.9,0,13-4.1,15.6-10.4
			c2.6-6.3,1.2-13.6-3.7-18.4c-0.8-0.8-0.9-1.7-0.9-2.1s0.1-1.4,0.9-2.1l4-4c1.2-1.2,3.1-1.2,4.2,0c4.8,4.8,12.1,6.3,18.4,3.7
			c6.3-2.6,10.4-8.7,10.4-15.6c0-1.7,1.3-3,3-3h5.6c1.6,0,3,1.3,3,3c0,6.9,4.1,13,10.4,15.6c6.3,2.6,13.6,1.2,18.4-3.7
			c0.8-0.8,1.7-0.9,2.1-0.9s1.4,0.1,2.1,0.9l4,4c1.2,1.2,1.2,3.1,0,4.2c-4.8,4.8-6.3,12.1-3.7,18.4c2.6,6.3,8.7,10.4,15.6,10.4
			c1.6,0,3,1.3,3,3v5.6c0,1.6-1.3,3-3,3c-6.9,0-13,4.1-15.6,10.4s-1.2,13.6,3.7,18.4c1.2,1.2,1.2,3.1,0,4.2l-4,4
			c-1.2,1.2-3.1,1.2-4.2,0c-4.8-4.8-12.1-6.3-18.4-3.7c-6.3,2.6-10.4,8.7-10.4,15.6c0,1.6-1.3,3-3,3h-5.6c-1.6,0-3-1.3-3-3
			c0-6.9-4.1-13-10.4-15.6c-2.1-0.9-4.3-1.3-6.5-1.3c-4.4,0-8.7,1.7-11.9,5c-1.2,1.2-3.1,1.2-4.2,0l-4-4c-0.8-0.8-0.9-1.7-0.9-2.1
			s0.1-1.4,0.9-2.1c4.8-4.8,6.3-12.1,3.7-18.4C120.1,171.7,114,167.6,107.1,167.6L107.1,167.6z"/>
		<path d="M161.9,187.9c14.4,0,26.1-11.7,26.1-26.1s-11.7-26.1-26.1-26.1c-14.4,0-26.1,11.7-26.1,26.1S147.6,187.9,161.9,187.9z
			 M161.9,150.8c6.1,0,11,5,11,11s-5,11-11,11s-11-5-11-11S155.8,150.8,161.9,150.8z"/>
		<path d="M164.8,461.3l188.6-0.3l0.4-6.3v-18c0-6.9,6.1-12.2,13-11.2l52.4,7.7c23.4,3.4,44.4-14.7,44.4-38.4l0-60.6
			c0-7.7,6.3-14,14.1-13.9c21.4,0,35.5-22.3,26.3-41.6v0l-22.4-47c-0.9-1.8-1.3-3.8-1.4-5.8l-0.4-34.4C479.8,86.3,395.1,0.4,290.9,0
			c-0.2,0-0.4,0-0.7,0c-33.9,0-67.1,9-96.1,26.1c-3.6,2.1-4.8,6.7-2.7,10.3s6.7,4.8,10.3,2.7c26.7-15.7,57.3-24,88.5-24
			c0.2,0,0.4,0,0.6,0c95.9,0.3,173.9,79.5,173.9,176.6l0.4,34.5c0.1,4.2,1,8.3,2.8,12.1l22.4,47c4.5,9.4-2.4,20.1-12.6,20.1
			c-16.1-0.2-29.2,12.8-29.2,28.9l0,60.6c0,14.5-12.9,25.6-27.2,23.5l-52.4-7.7c-15.9-2.3-30.1,10-30.1,26v10.4l-158.5,0.1v-33.4
			c0-4.1-3.4-7.5-7.5-7.5s-7.5,3.4-7.5,7.5v23.5C165.1,437.5,164.8,461.3,164.8,461.3z"/>
		<path d="M147.1,386.2h31.7c19.8,0,36.1-15.1,38-34.4c6-2.7,10.2-8.7,10.2-15.6V300c0-5.9-3-11.1-7.6-14.2
			c5.6-19.5,15.4-38,28.5-53.6c61.9-73.7,7.8-185.5-87.6-184.2C66.3,49.3,15.8,159.6,75.5,231.6c13.3,16.1,23.2,34.7,28.9,54.2
			c-4.5,3.1-7.5,8.3-7.5,14.1v36.2c0,7.8,5.2,14.4,12.4,16.4C111.5,371.5,127.6,386.2,147.1,386.2L147.1,386.2z M114,338.3
			c-1.1,0-2.1-0.9-2.1-2.1V300c0-1.1,0.9-2.1,2.1-2.1h95.9c0,0,0.1,0,0.1,0c1.1,0,2,1,2,2.1v36.2c0,1.1-0.9,2.1-2.1,2.1H114z
			 M178.8,371.2h-31.7c-11,0-20.2-7.7-22.5-17.9h76.8C199,363.6,189.8,371.2,178.8,371.2z M160.5,63c83.2-1.1,129,96.3,75.9,159.6
			c-14.8,17.6-25.7,38.3-31.8,60.4h-85.4C113,261,101.9,240,87,222.1C35.3,159.6,79.1,64.1,160.5,63z"/>
	</g>
</g>
</svg>
