<?xml version="1.0" encoding="utf-8"?>
<!-- Generator: Adobe Illustrator 23.0.6, SVG Export Plug-In . SVG Version: 6.00 Build 0)  -->
<svg version="1.1" id="Layer_1" xmlns="http://www.w3.org/2000/svg" xmlns:xlink="http://www.w3.org/1999/xlink" x="0px" y="0px"
	 viewBox="0 0 512 512" style="enable-background:new 0 0 512 512;" xml:space="preserve">
<g>
	<path d="M435.1,298.2l-2.4,1.3c-9.6-11.6-26.2-16.1-38.8-9.7c0,0-0.1,0-0.1,0.1l-5.6,3c-13.7-11.6-33.2-13.3-48.7-4.4l-30.2,16.4
		h-40.1c-8.7,0-17.3-2-25.1-5.7l-5.5-2.7c-32-15.6-70.1-11.9-98.6,9.6c-0.1,0.1-0.3,0.2-0.4,0.3l-13.3,11.9c-5,4.5-11,7.8-17.4,9.7
		l-7.6-24.8c-0.8-2.5-3.1-4.2-5.7-4.2H31.1c-3.3,0-6,2.7-6,6c0,0.2,0,0.5,0,0.7l21.5,176.2c0.4,3,2.9,5.3,6,5.3h96.7
		c3.3,0,6-2.7,6-6c0-0.6-0.1-1.2-0.3-1.7l-12.7-41.7l39.6-25c5.3-2.9,11.5-3.7,17.4-2.2c0.1,0,0.2,0.1,0.4,0.1l80.5,14.8
		c21.9,3.9,44.4,0.7,64.3-9.1c0.3-0.1,0.5-0.3,0.7-0.4l139.2-95.6c2.6-1.8,3.4-5.3,1.7-8C475.5,294.6,453.1,288.5,435.1,298.2z
		 M399.4,300.4c7.3-3.7,16.5-0.7,22.4,5L369,333.9l-3.1,1.6c-1.7-4.7-4.1-9.2-7.2-13.1L399.4,300.4z M345.3,298.9
		c0,0,0.1-0.1,0.1-0.1c9.6-5.6,21.5-5.5,31,0.3l-26.8,14.4c-5.1-3.7-11-6.4-17.1-7.7L345.3,298.9z M57.9,475l-20-164.2h53.2
		L141.2,475H57.9z M338.7,405.6c-17.5,8.5-37.3,11.3-56.5,7.8l-80.3-14.8c-8.8-2.2-18.2-0.9-26.1,3.5c-0.1,0.1-0.2,0.1-0.3,0.2
		l-36.9,23.3l-26.3-86.3c8.1-2.4,15.6-6.6,21.9-12.3l13.1-11.7c24.8-18.7,58-21.9,85.9-8.3l5.5,2.7c9.5,4.6,19.8,6.9,30.3,6.9h53.5
		c16.2,0,30.2,11.6,33.2,27.5l-38.8-1.8c-14.1-0.6-28.2,0-42.2,2c-3.3,0.5-5.5,3.5-5.1,6.8c0.5,3.2,3.5,5.5,6.7,5.1
		c13.3-1.8,26.7-2.5,40-1.8l45.7,2.1c0.1,0,0.2,0,0.3,0c3.3,0,6-2.7,6-6c0-1,0-1.9-0.1-2.9l6.3-3.3l66.1-35.7
		c10.4-5.7,23.4-3.6,31.5,5.1L338.7,405.6z"/>
	<path d="M301.6,90.3V70.5c-0.1-25.2-20.6-45.4-45.8-45.3c-25,0.1-45.2,20.3-45.3,45.3v19.8c0.1,25.2,20.6,45.4,45.8,45.3
		C281.3,135.5,301.5,115.3,301.6,90.3z M222.5,90.3V70.5c0.1-18.5,15.2-33.5,33.7-33.4c18.4,0.1,33.3,15,33.4,33.4v19.8
		c-0.1,18.5-15.2,33.5-33.7,33.4C237.5,123.6,222.6,108.7,222.5,90.3z"/>
	<path d="M182.7,259.4h146.8c3.3,0,6-2.7,6-6l0,0v-13.8H436c3.3,0,6-2.7,6-6v-38.9c0-23.7-18.4-43.3-42.1-44.9
		c-3.2-0.2-4.8,1.8-6.2,3.4c-9.6,11.8-27,13.5-38.7,3.9c-1.8-1.4-3.3-3.1-4.7-4.9c-1.2-1.6-3-2.5-5-2.4c-7.8,0.2-15.4,2.4-22.1,6.4
		c-8.9-10.3-21.6-16.6-35.2-17.5c-3.1-0.1-4.7,1.8-6.2,3.6c-11.3,13.8-31.7,15.8-45.5,4.5c-2.1-1.7-3.9-3.6-5.5-5.8
		c-1.2-1.6-3-2.5-5-2.4c-13.2,0.3-25.7,5.8-34.8,15.2c-0.8,0.8-1.5,1.6-2.2,2.4c-6.2-3.8-13.2-6-20.5-6.4c-3.2-0.2-4.8,1.8-6.2,3.4
		c-9.6,11.8-27,13.5-38.7,3.9c-1.8-1.4-3.3-3.1-4.7-4.9c-1.2-1.6-3-2.5-5-2.4C89.4,150.4,70,170.3,70,194.7v38.9c0,3.3,2.7,6,6,6
		h100.7v13.8C176.7,256.7,179.4,259.4,182.7,259.4z M342.7,162c14.4,16.4,39.4,18,55.8,3.5c1.2-1.1,2.3-2.2,3.4-3.4
		c16.1,2.4,28.1,16.3,28.1,32.6v32.9h-94.5v-38.5c0-8-1.9-15.9-5.5-23C333.9,163.9,338.2,162.5,342.7,162L342.7,162z M223.3,150.9
		c16,18.5,44,20.6,62.5,4.6c1.6-1.4,3.1-2.8,4.4-4.4c19,2.6,33.2,18.9,33.3,38.1v58.3H188.7v-58.3
		C188.8,169.4,203.7,153,223.3,150.9z M82,227.7v-32.9c0.1-16.7,12.6-30.8,29.3-32.7c14.4,16.4,39.4,18,55.8,3.5
		c1.2-1.1,2.3-2.2,3.4-3.4c4.1,0.6,8.1,2,11.7,4.1c-3.6,7.1-5.5,14.9-5.5,22.9v38.5L82,227.7z"/>
	<path d="M412.4,108.2V90.9c0-22.4-18.2-40.6-40.6-40.6s-40.6,18.2-40.6,40.6v17.3c0,22.4,18.2,40.6,40.6,40.6
		S412.4,130.6,412.4,108.2z M343.1,108.2V90.9c0-15.8,12.8-28.6,28.6-28.6s28.6,12.8,28.6,28.6c0,0,0,0,0,0v17.3
		c0,15.8-12.8,28.6-28.6,28.6S343.1,124,343.1,108.2C343.1,108.2,343.1,108.2,343.1,108.2z"/>
	<path d="M180.9,108.2V90.9c0-22.4-18.2-40.6-40.6-40.6S99.6,68.4,99.6,90.9v17.3c0,22.4,18.2,40.6,40.6,40.6
		S180.9,130.6,180.9,108.2z M111.6,108.2V90.9c0-15.8,12.8-28.6,28.6-28.6s28.6,12.8,28.6,28.6c0,0,0,0,0,0v17.3
		c0,15.8-12.8,28.6-28.6,28.6S111.6,124,111.6,108.2C111.6,108.2,111.6,108.2,111.6,108.2z"/>
</g>
</svg>
