<svg id="Layer_1" data-name="Layer 1" xmlns="http://www.w3.org/2000/svg" viewBox="0 0 284.34 285.49"><defs><style>.cls-1{fill:#fff;}</style></defs><title>A&amp;amp;I</title><path class="cls-1" d="M107.74,5.68C91.72,7.19,77.55,13.1,65.65,24A41.94,41.94,0,0,0,52,48.7c-.82,5.21,1.51,12.36-1.2,15.45-3.06,3.48-10.37,2.93-15.53,4.91C7.62,79.7-4.33,112.25,10.73,136.16,20,150.82,34.6,158,50.24,163.89c1.76-7.51.52-12.32-7.22-14.81-6.55-2.11-12.19-6.43-17.2-11.29A35.08,35.08,0,0,1,30.34,83.7c7.92-5.44,16.84-7.91,26.42-8.25,6.19-.23,7.87-2.51,6.63-8.53-3.8-18.48,1.74-31.69,17.91-41.43a71.54,71.54,0,0,1,48.24-9.61C148.93,18.69,165,26,166.11,49.32a5,5,0,0,0,4.32,4.53c2.49.5,4.32-.78,5.61-2.8.71-1.12,1.14-2.41,1.81-3.56,6.71-11.51,20.87-14.94,34-8.24,12.24,6.24,16.44,17.64,11.13,30.26-2.71,6.43-1.3,9,5.73,9.75,12.25,1.37,19.81,8.59,23.9,19.61,5.3,14.28-.77,31-16.45,41.55-6.81,4.58-7.29,9.36-6,16.46a77.13,77.13,0,0,0,23.74-18.71c20.14-23.44,12.75-55.81-15.63-67.79-2.79-1.18-3.29-2.32-2.75-4.84,4-18.89-10.55-34.06-24.81-38.36-13.34-4-25.42-1.94-36.35,7-5.66-13.48-15.8-21.3-28.84-25.66C145.48,8.55,134.06,3.36,107.74,5.68Z"/><path class="cls-1" d="M161.51,204.68c1.32,4.94-1.58,5-5.41,5.25-4.67.29-5.21-1.63-5.36-5.65-.17-4.64,1.62-5.29,5.71-5.43C161.15,198.7,162.42,200.44,161.51,204.68Z"/><path class="cls-1" d="M72.18,205.13c1.35,5.23-2.31,4.43-5.71,4.77-5,.5-4.87-2.24-5.15-5.91-.38-5.12,2.46-4.79,6-5.12C72.6,198.38,72.6,201.33,72.18,205.13Z"/><path class="cls-1" d="M111.66,204.4c1,4.5-1,5.55-5.3,5.56s-5.65-1-5.56-5.45c.09-4.15.91-5.81,5.47-5.68C110.47,199,112.67,199.8,111.66,204.4Z"/><path class="cls-1" d="M218.73,204c1.08,4.78-.84,6-5.19,5.94-4.14,0-5.73-.92-5.59-5.41.12-4.09.8-6,5.44-5.69C217.32,199.09,220.3,199.23,218.73,204Z"/><path class="cls-1" d="M132.1,72a16.13,16.13,0,0,0-23.74.68,15.84,15.84,0,0,0,2.48,23.11c5.32,4.17,6.77,19.38,1.32,23.53-9.77,7.44-12.89,16.76-11.24,28.48.55,3.94.08,8,.08,12,0,8,.09,16.07,0,24.1-.06,3.78-.44,6.74,5.25,6.64,5.18-.08,5.66-2.19,5.59-6.39-.21-12.72.4-25.47-.25-38.16-.4-7.79,1.45-13.87,7.81-18.4,5.41-3.85,7.41-9,6.47-15.56-.28-2,.11-4-.07-6-.43-4.67.68-7.93,5-11C138.3,89.68,138.45,78.58,132.1,72ZM120.66,91.86a8.57,8.57,0,0,1-8.89-8.72,8.71,8.71,0,0,1,8.7-9,9.05,9.05,0,0,1,9,8.8A8.75,8.75,0,0,1,120.66,91.86Z"/><path class="cls-1" d="M219,185.18a140.44,140.44,0,0,1,0-18.69c.28-4.82-.67-8.77-4.77-11.62-8.28-5.76-11.16-13.56-9.86-23.54.6-4.6.27-8.28,5.23-11.56,7.61-5.06,7.47-16.31,1-22.92a16,16,0,0,0-22.76-.11c-6.53,6.53-6.8,17.86.76,22.93,5.13,3.44,5.4,7.28,5.23,12.18-.1,2.67.29,5.38-.08,8-1,7,1.1,12.55,6.93,16.64,7,4.89,9.06,11.63,7.51,18.12,0,4.53.18,7.44-.05,10.32-.29,3.72.37,5.8,4.93,5.54C216.83,190.25,219.35,190.18,219,185.18ZM199.35,117a9.23,9.23,0,0,1-9.23-8.66,9,9,0,0,1,18-.48A9.19,9.19,0,0,1,199.35,117Z"/><path class="cls-1" d="M79.07,111.79a16,16,0,0,0-22.73-1.4c-6.73,6-8.12,17.29-1,22.36,6.71,4.77,6.22,10.31,6.16,16.61,0,4.67,0,9.35,0,14,0,7.35.27,14.72-.1,22.05-.23,4.52,1.83,4.94,5.54,5,4,.1,5.48-.79,5.39-5.11-.28-13.36,0-26.73-.15-40.09-.06-4.59.43-7.92,5-11C84.48,129.46,84.85,118.46,79.07,111.79ZM66.83,131.33a9,9,0,0,1,.32-18,9,9,0,0,1-.32,18Z"/><path class="cls-1" d="M168,129.28a15.92,15.92,0,0,0-22.76-.65c-6.69,6.4-7.25,17.79.26,22.94,5.55,3.81,5.67,8.13,5.47,13.43-.09,2.45,0,4.9,0,7.35,0,4.46.35,9-.09,13.36-.49,4.91,2.29,4.67,5.66,4.7s5.46,0,5.25-4.44c-.36-7.78.1-15.6-.17-23.39-.16-4.49.72-7.45,4.89-10.32C174,147,174.29,136.05,168,129.28Zm-11.49,19.86a9.25,9.25,0,0,1-9.21-8.69,9,9,0,0,1,18-.43A9.2,9.2,0,0,1,156.47,149.14Z"/><path class="cls-1" d="M114.18,250.49c-2.63-4.1-2.44-8.4-2.45-13,0-4.89-.23-9.8.07-14.67S108.72,219,106,218.9s-5.3-.57-5.12,3.77c.3,7.11.1,14.23.07,21.35,0,1.95.11,3.74-1.48,5.52-.24.27-.44.52-.66.78a13.89,13.89,0,1,0,15.33.17Z"/><path class="cls-1" d="M163.14,254.18c4.39.58,9.74,2.7,13.69-2a15.76,15.76,0,0,1,1.5-1.55,13.88,13.88,0,1,1-2.19,16.26c-6.06-2.64-13.08-1.63-19.78-1.48-4.36.09-5.67-1.09-5.55-5.54.31-12.25.4-24.52,0-36.76-.19-5.3,2.85-4.18,5.83-4.39,3.29-.23,5.36,0,5.13,4.4V253.9Z"/><path class="cls-1" d="M67.54,218.63c-4.23.19-7,.56-6,5.67.9,4.66-1.44,5.72-5.52,5.26-2.2-.25-4.46,0-6.69-.05-4.25-.1-8.41.39-12.25-1.35a13.91,13.91,0,1,0,.28,13.23c2.44-1.18,5.06-1.3,8-1.2,5.35.19,10.71,0,16.07,0,10.81,0,10.81,0,10.81-10.66,0-1.79-.13-3.58,0-5.36C72.54,220.73,72.33,218.42,67.54,218.63Z"/><path class="cls-1" d="M252.16,221.15A13.89,13.89,0,0,0,240,228.27a9,9,0,0,1-5.65,1.27,85.53,85.53,0,0,0-10,0c-4.08.36-6.34-.6-5.53-5.27.7-4.07-.51-6.58-5.29-5.38-4.51-1.09-5.87.85-5.48,5.21a78.8,78.8,0,0,1,0,12c-.21,3.19.76,4.27,4.06,4.16,7.56-.24,15.14,0,22.7-.09a8.68,8.68,0,0,1,4.92,1.1,13.89,13.89,0,1,0,12.39-20.16Z"/></svg>