<svg id="Layer_1" data-name="Layer 1" xmlns="http://www.w3.org/2000/svg" viewBox="0 0 80 80"><defs><style>.cls-1{fill:#fff;}</style></defs><title>BA_ICON</title><path class="cls-1" d="M37.58,49.74a8.59,8.59,0,0,1-.4,2.49,7.28,7.28,0,0,1-1.31,2.47,7.12,7.12,0,0,1-2.36,1.9,7.58,7.58,0,0,1-3.56.77H6a3.12,3.12,0,0,1-1.26-.25,3,3,0,0,1-1-.66,2.93,2.93,0,0,1-.67-1,3.22,3.22,0,0,1-.24-1.26V25.81a3.22,3.22,0,0,1,.24-1.24,3.07,3.07,0,0,1,.67-1,2.89,2.89,0,0,1,1-.67A3.12,3.12,0,0,1,6,22.63H27.11a8.63,8.63,0,0,1,2.5.41,7.83,7.83,0,0,1,2.48,1.32A7.31,7.31,0,0,1,34,26.73a7.65,7.65,0,0,1,.76,3.56v1.18a13,13,0,0,1-.56,3.6,12,12,0,0,1-1.79,3.65,11,11,0,0,1,2,1.57,10,10,0,0,1,1.63,2.13,11.48,11.48,0,0,1,1.12,2.74,13.13,13.13,0,0,1,.41,3.37Zm-6.3-1.21a5.94,5.94,0,0,0-.39-2.22,4.83,4.83,0,0,0-1.09-1.68,4.71,4.71,0,0,0-1.69-1.08,6.32,6.32,0,0,0-2.23-.38H11.69V36.83H23a6.24,6.24,0,0,0,2.23-.38,4.66,4.66,0,0,0,2.78-2.76,6.15,6.15,0,0,0,.37-2.22V30.29c0-.91-.43-1.36-1.31-1.36H9.17V51.07H30l.41,0a1,1,0,0,0,.44-.14,1.11,1.11,0,0,0,.34-.41,2,2,0,0,0,.14-.8Z"/><path class="cls-1" d="M77.13,57.37h-6.3V48.84H48.7v8.53H42.4V40a18.14,18.14,0,0,1,1.31-7,16.14,16.14,0,0,1,9.13-9.08,18.18,18.18,0,0,1,6.92-1.29H74a3,3,0,0,1,1.23.25,3.07,3.07,0,0,1,1.7,1.69,3.22,3.22,0,0,1,.24,1.24ZM48.7,42.54H70.83V28.93H59.76c-.19,0-.6,0-1.22.09a11.37,11.37,0,0,0-2.15.42,13.4,13.4,0,0,0-2.58,1,8.93,8.93,0,0,0-2.5,1.94,10,10,0,0,0-1.88,3.09A12.17,12.17,0,0,0,48.7,40Z"/></svg>