<svg id="Layer_1" data-name="Layer 1" xmlns="http://www.w3.org/2000/svg" viewBox="0 0 100 81.79"><defs><style>.cls-1{fill:#fff;}</style></defs><title>BA_logo</title><path class="cls-1" d="M47.58,50.63a8.6,8.6,0,0,1-.4,2.5,7.37,7.37,0,0,1-1.31,2.47,7.24,7.24,0,0,1-2.36,1.9,7.59,7.59,0,0,1-3.56.76H16A3.29,3.29,0,0,1,14.78,58a2.89,2.89,0,0,1-1-.67,3,3,0,0,1-.67-1,3.29,3.29,0,0,1-.24-1.26V26.7a3.22,3.22,0,0,1,.24-1.24,3.13,3.13,0,0,1,.67-1,2.91,2.91,0,0,1,1-.68A3.29,3.29,0,0,1,16,23.53H37.11a8.31,8.31,0,0,1,2.5.41,7.44,7.44,0,0,1,2.48,1.32A7.16,7.16,0,0,1,44,27.62a7.71,7.71,0,0,1,.76,3.56v1.19A13,13,0,0,1,44.21,36a11.92,11.92,0,0,1-1.79,3.65,11.42,11.42,0,0,1,2,1.57,10.33,10.33,0,0,1,1.63,2.14,11.4,11.4,0,0,1,1.12,2.73,13.13,13.13,0,0,1,.41,3.37Zm-6.3-1.21a6,6,0,0,0-.39-2.22,4.93,4.93,0,0,0-1.09-1.68,4.71,4.71,0,0,0-1.69-1.08,6.32,6.32,0,0,0-2.23-.37H21.69V37.72H33a6.25,6.25,0,0,0,2.23-.37,4.64,4.64,0,0,0,2.78-2.77,6.13,6.13,0,0,0,.37-2.21V31.18c0-.9-.43-1.36-1.31-1.36H19.17V52H40a3.18,3.18,0,0,0,.41,0,1,1,0,0,0,.44-.15,1,1,0,0,0,.34-.41,1.91,1.91,0,0,0,.14-.8Z"/><path class="cls-1" d="M87.13,58.26h-6.3V49.73H58.7v8.53H52.4V40.89a18.21,18.21,0,0,1,1.31-7,16.24,16.24,0,0,1,3.63-5.49,16.48,16.48,0,0,1,5.5-3.59,18.17,18.17,0,0,1,6.92-1.28H84a3.17,3.17,0,0,1,1.23.24,3.09,3.09,0,0,1,1,.68,3.16,3.16,0,0,1,.68,1,3.22,3.22,0,0,1,.24,1.24ZM58.7,43.44H80.83V29.82H69.76c-.19,0-.6,0-1.22.09a13.21,13.21,0,0,0-2.15.42,14.07,14.07,0,0,0-2.58,1,9.12,9.12,0,0,0-2.5,1.94,10.2,10.2,0,0,0-1.88,3.09,12.21,12.21,0,0,0-.73,4.49Z"/></svg>