<svg id="Layer_1" data-name="Layer 1" xmlns="http://www.w3.org/2000/svg" viewBox="0 0 925 911.61"><defs><style>.cls-1{fill:#f1bb00;}.cls-2{fill:#953595;}.cls-3{fill:#63bc9f;}.cls-4{fill:#ff8e00;}.cls-5{fill:#fff;}</style></defs><path class="cls-1" d="M564.8,37.59A311.65,311.65,0,0,0,469.65,52.4C344,92.63,253,210.39,253,349.41c0,126.17,74.94,234.83,182.73,283.92a310.76,310.76,0,0,0,129.09,27.9c172.22,0,311.82-139.61,311.82-311.82S737,37.59,564.8,37.59Z"/><circle class="cls-2" cx="590.99" cy="565.48" r="311.82"/><path class="cls-3" d="M340.55,648.14C207.67,648.14,94.22,565,49.32,447.91A310.71,310.71,0,0,0,22.19,575.3c0,172.21,139.6,311.82,311.82,311.82S645.83,747.51,645.83,575.3a311,311,0,0,0-20.59-111.6C576.52,572.41,467.39,648.14,340.55,648.14Z"/><path class="cls-4" d="M253,349.41c0-139,91-256.78,216.67-297a310.61,310.61,0,0,0-129.1-27.9C168.34,24.5,28.74,164.1,28.74,336.32s139.6,311.82,311.81,311.82a311.71,311.71,0,0,0,95.16-14.81C327.92,584.24,253,475.58,253,349.41Z"/><circle class="cls-5" cx="454.32" cy="456.62" r="176.22"/></svg>