<svg id="Layer_1" data-name="Layer 1" xmlns="http://www.w3.org/2000/svg" viewBox="0 0 325 255"><defs><style>.cls-1{fill:#fff;}</style></defs><title>CS</title><path class="cls-1" d="M96.55,167v12.17s-74.19,1.18-68.7-80.86C29,87.94,42.77,37.89,101.26,42.21c2.75.39,5.1,2.55,7.65-2,2-4.32,18.65-41.61,67.52-33,2.95,1,29,4.32,42.79,37.89,2.94-.2,53.39.19,49.46,52.4.2,1.18-.59,1.18,3.14,2.55s33.56,12.56,24.34,44.36c-.79,3.34-13.35,38.47-52.8,20.61-.78-.2-2,.78-2,.78s-6.68,9.42-11.78,11.19c-.39-3.34-1-14.33-1-14.33s7.07-10,9.81-18.45c1.77,1.18,25.91,32.59,46.13-2.74,1.18-3.73,7.06-33.37-33.37-30,1.18-4.52,18.84-39.85-19.43-52.61-4.32-1.17-10.79-3.14-22,.2-1.18-3.53-2.75-37.68-48.09-40.82-1.77.19-35.33.78-45.14,37.29-.39,1.57-.79,2.55-4.71,1.37S62.4,44.57,43.16,91.08C43.16,91.08,20.79,158.41,96.55,167Z"/><path class="cls-1" d="M106,141.13s-2.75-6.87,5.4-6.28c2.16,0,7.26-1.18,7.26,3.83V200.6s1.18,23.16-24,34.74c-1.07.5-3.63,2.56-19.13,2.65H42s-2.16-.78-1.86,3v6.67s.78,1.47-2.45-.49-26.21-15.11-26.21-15.11l28-16.59s.89-.29.89.59v9l39.84.49s17.47-.39,23.16-14.33A43,43,0,0,0,106.17,195C106.17,187.55,105.82,141,106,141.13Z"/><path class="cls-1" d="M219,140.54s2.75-6.87-5.4-6.28c-2.16,0-7.26-1.17-7.26,3.83V200s-1.18,23.16,24,34.74c1.07.49,3.63,2.55,19.13,2.65H283s2.16-.79,1.86,3v6.67s-.78,1.47,2.45-.49,26.21-15.11,26.21-15.11l-28-16.59s-.89-.29-.89.59v9l-39.84.49s-17.47-.39-23.16-14.33a43,43,0,0,1-2.85-16.29C218.83,187,219.18,140.4,219,140.54Z"/><path class="cls-1" d="M145.81,137.6l16.29-28.66,17.08,28.46-8.24.2s-2.36-1.18-2.36,3.34v88.12s1.18,2.75-2.75,2.75-7.55-.19-7.55-.19S156,233,156,227.89V141.53s1.37-3.73-3.93-3.73A46.89,46.89,0,0,1,145.81,137.6Z"/><path class="cls-1" d="M178.05,167.43s-.15-2.35,2.5-.88,10.45,7.07,15.31,7.21c0,3.83.44,11.63.44,11.63s.45,1.62-3.23.44-9.72-4.85-11.78-2.5-2.95,4.71-3.68.44C177.61,180,178.05,167.14,178.05,167.43Z"/><path class="cls-1" d="M128,177.59a31.19,31.19,0,0,0,18.25,6.77v10.16s.89,2.8-2.2,2.21-10.31-.74-15.61-4.42c-.73-.29-.73-.15-.73-4S128,178,128,177.59Z"/></svg>