<svg id="Layer_1" data-name="Layer 1" xmlns="http://www.w3.org/2000/svg" viewBox="0 0 284.34 280.41"><defs><style>.cls-1{fill:#fff;}</style></defs><title>DA</title><path class="cls-1" d="M126,14.57c-1.72-.1-3.46.35-5.16-.22H126c.08.05.11.09.08.15S126,14.57,126,14.57Z"/><path class="cls-1" d="M129.32,14.35c-.63.56-1.36.13-2,.22q-.13-.08-.09-.15c0-.05.06-.07.08-.07Z"/><path class="cls-1" d="M127.26,14.35c0,.07,0,.14,0,.22H126a1.62,1.62,0,0,1,0-.22Z"/><path class="cls-1" d="M266.8,253.35Q239,225.53,211.14,197.69c-1.13-1.12-1.15-1.14-.13-2.36a111,111,0,0,0,13.81-21.17,116.33,116.33,0,0,0,7.39-18.63,102,102,0,0,0,4.45-28c.05-3.21,0-6.41-.2-9.63-.2-3.46-.46-6.92-1-10.35a110.71,110.71,0,0,0-17.71-45.12,110.86,110.86,0,0,0-18.5-21,108.93,108.93,0,0,0-21.75-15,110.63,110.63,0,0,0-28.46-10.26A69.6,69.6,0,0,0,136,14.57a29,29,0,0,1-4.84-.22h-1.8a7.19,7.19,0,0,1-2.12.13h-1.34a40.24,40.24,0,0,1-5-.13h-3.34c-.08.28-.31.23-.51.25a92.3,92.3,0,0,0-17.33,2.92c-24.32,6.35-44.49,19.23-60,39A109.83,109.83,0,0,0,22.33,160.79c9,25.36,25.12,44.92,48.24,58.64a106,106,0,0,0,43.87,14.44,109.23,109.23,0,0,0,35-1.79,112.49,112.49,0,0,0,47.89-23.54c.88-.73,1.32-.69,2.12.11q28.38,28.46,56.81,56.87c.69.69,1,.76,1.77,0,3.36-3.42,6.79-6.77,10.19-10.14v-.26A6.92,6.92,0,0,0,266.8,253.35Zm-141-34.64C73.71,218.3,31.88,176.85,32,124.15,32,72.08,74.66,29.83,126.35,30a94.48,94.48,0,0,1,94.27,94.41C220.39,177,178.16,219.13,125.82,218.71Z"/><path class="cls-1" d="M131.83,115.83q0,26.55,0,53.11c0,1.12-.25,1.44-1.4,1.41-3.47-.08-7-.06-10.42,0-.86,0-1-.24-1-1.06q0-53.37,0-106.74c0-.8.14-1.11,1-1.09,3.52,0,7,.08,10.55,0,1.18,0,1.27.43,1.27,1.4Q131.81,89.35,131.83,115.83Z"/><path class="cls-1" d="M140.16,126.26c0-14.23,0-28.47,0-42.7,0-1.16.3-1.41,1.41-1.39,3.47.08,7,.06,10.42,0,.85,0,1,.23,1,1.06q0,43,0,86c0,.83-.2,1.08-1,1.06q-5.27-.08-10.55,0c-1,0-1.28-.23-1.27-1.26Q140.19,147.67,140.16,126.26Z"/><path class="cls-1" d="M174.15,135.63c0,11.14,0,22.28,0,33.42,0,1.1-.31,1.32-1.35,1.3-3.47-.07-6.94,0-10.41,0-.84,0-1.07-.22-1.07-1.06q0-33.67,0-67.35c0-.87.26-1.08,1.09-1.07,3.52,0,7,.06,10.54,0,1,0,1.19.3,1.19,1.23Q174.13,118.85,174.15,135.63Z"/><path class="cls-1" d="M110.61,141.55c0,9.13,0,18.25,0,27.38,0,1.06-.15,1.46-1.35,1.43-3.47-.1-6.94-.07-10.41,0-.87,0-1.06-.26-1.05-1.07q0-27.71,0-55.41c0-1,.3-1.2,1.23-1.19,3.43.06,6.86.08,10.29,0,1.12,0,1.3.36,1.3,1.37C110.59,123.21,110.61,132.38,110.61,141.55Z"/><path class="cls-1" d="M89.45,150.7c0,6.17,0,12.34,0,18.51,0,.86-.15,1.16-1.1,1.15-3.55-.07-7.11-.05-10.66,0-.79,0-1.12-.12-1.11-1,.06-12.38-.06-24.76.18-37.14,0-1,.25-1.39,1.33-1.36,3.39.08,6.77.09,10.16.06.93,0,1.21.21,1.2,1.19C89.42,138.28,89.45,144.49,89.45,150.7Z"/></svg>