<svg id="Layer_1" data-name="Layer 1" xmlns="http://www.w3.org/2000/svg" viewBox="0 0 317.08 285.49"><defs><style>.cls-1{fill:#fff;}</style></defs><title>DM</title><path class="cls-1" d="M95,177.91a5.37,5.37,0,1,0-7.32-2h0A5.36,5.36,0,0,0,95,177.91Z"/><path class="cls-1" d="M73,214.88l27,46.72a21.44,21.44,0,0,0,37.15-21.43h0L121.1,212.31l13.85-8a5.36,5.36,0,0,0,2-7.32l-7-12.06,102.61-20.13a16.07,16.07,0,0,0,13-24.08l-17.75-30.85,11.35-17.23a5.32,5.32,0,0,0,.17-5.63L228.62,68.45a5.39,5.39,0,0,0-5-2.67l-20.62,1.31L183.26,32.81a15.92,15.92,0,0,0-13.71-8h-.21a15.91,15.91,0,0,0-13.53,7.4l-70,89.13L40.35,147.58A37.49,37.49,0,0,0,73,214.88Zm54.81,30.66a10.72,10.72,0,1,1-18.57,10.71L82.45,209.82,101,199.1l26.83,46.43ZM115.7,203.06l-5.35-9.29,9.28-5.35L125,197.7ZM221,76.7l7.4,12.81-6.6,10L209,77.41Zm-56.2-38.65a5.35,5.35,0,0,1,9.21.12l62.31,107.91a5.36,5.36,0,0,1-2,7.31,5.43,5.43,0,0,1-2.54.72,19.21,19.21,0,0,0-2.94.5L162.93,40.46A28.91,28.91,0,0,0,164.77,38.05Zm-9,11.5L217.71,156.8l-93.44,18.33L95.86,125.91ZM35.89,193.45a26.76,26.76,0,0,1,9.76-36.56l.05,0,41.78-24.1,26.83,46.43-41.83,24.1A26.82,26.82,0,0,1,35.89,193.45Z"/><path class="cls-1" d="M78.37,181.31a5.34,5.34,0,0,0-7.31-2h0l-9.29,5.35a5.37,5.37,0,0,1-7.32-2,5.36,5.36,0,1,0-9.28,5.36h0a16.09,16.09,0,0,0,22,5.91h0l9.29-5.36a5.35,5.35,0,0,0,2-7.31h0Z"/><path class="cls-1" d="M287.89,36.23,258,52.84a5.36,5.36,0,1,0,5.21,9.36h0L293.1,45.6a5.36,5.36,0,0,0-5.16-9.37Z"/><path class="cls-1" d="M284.76,91.71l-20.7-5.54a5.36,5.36,0,0,0-3.48,10.13,5.71,5.71,0,0,0,.71.19L282,102a5.36,5.36,0,0,0,3.48-10.13,5.71,5.71,0,0,0-.71-.19Z"/><path class="cls-1" d="M232.75,16.77l-5.56,20.7A5.36,5.36,0,0,0,237.32,41a4.38,4.38,0,0,0,.19-.71l5.55-20.7a5.35,5.35,0,0,0-10.31-2.77Z"/></svg>