<svg id="Layer_1" data-name="Layer 1" xmlns="http://www.w3.org/2000/svg" viewBox="0 0 236.49 251.46"><defs><style>.cls-1{fill:#565656;}</style></defs><title>Experience</title><path class="cls-1" d="M55.24,143.55c-5.42-.38-11.13-.68-16.83-1.19-4.58-.41-7.46-3.64-7.52-8.27q-.09-8.28,0-16.58c.05-4.89,3.16-8.12,8-8.45q7.58-.51,15.15-1a2.05,2.05,0,0,0,2.09-1.6c1.47-3.85,3.07-7.64,4.77-11.39a2,2,0,0,0-.42-2.58c-3.25-3.44-6.43-6.94-9.61-10.43-3.91-4.29-3.81-8.72.29-12.86q5.27-5.32,10.6-10.6c4.16-4.11,8.46-4.18,12.84-.22,3.4,3.08,6.83,6.15,10.15,9.32a2.4,2.4,0,0,0,3.23.51c3.53-1.68,7.16-3.18,10.82-4.56,1.18-.44,1.7-.88,1.77-2.16.27-5.12.65-10.23,1-15.35a8,8,0,0,1,8-7.79c5.72-.1,11.46-.1,17.18,0a7.86,7.86,0,0,1,8,7.56c.46,5.23.79,10.49,1.07,15.74a1.88,1.88,0,0,0,1.49,1.93c3.84,1.5,7.65,3.05,11.39,4.77a2.06,2.06,0,0,0,2.73-.45c3.39-3.2,6.84-6.34,10.29-9.47,4.47-4,8.74-4,13,.26q5.32,5.28,10.6,10.6c4,4.09,4.13,8.44.27,12.69-3.18,3.5-6.35,7-9.6,10.44a2.1,2.1,0,0,0-.45,2.76q2.53,5.52,4.69,11.2a2.19,2.19,0,0,0,2.24,1.7q7.57.42,15.14.95c4.69.32,7.81,3.47,7.89,8.13q.13,8.6,0,17.19a7.76,7.76,0,0,1-7.38,8c-5.7.51-11.41.82-16.89,1.21-2.05,4.57-4.08,9-6,13.52-.19.44.27,1.34.68,1.8,3.15,3.53,6.37,7,9.54,10.49,4,4.46,3.94,8.72-.32,13q-5.28,5.31-10.6,10.59c-4,4-8.36,4.09-12.54.33-3.57-3.21-7.12-6.43-10.6-9.73a2.09,2.09,0,0,0-2.76-.36c-3.69,1.67-7.44,3.21-11.21,4.69-1,.41-1.55.8-1.61,2-.27,5.25-.61,10.5-1.07,15.74a7.76,7.76,0,0,1-7.9,7.42q-8.7.16-17.39,0c-4.5-.08-7.65-3.27-8-7.84-.36-5.11-.74-10.23-1-15.35-.06-1.22-.6-1.63-1.64-2-3.71-1.44-7.43-2.9-11-4.61a2.31,2.31,0,0,0-3.09.48c-3.39,3.2-6.86,6.32-10.31,9.45-4.22,3.85-8.61,3.77-12.7-.25q-5.48-5.4-10.88-10.88c-3.76-3.82-3.9-8.27-.34-12.26q4.84-5.45,9.84-10.76a2,2,0,0,0,.42-2.74C58.9,152.13,57.14,147.9,55.24,143.55Zm114.17-17.76a51.17,51.17,0,1,0-51.12,51.11A51.15,51.15,0,0,0,169.41,125.79Z"/><path class="cls-1" d="M118.2,149.88a24.15,24.15,0,1,1,24.19-24A24.16,24.16,0,0,1,118.2,149.88Zm0-33.37A9.26,9.26,0,1,0,118.3,135a9.42,9.42,0,0,0,9.26-9.33A9.32,9.32,0,0,0,118.21,116.51Z"/><path class="cls-1" d="M118.21,116.51a9.32,9.32,0,0,1,9.35,9.19,9.3,9.3,0,0,1-18.59.1A9.27,9.27,0,0,1,118.21,116.51Z"/></svg>