<svg id="Layer_1" data-name="Layer 1" xmlns="http://www.w3.org/2000/svg" viewBox="0 0 236.49 251.46"><defs><style>.cls-1{fill:#565656;}</style></defs><title>Expertise</title><path class="cls-1" d="M126.73,158.48a10.8,10.8,0,0,0-6.87,3c-3.83,3.56-6.41,3.85-10.79.94-1.19-.79-2.33-1.63-3.45-2.51a7.25,7.25,0,0,1-2.57-8.57c.27-.85.66-1.66.94-2.51a15.42,15.42,0,0,0,.77-2.87c.84-7.21-5-16.58-11.85-19a21.36,21.36,0,0,0-4-.76c-3.6-.51-5.64-2.25-6.34-5.81a49.88,49.88,0,0,1-.83-6.88c-.19-3.68,1-6.18,4.53-7.06,7.5-1.87,12.72-13,11-21.18a21.74,21.74,0,0,0-2.06-4.71,18.29,18.29,0,0,0-1.28-1.79c-2.25-3.41-2.21-6.21.23-9.45a39.84,39.84,0,0,1,3.35-4c2.92-3,5.57-3.29,9.25-1.35a17.89,17.89,0,0,0,3.34,1.33,10.48,10.48,0,0,0,7.64-.91,29.45,29.45,0,0,0,9.64-7,11.6,11.6,0,0,0,3.14-6.55c.64-5.2,2.92-7.25,8.11-7.69,1.25-.11,2.51-.21,3.77-.27,3.78-.18,6.6,1.51,7.68,5,2.31,7.61,13.31,12.39,21.45,10.24a14.72,14.72,0,0,0,4.6-2.3c4.39-3.12,7.65-3.13,11.89.21.62.49,1.23,1,1.8,1.54C193.32,61,194,63.61,191.92,68c-4.39,9.2,3.07,21.88,12.54,22.76,3.32.31,6.54,1.37,7.66,4.86a27.76,27.76,0,0,1,1.25,8.49c0,3.8-2.74,5.85-6,7.12a13.84,13.84,0,0,0-7.64,6.93c-3.17,6.43-3.33,12.71,1.31,18.64,2.7,3.44,2.81,6.14.49,9.86a28.68,28.68,0,0,1-2.29,3.2c-2.74,3.25-5.77,4.19-9.72,2.59-7.93-3.2-14.24-.29-19.92,5a13.59,13.59,0,0,0-4.18,8.45c-.63,4.83-2.42,6.66-7.22,7.61-1.49.3-3,.55-4.51.71a6.57,6.57,0,0,1-7.21-4c-1.39-3.09-3-5.82-6.08-7.57A30.21,30.21,0,0,0,126.73,158.48Zm63.37-49.84A42.36,42.36,0,1,0,147.74,151,42.41,42.41,0,0,0,190.1,108.64Z"/><path class="cls-1" d="M92.39,146.23A24.56,24.56,0,0,1,91,149.15a9.66,9.66,0,0,0,4.58,14.36c3.09,1.17,4,2.6,3.74,5.89-.34,4.29-1,5.07-5.16,6.07-5.27,1.26-8.53,7.94-6.33,12.95,1.73,3.92.19,7.38-3.91,8.83a4.11,4.11,0,0,1-4.16-.74c-4.34-3.67-13.8-.41-15.15,5.13-.54,2.2-2.19,3.26-4.48,3.23l-1.58,0c-3.59-.13-4.62-1-5.41-4.44-1-4.29-7.92-8.54-12.14-7.39a11.06,11.06,0,0,0-2.26,1.06,3.77,3.77,0,0,1-4.67-.41,22.46,22.46,0,0,1-1.9-1.88c-2.13-2.37-2.43-4.11-.46-6.61,3.43-4.34,0-13.53-5.11-14.89-2.82-.76-3.59-2.09-3.45-5,0-.47.07-1,.12-1.42.44-4.18.73-4.5,4.89-5.46,5.07-1.18,8.79-8.69,6.66-13.44a6.42,6.42,0,0,1,5.33-9,4.68,4.68,0,0,1,3,1.09A6.69,6.69,0,0,0,50,138.4a28.19,28.19,0,0,0,5.76-2.81,7.56,7.56,0,0,0,2.39-3.18c1.28-2.89,2.44-3.7,5.59-3.39.73.08,1.46.18,2.18.29a4.2,4.2,0,0,1,3.69,3.57,10.66,10.66,0,0,0,10.08,8.4,9.86,9.86,0,0,0,3.93-.85C87.39,138.93,92.14,142.05,92.39,146.23ZM79.9,166.85c.18-9.87-8.29-18.33-18.51-18.5a18.69,18.69,0,0,0-18.81,18.5c-.18,9.91,8.24,18.4,18.43,18.59A18.7,18.7,0,0,0,79.9,166.85Z"/><path class="cls-1" d="M109.06,196.78c-.41-2.71-1.17-4.8-3.64-5.67-1.61-.56-1.54-1.79-1.47-3.08a2.29,2.29,0,0,1,1.89-2.49,5.42,5.42,0,0,0,3.84-7.33c-.6-1.54,0-2.48,1.09-3.39a2.32,2.32,0,0,1,3.24-.07c2.15,1.58,6.28.29,7.53-2.31.57-1.19,1.17-2.11,2.68-1.91s2.57.61,3,2.41a5.39,5.39,0,0,0,7,3.54c1.32-.49,2.43-.49,3.39.68a2.71,2.71,0,0,1,.24,3.57,5,5,0,0,0,2.36,7.26c1.26.58,2,1.29,1.88,2.86a2.74,2.74,0,0,1-2.29,2.88,5,5,0,0,0-3.36,7,2.52,2.52,0,0,1-.65,3.23,2.68,2.68,0,0,1-3.44.44,5.38,5.38,0,0,0-7.71,2.71c-.7,1.61-1.93,1.45-3.25,1.46a2.1,2.1,0,0,1-2.22-1.79,5.55,5.55,0,0,0-7.57-3.58c-1.27.57-2.07,0-2.9-.84a2.47,2.47,0,0,1-.65-3.12C108.44,198.32,108.79,197.41,109.06,196.78Zm14-16.74a9.61,9.61,0,0,0-9.72,9.68,9.81,9.81,0,0,0,9.53,9.46,9.71,9.71,0,0,0,9.77-9.5A9.59,9.59,0,0,0,123.07,180Z"/><path class="cls-1" d="M147.6,133.5c1-1.79,1.73-3.2,2.48-4.63,1.66-3.16,3.36-6.31,4.94-9.5a1.78,1.78,0,0,1,2.37-1.14q7.5,2.14,15,4.26c2.2.62,3.13,2.18,3.58,4.33a6.64,6.64,0,0,1-2.14,6.54c-8.18,8.26-18,12-29.53,11a34.58,34.58,0,0,1-24-12.66,5.76,5.76,0,0,1,2.62-9.17c4.46-1.35,9-2.53,13.48-3.76,3.68-1,3.7-1,5.35,2.47s3.26,6.94,4.9,10.4C146.84,132.11,147.13,132.6,147.6,133.5Z"/><path class="cls-1" d="M147.55,112.3c-3.21.12-5.58-1.67-7.61-4.07-1-1.21-1.89-2.52-2.93-3.71a37.79,37.79,0,0,0-4.4-4.62c-2-1.6-2-3.69-.2-5.1.3-.23.34-1,.31-1.45a40,40,0,0,1-.51-5.73c.19-2.89,2-5,4.15-6.8,7.35-5.95,16.66-5.7,23.67.66A10,10,0,0,1,163,92.78c-.32,1-.39,1.65.62,2.39a2.56,2.56,0,0,1-.13,4.32c-3.21,2.23-5.09,5.53-7.47,8.44C153.86,110.55,151.3,112.43,147.55,112.3Z"/><path class="cls-1" d="M147.8,130.26c-1.31-2.58-2.92-4.65-1.9-7.49a1.57,1.57,0,0,1,1.87-1.17c.85,0,1.41,0,1.86,1.13C150.8,125.65,148.9,127.61,147.8,130.26Z"/><path class="cls-1" d="M148,116.88c.8.07,1.94-.32,1.89,1.25s-.63,2-2.16,2A1.88,1.88,0,0,1,145.6,118C145.62,117,145.79,116.88,148,116.88Z"/></svg>