<svg id="Layer_1" data-name="Layer 1" xmlns="http://www.w3.org/2000/svg" viewBox="0 0 201.02 209.92"><defs><style>.cls-1{fill:none;stroke:#fff;stroke-miterlimit:10;stroke-width:3.9px;}</style></defs><title>female-01</title><path class="cls-1" d="M128,139.15c12.51-5,29.39-7.05,26.09-17.84-8-26-2.35-53.38-11.37-78.69-7.06-19.8-35-35-55-30.36s-31.22,19-33.66,44.63c-1.55,16.18.9,33.53-4.17,48.4-7.19,21.08.81,29.54,25.29,33.57-13.91,5.83-22.12,9.16-30.24,12.7-10.32,4.5-19.39,10.75-25,20.79-4.69,8.35-6.46,11.62-8.31,17.39-.6,1.88-4.14,8.85,3.31,8.68,9.71-.21,11.33,0,20,0,50.44,0,141.11.1,151.31,0s.27-15.56.27-15.56-1.11-2.21-1.55-3.23C173.73,154.11,150.27,150.1,128,139.15Z"/></svg>