<svg id="Layer_1" data-name="Layer 1" xmlns="http://www.w3.org/2000/svg" viewBox="0 0 84.66 84.26"><defs><style>.cls-1,.cls-3{fill:none;stroke:#ef0d33;stroke-miterlimit:10;}.cls-1{stroke-width:1.8px;}.cls-2{fill:#ef0d33;}.cls-3{stroke-width:2.22px;}.cls-4{fill:#2c5871;}.cls-5{fill:#11313f;}.cls-6{fill:#dd506e;}</style></defs><title>Hnad</title><path class="cls-1" d="M29.88,51.81l.08-5s.08-3.52-4.86-3.16V54s8.57,6.72,9.28,7.23a12.25,12.25,0,0,0,3.28,1.94c0,1,0,4.66,0,4.66H53V62.09s2.29-1.7,2.45-4v-16s.2-2.56-2.17-2.64a2.25,2.25,0,0,0-2.49,1.66c-.35,0-1.18-.08-1.18-.08V38.76A2.4,2.4,0,0,0,47.21,37c-.32,0-2.17.28-2.29,1.78v2.09H43.7v-4s0-1.81-2.37-2c-.36,0-2.13.28-2.29,1.89,0,1.66,0,4.19,0,4.19H37.85V29.83s.28-2.17-2.48-2.36a2.11,2.11,0,0,0-2.22,1.93V52.93Z"/><rect class="cls-2" x="25.17" y="22.75" width="7.09" height="1.28" rx="0.51" transform="translate(17.91 -12.03) rotate(33.88)"/><rect class="cls-2" x="38.21" y="22.58" width="7.09" height="1.28" rx="0.51" transform="translate(89.53 22.45) rotate(150)"/><rect class="cls-2" x="39.72" y="28.84" width="7.09" height="1.28" rx="0.51" transform="translate(66 76.63) rotate(-150)"/><rect class="cls-2" x="31.37" y="19.71" width="7.09" height="1.28" rx="0.51" transform="translate(14.57 55.27) rotate(-90)"/><rect class="cls-2" x="23.94" y="29.26" width="7.09" height="1.28" rx="0.51" transform="translate(-11.27 17.75) rotate(-30)"/><path class="cls-3" d="M82.1,42.16A39.77,39.77,0,1,0,35,81.24V70.81H59.7v7.13A39.77,39.77,0,0,0,82.1,42.16Z"/><rect class="cls-4" x="35.24" y="65.32" width="12.46" height="2.48"/><rect class="cls-5" x="47.71" y="65.32" width="12.46" height="2.48"/><rect class="cls-2" x="33.68" y="67.72" width="28.17" height="2.08"/><path class="cls-2" d="M47.56,69.55V82.67a43.65,43.65,0,0,0,14.29-4.46V69.55Z"/><circle class="cls-5" cx="55.97" cy="73.52" r="1.06"/><path class="cls-6" d="M33.66,69.55V82.21a42.5,42.5,0,0,0,8.18.83h.39a43.4,43.4,0,0,0,5.38-.36V69.55Z"/></svg>