<svg id="Layer_1" data-name="Layer 1" xmlns="http://www.w3.org/2000/svg" viewBox="0 0 317.08 285.49"><defs><style>.cls-1{fill:#fff;}</style></defs><title>MA</title><path class="cls-1" d="M100.37,119.7c5.5,0,11,.06,16.52,0,1.58,0,2,.42,2,2q-.13,9.34,0,18.66c0,1.56-.38,2-2,2q-16.65-.12-33.25,0c-1.47,0-1.91-.37-1.89-1.86q.13-9.45,0-18.9c0-1.48.4-1.89,1.88-1.87C89.21,119.74,94.79,119.7,100.37,119.7Z"/><path class="cls-1" d="M100.17,84.32H83.92c-1.56,0-2.2-.23-2.2-2,.12-6.2.09-12.41,0-18.62,0-1.47.36-1.9,1.86-1.88q16.73.08,33.45,0c1.57,0,1.82.56,1.8,1.93,0,6.29-.07,12.58,0,18.88,0,1.39-.36,1.72-1.68,1.72Z"/><path class="cls-1" d="M100.31,202.8H83.79c-1.49,0-2.08-.27-2.06-1.94.11-6.21.09-12.44,0-18.66,0-1.41.29-1.94,1.82-1.93q16.76.1,33.49,0c1.56,0,1.82.55,1.81,1.94-.08,6.23-.1,12.44,0,18.66,0,1.69-.6,1.95-2.07,1.93C111.32,202.75,105.81,202.8,100.31,202.8Z"/><path class="cls-1" d="M207.76,222.81c0-1.47-.36-1.91-1.86-1.86-5.65.17-11.3.24-17,.25-39.65.14-79.3.06-118.95.13-2,0-2.42-.57-2.42-2.5q.08-86.16,0-172.31c0-2.2.64-2.52,2.63-2.52q58.05.07,116.07,0c1.1,0,2.2.07,3.3,0,1.31-.12,1.61.42,1.59,1.65-.09,3.18,0,6.38-.06,9.57,0,1.43.18,2.14,1.91,2.08,4.3-.14,8.61-.1,12.92,0,1.35,0,1.78-.35,1.76-1.73-.08-5,.1-10-.07-15.07C207.23,28,201.29,19.13,190,13.81c-2.37-1.1-5-1.29-7.37-2.31l-108.13.26a19.6,19.6,0,0,0-6.92,1.86C56.2,19.26,50.29,28.44,50.28,41.16q-.09,102.53,0,205v2.21c.61,9.59,4.4,17.46,12.22,23.33a28.69,28.69,0,0,0,11.47,5h92.66c.16-.13,15.84-.39,16-.4,12.46-1.1,25-12.78,25.06-28.34C207.74,239.62,207.69,231.19,207.76,222.81ZM129.5,262.23a13.22,13.22,0,1,1,13.15-13.35A13.21,13.21,0,0,1,129.5,262.23Z"/><path class="cls-1" d="M266.84,131.43c0-1.52-.47-1.85-1.89-1.83-5.1.09-10.21,0-15.31.06-1.21,0-1.81-.22-2.08-1.56a45.06,45.06,0,0,0-6.48-15.79c-.78-1.21-.55-1.85.4-2.78,3.67-3.55,7.22-7.21,10.88-10.76,1-1,1-1.46,0-2.4q-5.61-5.39-11-11c-.95-1-1.48-1.28-2.59-.11-3.52,3.69-7.23,7.2-10.76,10.88a1.82,1.82,0,0,1-2.52.52,3.11,3.11,0,0,1-.28-.23,44.28,44.28,0,0,0-15.33-6.37c-1.48-.31-1.93-.81-1.9-2.31.09-5.1,0-10.21.07-15.31,0-1.33-.31-1.74-1.68-1.72-5.18.08-10.37.12-15.55,0-1.78,0-2.06.56-2,2.21.1,5,0,10,.06,15.06,0,1.23-.23,1.81-1.58,2.08a45.23,45.23,0,0,0-15.63,6.32c-1,.67-1.74.92-2.8-.18-3.51-3.68-7.22-7.18-10.74-10.86-1.1-1.1-1.59-1-2.6,0-3.6,3.71-7.24,7.39-11,10.94-1.1,1.1-1,1.59,0,2.57,3.67,3.55,7.2,7.23,10.86,10.79a1.68,1.68,0,0,1,.29,2.58,45.45,45.45,0,0,0-6.47,15.55c-.35,1.55-.89,1.88-2.33,1.86-5.1-.08-10.21,0-15.31,0-1.24,0-1.67.29-1.62,1.58.1,2.63,0,5.27,0,7.9s.1,5.26,0,7.9c-.08,1.54.48,1.85,1.9,1.83,5.1-.08,10.21,0,15.31,0,1,0,1.71,0,2,1.38a45.32,45.32,0,0,0,6.6,16c.75,1.1.54,1.73-.34,2.57-3.71,3.62-7.32,7.33-11,10.92-.92.88-.87,1.38,0,2.2,3.77,3.67,7.51,7.36,11.16,11.15,1.1,1.1,1.63,1,2.62-.07,3.49-3.61,7.11-7.09,10.63-10.68.87-.88,1.47-1.3,2.74-.44a45.49,45.49,0,0,0,15.53,6.52c1.47.34,1.87.89,1.85,2.34-.09,5,0,10.05-.08,15.07,0,1.51.44,1.87,1.88,1.85,5.19-.08,10.38-.09,15.56,0,1.55,0,1.84-.52,1.81-1.93-.07-5.11,0-10.21-.06-15.31,0-1.26.33-1.81,1.61-2.05A46.49,46.49,0,0,0,225.41,182a1.71,1.71,0,0,1,2.58.32c3.55,3.64,7.21,7.21,10.78,10.86.86.88,1.41,1.19,2.44.12,3.72-3.83,7.52-7.6,11.36-11.3,1-.93.74-1.43-.07-2.2-3.7-3.62-7.32-7.31-11-10.91a1.69,1.69,0,0,1-.54-2.32,2.56,2.56,0,0,1,.2-.26,46.25,46.25,0,0,0,6.44-15.86c.27-1.3.78-1.64,2-1.62,5.1.07,10.21,0,15.31.06,1.43,0,1.93-.31,1.89-1.84Q266.7,139.22,266.84,131.43Zm-68.6,28.63a20.93,20.93,0,1,1,21.09-20.76v.16a20.86,20.86,0,0,1-21.09,20.61Z"/></svg>