<svg id="Layer_1" data-name="Layer 1" xmlns="http://www.w3.org/2000/svg" viewBox="0 0 201.02 209.92"><defs><style>.cls-1{fill:none;stroke:#fff;stroke-miterlimit:10;stroke-width:4px;}</style></defs><title>male-01</title><path class="cls-1" d="M11.44,200.65h0c51,0,102,.56,153,.44,7.49,0,12,.25,22,0,11-.28.79-12.44-7.69-32.64-7.08-16.86-28.59-18.93-44.69-25-14.5-5.49-19.83-15.22-9.48-27.17,15.8-18.23,14.35-39.7,15.35-61C141.1,30.63,121.51,8.87,98.5,8.72c-27-.17-46.93,18.11-46.13,44.36.64,21.09-2.06,42.86,14.09,61.26,11.45,13,6.94,23.93-9.54,30.42-18.54,7.3-36.43,13.78-44.5,39.71a27.52,27.52,0,0,1-1.1,3.9S7.88,197.46,11.44,200.65Z"/></svg>