<svg id="Layer_1" data-name="Layer 1" xmlns="http://www.w3.org/2000/svg" viewBox="0 0 231.82 255"><defs><style>.cls-1{fill:#fff;}</style></defs><title>Mapps</title><path class="cls-1" d="M69.76,105.12c5,0,10,.06,15,0,1.44,0,1.83.38,1.81,1.8q-.12,8.48,0,16.94c0,1.42-.35,1.83-1.8,1.82q-15.11-.11-30.19,0c-1.33,0-1.73-.34-1.71-1.69q.11-8.58,0-17.16c0-1.34.36-1.72,1.7-1.7C59.63,105.16,64.7,105.12,69.76,105.12Z"/><path class="cls-1" d="M69.58,73c-4.92,0-9.84,0-14.75,0-1.42,0-2-.21-2-1.84.11-5.63.08-11.27,0-16.91,0-1.33.33-1.72,1.69-1.71q15.18.07,30.37,0c1.42,0,1.65.51,1.63,1.76,0,5.71-.06,11.42,0,17.14C86.57,72.7,86.2,73,85,73,79.84,73,74.71,73,69.58,73Z"/><path class="cls-1" d="M69.71,180.57c-5,0-10,0-15,0-1.35,0-1.89-.24-1.87-1.76.1-5.64.08-11.29,0-16.94,0-1.28.26-1.76,1.65-1.75q15.21.09,30.41,0c1.41,0,1.65.5,1.64,1.76-.07,5.65-.09,11.29,0,16.94,0,1.53-.54,1.77-1.88,1.75C79.7,180.53,74.7,180.57,69.71,180.57Z"/><path class="cls-1" d="M167.27,198.74c0-1.33-.33-1.73-1.69-1.69-5.13.16-10.26.22-15.39.23-36,.13-72,.05-108,.12-1.86,0-2.2-.52-2.2-2.27q.07-78.23,0-156.45c0-2,.58-2.29,2.39-2.29q52.7.07,105.38,0c1,0,2,.07,3,0,1.19-.11,1.46.38,1.44,1.5-.08,2.89,0,5.79-.05,8.69,0,1.3.16,1.94,1.73,1.89,3.91-.13,7.82-.09,11.73,0,1.23,0,1.62-.32,1.6-1.57-.07-4.56.09-9.13-.06-13.69-.37-11.33-5.76-19.4-16-24.23-2.15-1-4.53-1.17-6.69-2.1l-98.18.24A17.77,17.77,0,0,0,40,8.81c-10.34,5.12-15.71,13.45-15.72,25q-.07,93.09,0,186.17c0,.66,0,1.31,0,2,.56,8.71,4,15.86,11.1,21.19a26.06,26.06,0,0,0,10.41,4.56h84.13c.15-.12,14.38-.35,14.54-.36,11.31-1,22.71-11.6,22.75-25.73C167.25,214,167.2,206.35,167.27,198.74ZM96.21,234.53a12,12,0,1,1,11.94-12.12A12.06,12.06,0,0,1,96.21,234.53Z"/><path class="cls-1" d="M220.91,115.77c0-1.38-.43-1.68-1.72-1.66-4.63.08-9.27,0-13.9.06-1.1,0-1.64-.2-1.89-1.42a41,41,0,0,0-5.88-14.34c-.71-1.1-.5-1.68.36-2.52,3.33-3.22,6.56-6.55,9.88-9.77.89-.86.87-1.33,0-2.18q-5.1-4.89-10-9.94c-.86-.88-1.34-1.16-2.35-.1-3.19,3.35-6.56,6.54-9.77,9.88a1.65,1.65,0,0,1-2.54.26,40.1,40.1,0,0,0-13.92-5.78c-1.34-.28-1.75-.74-1.72-2.1.08-4.63,0-9.27.06-13.9,0-1.21-.28-1.58-1.53-1.56-4.7.07-9.41.11-14.11,0-1.62,0-1.87.51-1.84,2,.09,4.56,0,9.12.06,13.68,0,1.11-.21,1.64-1.44,1.89A40.9,40.9,0,0,0,134.47,84c-.95.61-1.58.84-2.54-.16-3.19-3.34-6.56-6.52-9.75-9.86-1-1-1.45-.93-2.36,0-3.27,3.37-6.58,6.71-10,9.93-1,1-.88,1.45,0,2.34,3.33,3.22,6.54,6.56,9.86,9.79a1.53,1.53,0,0,1,.26,2.35,41.3,41.3,0,0,0-5.87,14.11c-.32,1.41-.81,1.71-2.12,1.69-4.63-.07-9.27,0-13.9,0-1.12,0-1.51.27-1.47,1.44.09,2.39,0,4.78,0,7.17s.09,4.78,0,7.17c-.07,1.4.44,1.68,1.73,1.66,4.63-.07,9.27,0,13.9,0,.94,0,1.55,0,1.81,1.26a41.08,41.08,0,0,0,6,14.54c.68,1,.49,1.57-.31,2.34-3.37,3.28-6.65,6.65-10,9.91-.83.8-.79,1.25,0,2,3.42,3.33,6.82,6.68,10.13,10.12,1,1,1.48.88,2.38-.06,3.17-3.28,6.46-6.44,9.65-9.7.79-.8,1.34-1.18,2.49-.4a41.38,41.38,0,0,0,14.1,5.92c1.34.31,1.7.81,1.68,2.13-.08,4.56,0,9.12-.07,13.68,0,1.37.4,1.7,1.71,1.68,4.71-.07,9.42-.08,14.12,0,1.41,0,1.67-.47,1.65-1.75-.07-4.64,0-9.27-.06-13.9,0-1.15.3-1.65,1.46-1.87a42.12,42.12,0,0,0,14.34-5.89,1.53,1.53,0,0,1,2.34.29c3.23,3.31,6.55,6.55,9.79,9.86.78.8,1.28,1.08,2.22.11,3.37-3.48,6.82-6.9,10.31-10.26.87-.84.67-1.3-.06-2-3.36-3.28-6.65-6.63-10-9.9a1.53,1.53,0,0,1-.31-2.34A42,42,0,0,0,203.43,133c.24-1.18.71-1.49,1.85-1.47,4.63.06,9.27,0,13.9.05,1.3,0,1.75-.28,1.72-1.67Q220.77,122.84,220.91,115.77Zm-62.29,26a19,19,0,1,1,19.15-18.71A18.94,18.94,0,0,1,158.62,141.78Z"/></svg>