<svg xmlns="http://www.w3.org/2000/svg" xmlns:xlink="http://www.w3.org/1999/xlink" viewBox="0 0 830 847.79"><defs><style>.cls-1{fill:none;}.cls-2{isolation:isolate;}.cls-3{fill:#fcf7e3;}.cls-4{fill:#f4e7c1;}.cls-5{opacity:0.4;}.cls-6{fill:#fff;}.cls-7{fill:#f4c5a2;}.cls-8{fill:#242733;}.cls-9{fill:#323657;}.cls-10{fill:#41486d;}.cls-11{fill:#fed4bd;}.cls-12{fill:#0b3b56;}.cls-13{fill:url(#linear-gradient);}.cls-14{fill:#bbcee1;}.cls-15{fill:#a7bcce;}.cls-16{fill:#f5d012;}.cls-17{fill:#edf0f8;}.cls-18{fill:#50e85e;}.cls-19{fill:#ed5561;}.cls-20{fill:#f9d7c0;mix-blend-mode:hard-light;}.cls-21{fill:url(#linear-gradient-2);}.cls-22{fill:url(#linear-gradient-3);}.cls-23{fill:url(#linear-gradient-4);}.cls-24{fill:url(#linear-gradient-5);}.cls-25{fill:#c67b47;}.cls-26{fill:#82522f;}.cls-27{fill:url(#linear-gradient-6);}.cls-28{fill:url(#linear-gradient-7);}.cls-29{fill:url(#linear-gradient-8);}.cls-30{fill:#ffa855;}.cls-31{fill:#ffa555;}.cls-32{fill:#eea886;}.cls-33{fill:#858585;}.cls-34{fill:#e2d2ca;}.cls-35{fill:#1c1e30;}.cls-36{fill:#24263d;}.cls-37{fill:#282b45;}.cls-38{fill:#eea987;}.cls-39{fill:#eddad3;}.cls-40{fill:#1f2136;}.cls-41{fill:#4f558a;}.cls-42{fill:#d6c5bf;}.cls-43{fill:#16202e;}.cls-44{fill:#007fe6;}.cls-45{fill:#6e6760;}.cls-46{fill:#918880;}.cls-47{fill:#706865;}.cls-48{fill:#a77860;}.cls-49{fill:#eb4747;}.cls-50{fill:#d69779;}.cls-51{fill:#12131f;}.cls-52{fill:#9e633a;}.cls-53{fill:#97a43c;}.cls-54{opacity:0.3;}.cls-55{fill:#e2d1af;}.cls-56{clip-path:url(#clip-path);}.cls-57{opacity:0.5;}</style><linearGradient id="linear-gradient" x1="2243.73" y1="451.96" x2="2226.05" y2="90.18" gradientTransform="matrix(-1, 0, 0, 1, 2862.1, 0)" gradientUnits="userSpaceOnUse"><stop offset="0" stop-color="#1c75bc"/><stop offset="0.28" stop-color="#2077bc"/><stop offset="0.54" stop-color="#2b7ebc"/><stop offset="0.8" stop-color="#3e88bc"/><stop offset="1" stop-color="#5394bc"/></linearGradient><linearGradient id="linear-gradient-2" x1="353.98" y1="348.8" x2="361.33" y2="348.8" gradientUnits="userSpaceOnUse"><stop offset="0" stop-color="#d5e4ff"/><stop offset="1" stop-color="#edfffe"/></linearGradient><linearGradient id="linear-gradient-3" x1="366.89" y1="343.36" x2="374.24" y2="343.36" xlink:href="#linear-gradient-2"/><linearGradient id="linear-gradient-4" x1="380.43" y1="346.21" x2="387.78" y2="346.21" xlink:href="#linear-gradient-2"/><linearGradient id="linear-gradient-5" x1="394.35" y1="352.82" x2="401.7" y2="352.82" xlink:href="#linear-gradient-2"/><linearGradient id="linear-gradient-6" x1="328.62" y1="502.99" x2="328.62" y2="467.38" gradientUnits="userSpaceOnUse"><stop offset="0" stop-color="#ff9f55"/><stop offset="1" stop-color="#ffd255"/></linearGradient><linearGradient id="linear-gradient-7" x1="-10291.26" y1="520.17" x2="-10272.31" y2="520.17" gradientTransform="matrix(-1, 0, 0, 1, -9956.95, 0)" xlink:href="#linear-gradient-6"/><linearGradient id="linear-gradient-8" x1="-10271.14" y1="440.2" x2="-10253.07" y2="440.2" gradientTransform="matrix(-1, 0, 0, 1, -9956.95, 0)" xlink:href="#linear-gradient-6"/><clipPath id="clip-path"><circle class="cls-1" cx="415" cy="423.89" r="409.43"/></clipPath></defs><title>Services_banner-01</title><g class="cls-2"><g id="Layer_1" data-name="Layer 1"><circle class="cls-3" cx="415" cy="423.89" r="409.43"/><path class="cls-4" d="M68.65,642.34c72.54,114.77,200.54,191,346.35,191s273.81-76.22,346.35-191Z"/><g class="cls-5"><polygon class="cls-6" points="377.91 213.67 377.91 216.11 388.14 222.01 388.14 219.58 377.91 213.67"/><polygon class="cls-6" points="377.91 218.13 377.91 220.56 388.14 226.46 388.14 224.03 377.91 218.13"/><polygon class="cls-6" points="377.91 222.57 377.91 225.01 388.14 230.91 388.14 228.48 377.91 222.57"/><polygon class="cls-6" points="455.14 274.01 455.14 271.57 391.98 235.14 391.98 237.58 455.14 274.01"/><polygon class="cls-6" points="377.91 227.03 377.91 229.46 388.14 235.37 388.14 232.93 377.91 227.03"/><polygon class="cls-6" points="377.91 231.48 377.91 233.91 388.14 239.81 388.14 237.38 377.91 231.48"/><polygon class="cls-6" points="455.14 278.46 455.14 276.02 391.98 239.59 391.98 242.03 455.14 278.46"/><polygon class="cls-6" points="377.91 244.83 377.91 247.26 388.14 253.17 388.14 250.73 377.91 244.83"/><polygon class="cls-6" points="377.91 249.28 377.91 251.71 388.14 257.62 388.14 255.18 377.91 249.28"/><polygon class="cls-6" points="377.91 267.08 377.91 269.51 388.14 275.42 388.14 272.98 377.91 267.08"/><polygon class="cls-6" points="377.91 271.53 377.91 273.96 388.14 279.87 388.14 277.43 377.91 271.53"/><polygon class="cls-6" points="431.83 302.63 391.98 279.65 391.98 282.08 431.83 305.06 431.83 302.63"/><polygon class="cls-6" points="433.93 303.84 433.93 306.28 455.14 318.51 455.14 316.08 433.93 303.84"/><polygon class="cls-6" points="412 286.74 391.98 275.2 391.98 277.63 412 289.18 412 286.74"/><polygon class="cls-6" points="414.1 287.95 414.1 290.39 455.14 314.06 455.14 311.63 414.1 287.95"/><polygon class="cls-6" points="449.74 295.16 449.74 297.6 455.14 300.71 455.14 298.28 449.74 295.16"/><polygon class="cls-6" points="420.36 273.76 391.98 257.39 391.98 259.83 420.36 276.2 420.36 273.76"/><polygon class="cls-6" points="408.73 231.45 391.98 221.79 391.98 224.23 408.73 233.89 408.73 231.45"/><polygon class="cls-6" points="436.19 247.29 410.83 232.66 410.83 235.1 436.19 249.73 436.19 247.29"/><polygon class="cls-6" points="421.41 243.22 403.56 232.92 403.56 235.36 421.41 245.65 421.41 243.22"/><polygon class="cls-6" points="440.14 254.02 423.51 244.43 423.51 246.87 440.14 256.46 440.14 254.02"/><polygon class="cls-6" points="442.25 255.23 442.25 257.67 455.14 265.11 455.14 262.67 442.25 255.23"/><polygon class="cls-6" points="395.28 232.6 395.28 235.03 408.73 242.79 408.73 240.35 395.28 232.6"/><polygon class="cls-6" points="449.88 264.09 410.83 241.57 410.83 244 449.88 266.52 449.88 264.09"/><polygon class="cls-6" points="427.53 264.55 402.01 249.83 402.01 252.26 427.53 266.98 427.53 264.55"/><polygon class="cls-6" points="449.88 277.44 429.63 265.76 429.63 268.19 449.88 279.88 449.88 277.44"/><polygon class="cls-6" points="447.64 289.5 422.46 274.98 422.46 277.41 447.64 291.94 447.64 289.5"/><polygon class="cls-6" points="433.93 286.04 433.93 288.48 447.64 296.39 447.64 293.95 433.93 286.04"/><polygon class="cls-6" points="396.92 264.69 391.98 261.85 391.98 264.28 396.92 267.13 396.92 264.69"/><polygon class="cls-6" points="406.17 270.03 406.17 272.47 431.83 287.26 431.83 284.83 406.17 270.03"/><polygon class="cls-6" points="404.07 268.82 399.02 265.9 399.02 268.34 404.07 271.25 404.07 268.82"/><polygon class="cls-6" points="427.08 286.54 399.02 270.36 399.02 272.79 427.08 288.98 427.08 286.54"/></g><path class="cls-7" d="M559.43,430.43s-3.19-3.16-4.1-4.36-4.94-5.45-5.48-7.83,3.15.53,4.44,1,3.14-.65,2.59-3.05-3.59-6.78-4.66-9.41,9.71-2.46,12.79,1a18.12,18.12,0,0,1,4.88,11.69c.21,4.4-1.71,8-1.36,9.91Z"/><path class="cls-6" d="M570.12,425.68l-14.53,2.15,2,24L579.2,471.3A171.81,171.81,0,0,0,570.12,425.68Z"/><path class="cls-8" d="M520.4,641.47s-1.29,5.7,6.48,6.72,11.15.93,11.82,6.12-1.51,7.4-10.1,7.92c-7.41.45-20-1.27-27-3.23-1.18-.33-2.16-1-2.23-2.18-.15-2.54.92-9.42,2.88-14.11C505,636,520.4,641.47,520.4,641.47Z"/><path class="cls-8" d="M550.52,648.26s-.61,1.81,7.22,2.24,16.14.43,17.21,5.55-5,9.17-13.55,10.34c-7.35,1-22.06,1.71-27.9,2a2.28,2.28,0,0,1-2.39-2,58.36,58.36,0,0,1-.42-11.78C531.22,647.3,550.52,648.26,550.52,648.26Z"/><path class="cls-9" d="M509.72,518.11s-2.23,62.9-2.79,70.55S500.51,644,500.51,644s13.14,6.61,23.34,2.08L535.21,525.2Z"/><path class="cls-10" d="M528.13,522.08l3.08,61.84c-.57,18.41-1.31,71.24-1.31,71.24a33.94,33.94,0,0,0,24.56-6.47c-.85-8.21,0-58.05,0-58.05,3.07-24.11,1.53-62.84,1.86-70,0-.74,0-1.14,0-1.14Z"/><path class="cls-6" d="M500.65,429.3s-7.63,29.49-5.55,45.35c0,0,5.55,8.13,15.85,7.32Z"/><path class="cls-11" d="M553,401.58c0,11.54-7.64,20.88-17,20.85s-16.93-9.4-16.89-20.94,7.64-20.87,17-20.84S553.05,390,553,401.58Z"/><path class="cls-9" d="M564.49,433.59s-14.2-5.39-16.12-6.68a7.27,7.27,0,0,1-2.63-3.29c-9.6-6.71-21.83-5.88-21.83-5.88-17.88,4.9-23.26,11.56-23.26,11.56,1.84,15.25,5.77,75.38,6.63,88.73a4.47,4.47,0,0,0,2.57,3.78c22,10.11,38.3,5.25,45.88,1.6a7.34,7.34,0,0,0,4-7.5C556.56,487.08,564.49,433.59,564.49,433.59Z"/><path class="cls-12" d="M542.22,379.71s13.23,2.53,13.37,13.65l-12.35,4.07s1.93,9.39-5,11.78c0,0-2,8.5-14.56,7.7,0,0-18.89-24.61,4.19-36.26A30.47,30.47,0,0,1,542.22,379.71Z"/><path class="cls-6" d="M565,433.59c-12.91,0-7.78,27.78-7.78,27.78l4.43,19.35a5.09,5.09,0,0,0,5.88,3.72,13.4,13.4,0,0,0,11.7-10.95C579.05,448.09,565,433.59,565,433.59Z"/><path class="cls-6" d="M545.74,423.62c-9.6-6.71-21.83-5.88-21.83-5.88-2.8.77-5.26,1.58-7.48,2.4,10.81,0,25.14,3.94,30.58,5.55A7.47,7.47,0,0,1,545.74,423.62Z"/><path class="cls-6" d="M758.6,288.78l-252-145.37a4.77,4.77,0,0,0-5.05.21h0l-5.61,3.15,5.15,7,1.91,2.2V315.19a8.34,8.34,0,0,0,4.17,7.22L746.48,460.49l.38,2.1,7.71,10.8,6.38-3.72.06,0,.08-.05h0a3.77,3.77,0,0,0,1.81-3.24V296.22A8.58,8.58,0,0,0,758.6,288.78Z"/><path class="cls-13" d="M752.27,292.46,499.66,146.75a3.74,3.74,0,0,0-5.61,3.24V320.36a8.31,8.31,0,0,0,4.17,7.21l252.6,145.77a3.83,3.83,0,0,0,5.75-3.32V299.9A8.58,8.58,0,0,0,752.27,292.46Z"/><path class="cls-14" d="M494.05,150V320.36a8.31,8.31,0,0,0,4.17,7.21l252.6,145.76a3.82,3.82,0,0,0,5.75-3.31V299.9a8.58,8.58,0,0,0-4.3-7.44L499.66,146.75a3.66,3.66,0,0,0-1.86-.5h0A3.74,3.74,0,0,0,494.05,150Zm3.64,0v-.17l.14.08L750.45,295.61a5,5,0,0,1,2.48,4.29V469.76c0,.18-.19.2-.2.2L500,324.16a4.69,4.69,0,0,1-2.35-4.06Z"/><path class="cls-14" d="M754.64,473.34l-.07.05h0Z"/><path class="cls-15" d="M756.57,470V299.9A8.54,8.54,0,0,0,756,297l6.37-3.57a8.41,8.41,0,0,1,.54,2.82V466.34a3.77,3.77,0,0,1-1.81,3.24h0l-.08.05-.06,0-6.28,3.66A3.8,3.8,0,0,0,756.57,470Z"/><polygon class="cls-16" points="520.97 172.36 520.97 175.85 535.6 184.29 535.6 180.8 520.97 172.36"/><polygon class="cls-17" points="520.97 178.73 520.97 182.21 535.6 190.65 535.6 187.17 520.97 178.73"/><polygon class="cls-17" points="520.97 185.09 520.97 188.57 535.6 197.01 535.6 193.53 520.97 185.09"/><polygon class="cls-17" points="631.4 258.63 631.4 255.15 541.09 203.06 541.09 206.54 631.4 258.63"/><polygon class="cls-17" points="520.97 191.45 520.97 194.94 535.6 203.38 535.6 199.89 520.97 191.45"/><polygon class="cls-17" points="520.97 197.81 520.97 201.3 535.6 209.74 535.6 206.26 520.97 197.81"/><polygon class="cls-18" points="631.4 265 631.4 261.51 541.09 209.42 541.09 212.91 631.4 265"/><polygon class="cls-17" points="520.97 216.91 520.97 220.39 535.6 228.83 535.6 225.35 520.97 216.91"/><polygon class="cls-16" points="520.97 223.27 520.97 226.75 535.6 235.19 535.6 231.71 520.97 223.27"/><polygon class="cls-17" points="520.97 248.72 520.97 252.21 535.6 260.65 535.6 257.16 520.97 248.72"/><polygon class="cls-17" points="520.97 255.09 520.97 258.57 535.6 267.01 535.6 263.52 520.97 255.09"/><polygon class="cls-18" points="598.07 299.56 541.09 266.69 541.09 270.18 598.07 303.04 598.07 299.56"/><polygon class="cls-17" points="601.07 301.29 601.07 304.77 631.4 322.27 631.4 318.78 601.07 301.29"/><polygon class="cls-17" points="569.72 276.84 541.09 260.33 541.09 263.81 569.72 280.32 569.72 276.84"/><polygon class="cls-17" points="572.72 278.57 572.72 282.06 631.4 315.9 631.4 312.42 572.72 278.57"/><polygon class="cls-17" points="623.68 288.88 623.68 292.36 631.4 296.81 631.4 293.33 623.68 288.88"/><polygon class="cls-19" points="581.67 258.28 541.09 234.88 541.09 238.36 581.67 261.76 581.67 258.28"/><polygon class="cls-17" points="565.04 197.78 541.09 183.97 541.09 187.45 565.04 201.27 565.04 197.78"/><polygon class="cls-17" points="604.3 220.43 568.04 199.52 568.04 203 604.3 223.91 604.3 220.43"/><polygon class="cls-17" points="583.17 214.6 557.64 199.88 557.64 203.36 583.17 218.09 583.17 214.6"/><polygon class="cls-19" points="609.96 230.05 586.17 216.34 586.17 219.82 609.96 233.54 609.96 230.05"/><polygon class="cls-17" points="612.96 231.79 612.96 235.27 631.4 245.91 631.4 242.42 612.96 231.79"/><polygon class="cls-19" points="545.81 199.42 545.81 202.9 565.04 214 565.04 210.51 545.81 199.42"/><polygon class="cls-17" points="623.88 244.45 568.04 212.24 568.04 215.73 623.88 247.93 623.88 244.45"/><polygon class="cls-17" points="591.91 245.1 555.42 224.05 555.42 227.54 591.91 248.58 591.91 245.1"/><polygon class="cls-17" points="623.88 263.54 594.91 246.83 594.91 250.31 623.88 267.02 623.88 263.54"/><polygon class="cls-17" points="620.68 280.78 584.67 260.01 584.67 263.5 620.68 284.26 620.68 280.78"/><polygon class="cls-18" points="601.07 275.83 601.07 279.32 620.68 290.63 620.68 287.14 601.07 275.83"/><polygon class="cls-17" points="548.15 245.31 541.09 241.24 541.09 244.72 548.15 248.8 548.15 245.31"/><polygon class="cls-17" points="561.38 252.94 561.38 256.43 598.07 277.58 598.07 274.1 561.38 252.94"/><polygon class="cls-17" points="558.38 251.21 551.16 247.04 551.16 250.53 558.38 254.69 558.38 251.21"/><polygon class="cls-17" points="591.28 276.55 551.16 253.41 551.16 256.89 591.28 280.03 591.28 276.55"/><polygon class="cls-16" points="520.97 273.83 520.97 277.31 535.6 285.75 535.6 282.27 520.97 273.83"/><polygon class="cls-17" points="520.97 280.19 520.97 283.68 535.6 292.12 535.6 288.63 520.97 280.19"/><polygon class="cls-17" points="520.97 286.56 520.97 290.04 535.6 298.48 535.6 295 520.97 286.56"/><polygon class="cls-17" points="631.4 360.1 631.4 356.62 541.09 304.53 541.09 308.01 631.4 360.1"/><polygon class="cls-17" points="520.97 292.92 520.97 296.4 535.6 304.84 535.6 301.36 520.97 292.92"/><polygon class="cls-17" points="520.97 299.28 520.97 302.77 535.6 311.21 535.6 307.72 520.97 299.28"/><polygon class="cls-18" points="631.4 366.46 631.4 362.98 541.09 310.89 541.09 314.37 631.4 366.46"/><polygon class="cls-17" points="520.97 318.37 520.97 321.86 535.6 330.3 535.6 326.81 520.97 318.37"/><polygon class="cls-16" points="520.97 324.74 520.97 328.22 535.6 336.66 535.6 333.18 520.97 324.74"/><polygon class="cls-19" points="581.67 359.75 541.09 336.34 541.09 339.83 581.67 363.23 581.67 359.75"/><polygon class="cls-17" points="565.04 299.25 541.09 285.44 541.09 288.92 565.04 302.74 565.04 299.25"/><polygon class="cls-17" points="604.3 321.9 568.04 300.98 568.04 304.47 604.3 325.38 604.3 321.9"/><polygon class="cls-17" points="583.17 316.07 557.64 301.35 557.64 304.83 583.17 319.56 583.17 316.07"/><polygon class="cls-19" points="609.96 331.52 586.17 317.81 586.17 321.29 609.96 335 609.96 331.52"/><polygon class="cls-17" points="612.96 333.25 612.96 336.74 631.4 347.38 631.4 343.89 612.96 333.25"/><polygon class="cls-19" points="545.81 300.88 545.81 304.37 565.04 315.46 565.04 311.98 545.81 300.88"/><polygon class="cls-17" points="623.88 345.91 568.04 313.71 568.04 317.19 623.88 349.4 623.88 345.91"/><polygon class="cls-17" points="591.91 346.57 555.42 325.52 555.42 329 591.91 350.05 591.91 346.57"/><polygon class="cls-17" points="623.88 365 594.91 348.3 594.91 351.78 623.88 368.49 623.88 365"/><polygon class="cls-17" points="620.68 382.25 584.67 361.48 584.67 364.96 620.68 385.73 620.68 382.25"/><polygon class="cls-18" points="699.29 275.1 699.29 276.48 705.1 279.83 705.1 278.45 699.29 275.1"/><polygon class="cls-18" points="699.29 277.63 699.29 279.01 705.1 282.36 705.1 280.98 699.29 277.63"/><polygon class="cls-18" points="699.29 280.15 699.29 281.54 705.1 284.89 705.1 283.5 699.29 280.15"/><polygon class="cls-18" points="743.15 309.36 743.15 307.98 707.28 287.29 707.28 288.67 743.15 309.36"/><polygon class="cls-18" points="699.29 282.68 699.29 284.06 705.1 287.42 705.1 286.03 699.29 282.68"/><polygon class="cls-18" points="699.29 285.21 699.29 286.59 705.1 289.94 705.1 288.56 699.29 285.21"/><polygon class="cls-18" points="743.15 311.89 743.15 310.5 707.28 289.82 707.28 291.2 743.15 311.89"/><polygon class="cls-18" points="699.29 292.79 699.29 294.17 705.1 297.52 705.1 296.14 699.29 292.79"/><polygon class="cls-18" points="699.29 295.32 699.29 296.7 705.1 300.05 705.1 298.67 699.29 295.32"/><polygon class="cls-18" points="699.29 305.42 699.29 306.81 705.1 310.16 705.1 308.77 699.29 305.42"/><polygon class="cls-18" points="699.29 307.95 699.29 309.33 705.1 312.69 705.1 311.3 699.29 307.95"/><polygon class="cls-18" points="729.91 325.61 707.28 312.56 707.28 313.94 729.91 326.99 729.91 325.61"/><polygon class="cls-18" points="731.1 326.3 731.1 327.68 743.15 334.63 743.15 333.25 731.1 326.3"/><polygon class="cls-18" points="718.65 316.59 707.28 310.03 707.28 311.42 718.65 317.97 718.65 316.59"/><polygon class="cls-18" points="719.84 317.28 719.84 318.66 743.15 332.1 743.15 330.72 719.84 317.28"/><polygon class="cls-18" points="740.08 321.37 740.08 322.75 743.15 324.52 743.15 323.14 740.08 321.37"/><polygon class="cls-18" points="723.4 309.22 707.28 299.93 707.28 301.31 723.4 310.6 723.4 309.22"/><polygon class="cls-18" points="716.79 285.19 707.28 279.71 707.28 281.09 716.79 286.58 716.79 285.19"/><polygon class="cls-18" points="732.39 294.19 717.99 285.88 717.99 287.27 732.39 295.57 732.39 294.19"/><polygon class="cls-18" points="723.99 291.88 713.86 286.03 713.86 287.41 723.99 293.26 723.99 291.88"/><polygon class="cls-18" points="734.63 298.01 725.19 292.56 725.19 293.95 734.63 299.39 734.63 298.01"/><polygon class="cls-18" points="735.82 298.7 735.82 300.08 743.15 304.31 743.15 302.92 735.82 298.7"/><polygon class="cls-18" points="709.16 285.84 709.16 287.23 716.79 291.63 716.79 290.25 709.16 285.84"/><polygon class="cls-18" points="740.16 303.73 717.99 290.94 717.99 292.32 740.16 305.11 740.16 303.73"/><polygon class="cls-18" points="727.47 303.99 712.98 295.63 712.98 297.01 727.47 305.37 727.47 303.99"/><polygon class="cls-18" points="740.16 311.31 728.66 304.67 728.66 306.06 740.16 312.69 740.16 311.31"/><polygon class="cls-18" points="738.89 318.15 724.59 309.91 724.59 311.29 738.89 319.54 738.89 318.15"/><polygon class="cls-18" points="731.1 316.19 731.1 317.57 738.89 322.06 738.89 320.68 731.1 316.19"/><polygon class="cls-18" points="710.09 304.07 707.28 302.45 707.28 303.83 710.09 305.45 710.09 304.07"/><polygon class="cls-18" points="715.34 307.1 715.34 308.48 729.91 316.89 729.91 315.5 715.34 307.1"/><polygon class="cls-18" points="714.15 306.41 711.28 304.76 711.28 306.14 714.15 307.8 714.15 306.41"/><polygon class="cls-18" points="727.21 316.48 711.28 307.28 711.28 308.67 727.21 317.86 727.21 316.48"/><polygon class="cls-17" points="699.29 317.86 699.29 319.24 705.1 322.59 705.1 321.21 699.29 317.86"/><polygon class="cls-17" points="699.29 320.38 699.29 321.77 705.1 325.12 705.1 323.74 699.29 320.38"/><polygon class="cls-17" points="699.29 322.91 699.29 324.3 705.1 327.65 705.1 326.26 699.29 322.91"/><polygon class="cls-17" points="743.15 352.12 743.15 350.74 707.28 330.05 707.28 331.43 743.15 352.12"/><polygon class="cls-17" points="699.29 325.44 699.29 326.82 705.1 330.17 705.1 328.79 699.29 325.44"/><polygon class="cls-17" points="699.29 327.97 699.29 329.35 705.1 332.7 705.1 331.32 699.29 327.97"/><polygon class="cls-17" points="743.15 354.64 743.15 353.26 707.28 332.57 707.28 333.96 743.15 354.64"/><polygon class="cls-17" points="699.29 335.55 699.29 336.93 705.1 340.28 705.1 338.9 699.29 335.55"/><polygon class="cls-17" points="699.29 338.07 699.29 339.46 705.1 342.81 705.1 341.43 699.29 338.07"/><polygon class="cls-17" points="699.29 348.18 699.29 349.56 705.1 352.92 705.1 351.53 699.29 348.18"/><polygon class="cls-17" points="699.29 350.71 699.29 352.09 705.1 355.44 705.1 354.06 699.29 350.71"/><polygon class="cls-17" points="729.91 368.37 707.28 355.32 707.28 356.7 729.91 369.75 729.91 368.37"/><polygon class="cls-17" points="731.1 369.06 731.1 370.44 743.15 377.39 743.15 376 731.1 369.06"/><polygon class="cls-17" points="718.65 359.35 707.28 352.79 707.28 354.17 718.65 360.73 718.65 359.35"/><polygon class="cls-17" points="719.84 360.04 719.84 361.42 743.15 374.86 743.15 373.48 719.84 360.04"/><polygon class="cls-17" points="740.08 364.13 740.08 365.51 743.15 367.28 743.15 365.9 740.08 364.13"/><polygon class="cls-17" points="723.4 351.98 707.28 342.68 707.28 344.07 723.4 353.36 723.4 351.98"/><polygon class="cls-17" points="716.79 327.95 707.28 322.47 707.28 323.85 716.79 329.34 716.79 327.95"/><polygon class="cls-17" points="732.39 336.95 717.99 328.64 717.99 330.02 732.39 338.33 732.39 336.95"/><polygon class="cls-17" points="723.99 334.63 713.86 328.79 713.86 330.17 723.99 336.02 723.99 334.63"/><polygon class="cls-17" points="734.63 340.77 725.19 335.32 725.19 336.7 734.63 342.15 734.63 340.77"/><polygon class="cls-17" points="735.82 341.46 735.82 342.84 743.15 347.06 743.15 345.68 735.82 341.46"/><polygon class="cls-17" points="709.16 328.6 709.16 329.99 716.79 334.39 716.79 333.01 709.16 328.6"/><polygon class="cls-17" points="740.16 346.48 717.99 333.69 717.99 335.08 740.16 347.87 740.16 346.48"/><polygon class="cls-17" points="727.47 346.74 712.98 338.39 712.98 339.77 727.47 348.13 727.47 346.74"/><polygon class="cls-17" points="740.16 354.06 728.66 347.43 728.66 348.81 740.16 355.45 740.16 354.06"/><polygon class="cls-17" points="738.89 360.91 724.59 352.67 724.59 354.05 738.89 362.3 738.89 360.91"/><polygon class="cls-17" points="731.1 358.95 731.1 360.33 738.89 364.82 738.89 363.44 731.1 358.95"/><polygon class="cls-17" points="710.09 346.83 707.28 345.21 707.28 346.59 710.09 348.21 710.09 346.83"/><polygon class="cls-17" points="715.34 349.86 715.34 351.24 729.91 359.64 729.91 358.26 715.34 349.86"/><polygon class="cls-17" points="714.15 349.17 711.28 347.52 711.28 348.9 714.15 350.55 714.15 349.17"/><polygon class="cls-17" points="727.21 359.23 711.28 350.04 711.28 351.43 727.21 360.62 727.21 359.23"/><polygon class="cls-16" points="699.29 360.62 699.29 362 705.1 365.35 705.1 363.97 699.29 360.62"/><polygon class="cls-16" points="699.29 363.14 699.29 364.53 705.1 367.88 705.1 366.5 699.29 363.14"/><polygon class="cls-16" points="699.29 365.67 699.29 367.05 705.1 370.4 705.1 369.02 699.29 365.67"/><polygon class="cls-16" points="743.15 394.88 743.15 393.49 707.28 372.81 707.28 374.19 743.15 394.88"/><polygon class="cls-16" points="699.29 368.2 699.29 369.58 705.1 372.93 705.1 371.55 699.29 368.2"/><polygon class="cls-16" points="699.29 370.72 699.29 372.11 705.1 375.46 705.1 374.08 699.29 370.72"/><polygon class="cls-16" points="743.15 397.4 743.15 396.02 707.28 375.33 707.28 376.72 743.15 397.4"/><polygon class="cls-16" points="699.29 378.31 699.29 379.69 705.1 383.04 705.1 381.66 699.29 378.31"/><polygon class="cls-16" points="699.29 380.83 699.29 382.22 705.1 385.57 705.1 384.18 699.29 380.83"/><polygon class="cls-16" points="699.29 390.94 699.29 392.32 705.1 395.68 705.1 394.29 699.29 390.94"/><polygon class="cls-16" points="699.29 393.47 699.29 394.85 705.1 398.2 705.1 396.82 699.29 393.47"/><polygon class="cls-16" points="729.91 411.13 707.28 398.08 707.28 399.46 729.91 412.51 729.91 411.13"/><polygon class="cls-16" points="731.1 411.81 731.1 413.2 743.15 420.15 743.15 418.76 731.1 411.81"/><polygon class="cls-16" points="718.65 402.11 707.28 395.55 707.28 396.93 718.65 403.49 718.65 402.11"/><polygon class="cls-16" points="719.84 402.79 719.84 404.18 743.15 417.62 743.15 416.24 719.84 402.79"/><polygon class="cls-16" points="740.08 406.89 740.08 408.27 743.15 410.04 743.15 408.65 740.08 406.89"/><polygon class="cls-16" points="723.4 394.74 707.28 385.44 707.28 386.82 723.4 396.12 723.4 394.74"/><polygon class="cls-16" points="716.79 370.71 707.28 365.23 707.28 366.61 716.79 372.1 716.79 370.71"/><polygon class="cls-16" points="732.39 379.7 717.99 371.4 717.99 372.78 732.39 381.09 732.39 379.7"/><polygon class="cls-16" points="723.99 377.39 713.86 371.54 713.86 372.93 723.99 378.77 723.99 377.39"/><polygon class="cls-16" points="734.63 383.53 725.19 378.08 725.19 379.46 734.63 384.91 734.63 383.53"/><polygon class="cls-16" points="735.82 384.21 735.82 385.6 743.15 389.82 743.15 388.44 735.82 384.21"/><polygon class="cls-16" points="709.16 371.36 709.16 372.74 716.79 377.15 716.79 375.77 709.16 371.36"/><polygon class="cls-16" points="740.16 389.24 717.99 376.45 717.99 377.84 740.16 390.63 740.16 389.24"/><polygon class="cls-16" points="727.47 389.5 712.98 381.14 712.98 382.53 727.47 390.88 727.47 389.5"/><polygon class="cls-16" points="740.16 396.82 728.66 390.19 728.66 391.57 740.16 398.21 740.16 396.82"/><polygon class="cls-16" points="738.89 403.67 724.59 395.42 724.59 396.81 738.89 405.06 738.89 403.67"/><polygon class="cls-16" points="731.1 401.71 731.1 403.09 738.89 407.58 738.89 406.2 731.1 401.71"/><polygon class="cls-16" points="710.09 389.59 707.28 387.97 707.28 389.35 710.09 390.97 710.09 389.59"/><polygon class="cls-16" points="715.34 392.62 715.34 394 729.91 402.4 729.91 401.02 715.34 392.62"/><polygon class="cls-16" points="714.15 391.93 711.28 390.27 711.28 391.66 714.15 393.31 714.15 391.93"/><polygon class="cls-16" points="727.21 401.99 711.28 392.8 711.28 394.18 727.21 403.38 727.21 401.99"/><polygon class="cls-17" points="699.29 403.38 699.29 404.76 705.1 408.11 705.1 406.73 699.29 403.38"/><polygon class="cls-17" points="699.29 405.9 699.29 407.29 705.1 410.64 705.1 409.25 699.29 405.9"/><polygon class="cls-17" points="699.29 408.43 699.29 409.81 705.1 413.16 705.1 411.78 699.29 408.43"/><polygon class="cls-17" points="743.15 437.63 743.15 436.25 707.28 415.56 707.28 416.95 743.15 437.63"/><polygon class="cls-17" points="699.29 410.96 699.29 412.34 705.1 415.69 705.1 414.31 699.29 410.96"/><polygon class="cls-17" points="699.29 413.48 699.29 414.87 705.1 418.22 705.1 416.83 699.29 413.48"/><polygon class="cls-17" points="743.15 440.16 743.15 438.78 707.28 418.09 707.28 419.48 743.15 440.16"/><polygon class="cls-17" points="699.29 421.06 699.29 422.45 705.1 425.8 705.1 424.42 699.29 421.06"/><polygon class="cls-17" points="699.29 423.59 699.29 424.97 705.1 428.33 705.1 426.94 699.29 423.59"/><polygon class="cls-17" points="740.08 449.64 740.08 451.03 743.15 452.8 743.15 451.41 740.08 449.64"/><polygon class="cls-17" points="723.4 437.5 707.28 428.2 707.28 429.58 723.4 438.88 723.4 437.5"/><polygon class="cls-17" points="716.79 413.47 707.28 407.98 707.28 409.37 716.79 414.85 716.79 413.47"/><polygon class="cls-17" points="732.39 422.46 717.99 414.16 717.99 415.54 732.39 423.85 732.39 422.46"/><polygon class="cls-17" points="723.99 420.15 713.86 414.3 713.86 415.69 723.99 421.53 723.99 420.15"/><polygon class="cls-17" points="734.63 426.29 725.19 420.84 725.19 422.22 734.63 427.67 734.63 426.29"/><polygon class="cls-17" points="735.82 426.97 735.82 428.36 743.15 432.58 743.15 431.2 735.82 426.97"/><polygon class="cls-17" points="709.16 414.12 709.16 415.5 716.79 419.91 716.79 418.52 709.16 414.12"/><polygon class="cls-17" points="740.16 432 717.99 419.21 717.99 420.6 740.16 433.38 740.16 432"/><polygon class="cls-17" points="727.47 432.26 712.98 423.9 712.98 425.29 727.47 433.64 727.47 432.26"/><polygon class="cls-17" points="740.16 439.58 728.66 432.95 728.66 434.33 740.16 440.96 740.16 439.58"/><polygon class="cls-17" points="738.89 446.43 724.59 438.18 724.59 439.57 738.89 447.81 738.89 446.43"/><polygon class="cls-17" points="731.1 444.46 731.1 445.85 738.89 450.34 738.89 448.96 731.1 444.46"/><polygon class="cls-17" points="710.09 432.35 707.28 430.73 707.28 432.11 710.09 433.73 710.09 432.35"/><polygon class="cls-17" points="715.34 435.38 715.34 436.76 729.91 445.16 729.91 443.78 715.34 435.38"/><polygon class="cls-17" points="714.15 434.69 711.28 433.03 711.28 434.42 714.15 436.07 714.15 434.69"/><polygon class="cls-17" points="727.21 444.75 711.28 435.56 711.28 436.94 727.21 446.13 727.21 444.75"/><path class="cls-18" d="M511.6,167l-4.83-2.78a.35.35,0,0,0-.53.31v5.77a.78.78,0,0,0,.4.68l4.82,2.79a.36.36,0,0,0,.54-.32v-5.74A.83.83,0,0,0,511.6,167Z"/><path class="cls-18" d="M511.6,175.59l-4.83-2.79a.36.36,0,0,0-.53.31v5.77a.78.78,0,0,0,.4.68l4.82,2.79A.36.36,0,0,0,512,182v-5.75A.8.8,0,0,0,511.6,175.59Z"/><path class="cls-18" d="M511.6,184.22l-4.83-2.78a.35.35,0,0,0-.53.3v5.77a.78.78,0,0,0,.4.69l4.82,2.78a.36.36,0,0,0,.54-.31v-5.75A.8.8,0,0,0,511.6,184.22Z"/><path class="cls-18" d="M511.6,192.85l-4.83-2.78a.36.36,0,0,0-.53.31v5.77a.78.78,0,0,0,.4.68l4.82,2.79a.36.36,0,0,0,.54-.32v-5.74A.83.83,0,0,0,511.6,192.85Z"/><path class="cls-18" d="M511.6,201.49l-4.83-2.79a.36.36,0,0,0-.53.31v5.77a.78.78,0,0,0,.4.68l4.82,2.79a.36.36,0,0,0,.54-.31v-5.75A.8.8,0,0,0,511.6,201.49Z"/><path class="cls-18" d="M511.6,210.12l-4.83-2.78a.35.35,0,0,0-.53.3v5.78a.78.78,0,0,0,.4.68l4.82,2.78a.36.36,0,0,0,.54-.31v-5.75A.81.81,0,0,0,511.6,210.12Z"/><path class="cls-18" d="M511.6,218.75,506.77,216a.36.36,0,0,0-.53.31v5.77a.78.78,0,0,0,.4.68l4.82,2.79a.36.36,0,0,0,.54-.32v-5.74A.83.83,0,0,0,511.6,218.75Z"/><path class="cls-18" d="M511.6,227.39l-4.83-2.78a.35.35,0,0,0-.53.3v5.77a.78.78,0,0,0,.4.68l4.82,2.79a.36.36,0,0,0,.54-.31v-5.75A.8.8,0,0,0,511.6,227.39Z"/><path class="cls-18" d="M511.6,236l-4.83-2.78a.35.35,0,0,0-.53.3v5.78a.78.78,0,0,0,.4.68l4.82,2.78a.36.36,0,0,0,.54-.31v-5.75A.81.81,0,0,0,511.6,236Z"/><path class="cls-18" d="M511.6,244.65l-4.83-2.78a.36.36,0,0,0-.53.31V248a.78.78,0,0,0,.4.68l4.82,2.79a.36.36,0,0,0,.54-.31v-5.75A.83.83,0,0,0,511.6,244.65Z"/><path class="cls-18" d="M511.6,253.29l-4.83-2.78a.35.35,0,0,0-.53.3v5.77a.78.78,0,0,0,.4.68l4.82,2.79a.36.36,0,0,0,.54-.31V254A.8.8,0,0,0,511.6,253.29Z"/><path class="cls-18" d="M511.6,261.92l-4.83-2.78a.35.35,0,0,0-.53.31v5.77a.78.78,0,0,0,.4.68l4.82,2.79a.36.36,0,0,0,.54-.32v-5.74A.81.81,0,0,0,511.6,261.92Z"/><path class="cls-17" d="M650.09,249.54a2.47,2.47,0,0,0-.43,1.7v3.81c0,.7-.23,1.08-.68,1.13a3.51,3.51,0,0,1-1.93-.65v2.59A6.65,6.65,0,0,1,649,259.7a3.21,3.21,0,0,1,.67,2v3.67a5.16,5.16,0,0,0,.42,2.19,5.34,5.34,0,0,0,1.32,1.78,13.93,13.93,0,0,0,2.51,1.77v-2.45a4,4,0,0,1-1.4-1.25,2.76,2.76,0,0,1-.37-1.46v-3.65c0-1.4-.76-2.67-2.32-3.84v-.14c1.54.63,2.31.2,2.34-1.29v-3.51c0-.57.13-.91.38-1s.71,0,1.39.37v-2.45a10,10,0,0,0-2.5-1.12A1.35,1.35,0,0,0,650.09,249.54Z"/><path class="cls-17" d="M664.59,265.2a3,3,0,0,1-.65-1.91v-3.8a5,5,0,0,0-1-3.09,10.7,10.7,0,0,0-3.31-2.64v2.44a4.18,4.18,0,0,1,1.4,1.24,2.82,2.82,0,0,1,.36,1.46v3.52a5.06,5.06,0,0,0,2.35,4v.14a2.25,2.25,0,0,0-1.75-.17c-.41.19-.61.64-.61,1.34v3.62c0,.57-.13.92-.38,1.05s-.72,0-1.4-.38v2.44c1.56.91,2.66,1.29,3.31,1.17s1-.78,1-2V270c0-.77.23-1.18.66-1.25a3.44,3.44,0,0,1,1.93.64v-2.58A6.47,6.47,0,0,1,664.59,265.2Z"/><path class="cls-17" d="M673.91,262.93a2.48,2.48,0,0,0-.42,1.7v3.81c0,.7-.22,1.08-.67,1.13a3.48,3.48,0,0,1-1.93-.65v2.59a6.71,6.71,0,0,1,1.93,1.58,3.25,3.25,0,0,1,.67,2v3.67a5.16,5.16,0,0,0,.41,2.19,5.63,5.63,0,0,0,1.32,1.78,14.3,14.3,0,0,0,2.51,1.77v-2.45a4.09,4.09,0,0,1-1.4-1.25,2.66,2.66,0,0,1-.36-1.46v-3.65a4.86,4.86,0,0,0-2.33-3.84v-.14c1.54.63,2.31.2,2.34-1.29v-3.51c0-.57.13-.91.38-1s.71,0,1.4.37v-2.45a10.17,10.17,0,0,0-2.49-1.12A1.36,1.36,0,0,0,673.91,262.93Z"/><path class="cls-17" d="M688.42,278.59a3,3,0,0,1-.66-1.91v-3.8a5,5,0,0,0-.95-3.09,11,11,0,0,0-3.31-2.64v2.44a4.18,4.18,0,0,1,1.4,1.24,2.73,2.73,0,0,1,.37,1.46v3.52a5,5,0,0,0,2.34,4v.14a2.25,2.25,0,0,0-1.75-.17c-.4.19-.61.64-.61,1.34v3.62c0,.57-.12.92-.37,1s-.72,0-1.4-.38v2.44c1.57.91,2.67,1.29,3.31,1.17s1-.78,1-2v-3.67c0-.77.23-1.18.67-1.25a3.39,3.39,0,0,1,1.92.64v-2.58A6.41,6.41,0,0,1,688.42,278.59Z"/><path class="cls-17" d="M668.84,387.81l-2.31-1.34a7.12,7.12,0,0,1-1.61,3.5l1.63,2.82-2.83,1.61-1.62-2.82a7.22,7.22,0,0,1-3.85-.39v2.66l-4-2.3v-2.66a21.51,21.51,0,0,1-3.84-4.05l-1.64.94L646,380.91l1.64-.93a21.52,21.52,0,0,1-1.58-5.34l-2.31-1.33v-4.59l2.31,1.34a7.12,7.12,0,0,1,1.61-3.5L646,363.74l2.83-1.61,1.63,2.82a7.24,7.24,0,0,1,3.85.39v-2.66l4,2.3v2.66a21.51,21.51,0,0,1,3.84,4.05l1.64-.94,2.81,4.87-1.64.94a21,21,0,0,1,1.58,5.33l2.31,1.34Zm-12.57-3.54c2.88,1.67,5.23.33,5.24-3a11.48,11.48,0,0,0-5.21-9c-2.88-1.67-5.23-.33-5.24,3a11.48,11.48,0,0,0,5.21,9"/><path class="cls-17" d="M685.5,410l-1.88-1.09a5.85,5.85,0,0,1-1.32,2.86l1.34,2.3-2.32,1.32L680,413.1a5.94,5.94,0,0,1-3.14-.31V415l-3.26-1.88V410.9a17.33,17.33,0,0,1-3.14-3.3l-1.34.76-2.29-4,1.34-.76a17.63,17.63,0,0,1-1.3-4.36L665,398.17v-3.75l1.88,1.09a5.9,5.9,0,0,1,1.32-2.86l-1.33-2.3,2.31-1.32,1.33,2.31a5.94,5.94,0,0,1,3.14.31v-2.16l3.26,1.88v2.17a17.1,17.1,0,0,1,3.14,3.31l1.34-.77,2.3,4-1.34.76a18,18,0,0,1,1.29,4.36l1.88,1.09Zm-10.27-2.89c2.36,1.36,4.28.27,4.29-2.45a9.41,9.41,0,0,0-4.26-7.37C672.9,396,671,397,671,399.75a9.41,9.41,0,0,0,4.26,7.38"/><polygon class="cls-17" points="672.85 290.39 647.05 275.45 647.05 276.76 672.85 291.7 672.85 290.39"/><polygon class="cls-17" points="686.63 300.91 647.05 278.02 647.05 279.34 686.63 302.23 686.63 300.91"/><polygon class="cls-18" points="686.63 298.34 674.57 291.36 674.57 292.67 686.63 299.65 686.63 298.34"/><polygon class="cls-17" points="672.85 295.41 647.05 280.48 647.05 281.79 672.85 296.73 672.85 295.41"/><polygon class="cls-17" points="686.63 305.94 647.05 283.05 647.05 284.36 686.63 307.25 686.63 305.94"/><polygon class="cls-18" points="686.63 303.37 674.57 296.38 674.57 297.7 686.63 304.68 686.63 303.37"/><polygon class="cls-17" points="672.85 302.68 647.05 287.74 647.05 289.05 672.85 303.99 672.85 302.68"/><polygon class="cls-17" points="686.63 313.2 647.05 290.31 647.05 291.63 686.63 314.52 686.63 313.2"/><polygon class="cls-17" points="686.63 310.63 674.57 303.65 674.57 304.96 686.63 311.94 686.63 310.63"/><polygon class="cls-17" points="672.85 307.7 647.05 292.77 647.05 294.08 672.85 309.02 672.85 307.7"/><polygon class="cls-17" points="686.63 318.23 647.05 295.34 647.05 296.65 686.63 319.54 686.63 318.23"/><polygon class="cls-17" points="686.63 315.66 674.57 308.68 674.57 309.99 686.63 316.97 686.63 315.66"/><polygon class="cls-17" points="672.85 314.97 647.05 300.03 647.05 301.34 672.85 316.28 672.85 314.97"/><polygon class="cls-17" points="686.63 325.5 647.05 302.61 647.05 303.92 686.63 326.81 686.63 325.5"/><polygon class="cls-17" points="686.63 322.92 674.57 315.94 674.57 317.25 686.63 324.23 686.63 322.92"/><polygon class="cls-18" points="672.85 320 647.05 305.06 647.05 306.37 672.85 321.31 672.85 320"/><polygon class="cls-17" points="686.63 330.52 647.05 307.63 647.05 308.95 686.63 331.83 686.63 330.52"/><polygon class="cls-17" points="686.63 327.95 674.57 320.97 674.57 322.28 686.63 329.26 686.63 327.95"/><polygon class="cls-17" points="672.85 327.26 647.05 312.32 647.05 313.63 672.85 328.57 672.85 327.26"/><polygon class="cls-17" points="686.63 337.79 647.05 314.9 647.05 316.21 686.63 339.1 686.63 337.79"/><polygon class="cls-18" points="686.63 335.21 674.57 328.23 674.57 329.54 686.63 336.52 686.63 335.21"/><polygon class="cls-17" points="672.85 332.29 647.05 317.35 647.05 318.66 672.85 333.6 672.85 332.29"/><polygon class="cls-17" points="686.63 342.81 647.05 319.93 647.05 321.24 686.63 344.13 686.63 342.81"/><polygon class="cls-18" points="686.63 340.24 674.57 333.26 674.57 334.57 686.63 341.55 686.63 340.24"/><polygon class="cls-17" points="672.85 339.55 647.05 324.61 647.05 325.92 672.85 340.86 672.85 339.55"/><polygon class="cls-17" points="686.63 350.08 647.05 327.19 647.05 328.5 686.63 351.39 686.63 350.08"/><polygon class="cls-18" points="686.63 347.5 674.57 340.52 674.57 341.83 686.63 348.81 686.63 347.5"/><polygon class="cls-17" points="672.85 344.58 647.05 329.64 647.05 330.95 672.85 345.89 672.85 344.58"/><polygon class="cls-18" points="686.63 355.11 647.05 332.22 647.05 333.53 686.63 356.42 686.63 355.11"/><polygon class="cls-17" points="686.63 352.53 674.57 345.55 674.57 346.86 686.63 353.84 686.63 352.53"/><g class="cls-5"><polygon class="cls-6" points="378.76 238.61 378.76 241.37 390.32 248.04 390.32 245.28 378.76 238.61"/><polygon class="cls-6" points="378.76 243.64 378.76 246.4 390.32 253.06 390.32 250.31 378.76 243.64"/><polygon class="cls-6" points="378.76 248.67 378.76 251.42 390.32 258.09 390.32 255.34 378.76 248.67"/><polygon class="cls-6" points="466.03 306.79 466.03 304.04 394.66 262.87 394.66 265.63 466.03 306.79"/><polygon class="cls-6" points="378.76 253.7 378.76 256.45 390.32 263.12 390.32 260.37 378.76 253.7"/><polygon class="cls-6" points="378.76 258.73 378.76 261.48 390.32 268.15 390.32 265.4 378.76 258.73"/><polygon class="cls-6" points="466.03 311.82 466.03 309.07 394.66 267.9 394.66 270.65 466.03 311.82"/><polygon class="cls-6" points="378.76 273.81 378.76 276.57 390.32 283.24 390.32 280.49 378.76 273.81"/><polygon class="cls-6" points="378.76 278.84 378.76 281.6 390.32 288.27 390.32 285.51 378.76 278.84"/><polygon class="cls-6" points="378.76 298.96 378.76 301.71 390.32 308.38 390.32 305.63 378.76 298.96"/><polygon class="cls-6" points="378.76 303.99 378.76 306.74 390.32 313.41 390.32 310.66 378.76 303.99"/><polygon class="cls-6" points="439.69 339.13 394.66 313.16 394.66 315.91 439.69 341.89 439.69 339.13"/><polygon class="cls-6" points="442.06 340.5 442.06 343.25 466.03 357.08 466.03 354.33 442.06 340.5"/><polygon class="cls-6" points="417.28 321.18 394.66 308.13 394.66 310.88 417.28 323.93 417.28 321.18"/><polygon class="cls-6" points="419.66 322.55 419.66 325.3 466.03 352.05 466.03 349.3 419.66 322.55"/><polygon class="cls-6" points="459.93 330.69 459.93 333.45 466.03 336.97 466.03 334.21 459.93 330.69"/><polygon class="cls-6" points="426.73 306.51 394.66 288.02 394.66 290.77 426.73 309.27 426.73 306.51"/><polygon class="cls-6" points="413.59 258.7 394.66 247.79 394.66 250.54 413.59 261.46 413.59 258.7"/><polygon class="cls-6" points="444.62 276.6 415.96 260.07 415.96 262.83 444.62 279.35 444.62 276.6"/><polygon class="cls-6" points="427.92 272 407.74 260.36 407.74 263.11 427.92 274.75 427.92 272"/><polygon class="cls-6" points="449.08 284.21 430.29 273.37 430.29 276.12 449.08 286.96 449.08 284.21"/><polygon class="cls-6" points="451.46 285.57 451.46 288.33 466.03 296.74 466.03 293.98 451.46 285.57"/><polygon class="cls-6" points="398.39 259.99 398.39 262.75 413.59 271.51 413.59 268.76 398.39 259.99"/><polygon class="cls-6" points="460.09 295.58 415.96 270.13 415.96 272.88 460.09 298.33 460.09 295.58"/><polygon class="cls-6" points="434.82 296.1 405.99 279.46 405.99 282.22 434.82 298.85 434.82 296.1"/><polygon class="cls-6" points="460.09 310.67 437.2 297.46 437.2 300.22 460.09 313.42 460.09 310.67"/><polygon class="cls-6" points="457.56 324.3 429.1 307.88 429.1 310.64 457.56 327.05 457.56 324.3"/><polygon class="cls-6" points="442.06 320.39 442.06 323.14 457.56 332.08 457.56 329.32 442.06 320.39"/><polygon class="cls-6" points="400.24 296.26 394.66 293.05 394.66 295.8 400.24 299.02 400.24 296.26"/><polygon class="cls-6" points="410.7 302.3 410.7 305.05 439.69 321.77 439.69 319.02 410.7 302.3"/><polygon class="cls-6" points="408.32 300.93 402.62 297.63 402.62 300.39 408.32 303.68 408.32 300.93"/><polygon class="cls-6" points="434.32 320.95 402.62 302.66 402.62 305.42 434.32 323.7 434.32 320.95"/></g><rect class="cls-20" x="186.36" y="262.63" width="237.75" height="20.84" rx="9.25"/><rect class="cls-4" x="187.04" y="296.95" width="235.13" height="167.63" rx="13.44"/><rect class="cls-21" x="353.98" y="328.37" width="7.35" height="40.86"/><rect class="cls-22" x="366.89" y="317.48" width="7.35" height="51.76"/><rect class="cls-23" x="380.43" y="323.18" width="7.35" height="46.06"/><rect class="cls-24" x="394.35" y="336.41" width="7.35" height="32.82"/><rect class="cls-25" x="353.98" y="343.32" width="7.35" height="25.92"/><rect class="cls-25" x="366.89" y="336.41" width="7.35" height="32.82"/><rect class="cls-25" x="380.43" y="340.02" width="7.35" height="29.21"/><rect class="cls-25" x="394.35" y="348.8" width="7.35" height="20.43"/><rect class="cls-6" x="356" y="383.22" width="43.68" height="11.65" rx="2.9"/><rect class="cls-6" x="356" y="405.03" width="43.68" height="11.65" rx="2.9"/><rect class="cls-6" x="356" y="426.84" width="43.68" height="11.65" rx="2.9"/><path class="cls-6" d="M334.88,357.24A64.9,64.9,0,0,0,212.66,401c.49,1.38,1,2.73,1.6,4.05a64.9,64.9,0,0,0,120.62-47.76Zm-44.72,67.67a48.62,48.62,0,0,1-61-26.4c-.43-1-.83-2-1.19-3a48.66,48.66,0,1,1,62.2,29.43Z"/><path class="cls-25" d="M227.32,364.59l-15.5-4.84a65,65,0,0,1,60-45.54l.48,16.24a48.73,48.73,0,0,0-45,34.14Z"/><path class="cls-26" d="M229.15,398.51,214.26,405c-.57-1.32-1.11-2.67-1.6-4.05a64.62,64.62,0,0,1-.84-41.2l15.5,4.84a48.42,48.42,0,0,0,.64,30.89C228.32,396.51,228.72,397.52,229.15,398.51Z"/><path class="cls-6" d="M224.32,421.15A64.68,64.68,0,0,1,214.26,405l14.89-6.49a48.41,48.41,0,0,0,7.55,12.12Z"/><path class="cls-27" d="M346.87,469.29l-20.45,46.05-.55,1.24a5.57,5.57,0,0,1-2.27-.24l.45-1,20.25-45.61L314.8,438l-4.43-1,.46-2.13,5.09,1.11Z"/><path class="cls-28" d="M315.38,524.24h18.93a8.65,8.65,0,0,0-.21-1.15c-.57-2.24-2.64-7-10-7s-8.56,4.76-8.71,7A7,7,0,0,0,315.38,524.24Z"/><path class="cls-29" d="M296.12,427.8l1.27,3.62,7.75,21.95a13.56,13.56,0,0,0-9-25.57Z"/><path class="cls-30" d="M326.9,515.34v1a5,5,0,0,1-1,.23,5.57,5.57,0,0,1-2.27-.24l-.13-.05v-1h3.43Z"/><path class="cls-31" d="M315.38,524.24h18.93a8.65,8.65,0,0,0-.21-1.15H315.38A7,7,0,0,0,315.38,524.24Z"/><path class="cls-30" d="M296.12,427.8l1.27,3.62c4.52,3.56,11.54,9.73,14.95,16a13.56,13.56,0,0,0-16.22-19.63Z"/><path class="cls-32" d="M232.27,466.66s3.3-4.17,3.82-4.79,2.57-1.21,5-1.66,5.77.11,6,.45a2.24,2.24,0,0,1,.8,1.69,5,5,0,0,1-.38,2.24,2.91,2.91,0,0,1,.05,2.62,2.58,2.58,0,0,1-.35,2.62A2.15,2.15,0,0,1,247,472a15.69,15.69,0,0,0-2.76,1.05c-.71.46-5,1.37-9.29,1.55C235,474.61,231,473.28,232.27,466.66Z"/><polygon class="cls-33" points="137.15 595.31 118.37 673.63 114.23 673.63 130.16 595.14 137.15 595.31"/><polygon class="cls-33" points="157.65 595.31 138.86 673.63 134.72 673.63 150.65 595.14 157.65 595.31"/><polygon class="cls-33" points="190.79 595.31 209.57 673.63 213.71 673.63 197.78 595.14 190.79 595.31"/><path class="cls-34" d="M208.56,596.07H127.63s-5.64-.13-9.41-16.83c-4.25-18.79-12.83-81.53-12.83-81.53s2.28-5.84,37.86-5.1L207,575.28S209.13,588.31,208.56,596.07Z"/><path class="cls-32" d="M211.06,517.76s4.12-1.79,7.21-1.07,10.34,3.43,13.92,3.88,7,2.52,6.91,3.71-27.62,2.16-27.75-.55S211.06,517.76,211.06,517.76Z"/><path class="cls-32" d="M232.27,466.66s-5.38,3.54-5.5,4.62a30,30,0,0,0,1,7.29l8.12-4Z"/><path class="cls-8" d="M232.16,660.29s6.93,4.12,10.08,5.66,15.35,2,16.56,3.15.75,4.8-1.27,5.17-16.89,1.67-21.84.5-14.22.76-16.27.05-.7-11.76.1-14.24S232.16,660.29,232.16,660.29Z"/><path class="cls-35" d="M232.05,655.61l.11,4.68s-9.29,1.71-12.64.29l.23-5.14Z"/><path class="cls-8" d="M248.4,660.29s6.93,4.12,10.07,5.66,15.36,2,16.57,3.15.75,4.8-1.28,5.17-16.88,1.67-21.83.5-14.22.76-16.27.05-.7-11.76.1-14.24S248.4,660.29,248.4,660.29Z"/><path class="cls-35" d="M248.29,655.61l.11,4.68s-9.29,1.71-12.64.29l.23-5.14Z"/><polygon class="cls-36" points="193.72 546.64 183.17 544.79 190.21 527.08 193.72 546.64"/><path class="cls-37" d="M162.11,550.27s53,11.25,61.3,14.77,13.24,5,13.86,6.72,13.55,85.85,13.55,85.85H233.23s-13.65-63.51-15.31-67.44-67.23-4.13-72-8.89-8.9-17.79-3.73-29.48S162.11,550.27,162.11,550.27Z"/><path class="cls-37" d="M189,544.35s60.81,17.11,65.79,24.93c5.06,8-20.28,88.33-20.28,88.33H217.1s16.75-75.3,14.68-78.61-93.71-.1-76.64-27.2S189,544.35,189,544.35Z"/><path class="cls-9" d="M182.64,459.85c2.29-1.19,9.92,1.42,12.18,4.93C200.06,472.94,210,483,210,483L232,464.46l4.43,11.06-26.21,22.09a5.69,5.69,0,0,1-7.63-.27c-6.88-6.68-21.06-20.74-22.15-24.25C179,468.43,178.27,462.12,182.64,459.85Z"/><path class="cls-38" d="M175.17,412.58s10.55,1.76,10.65,19.65-6.68,19.59-17,17c-6.19-1.58-12-10.35-9.72-25.76S175.17,412.58,175.17,412.58Z"/><path class="cls-39" d="M176.55,455.3s14.54,5.28,16.71,8.59.77,33.09-.47,43.75-4.65,33.61-3.83,36.71l-33.82,7.45S144.28,512.29,144,506s-8.27-35.68-4.45-38.06S160,456.23,160,456.23Z"/><polygon class="cls-40" points="155.14 551.8 153.49 545.7 189.04 538.77 188.96 544.35 155.14 551.8"/><polygon class="cls-41" points="172.83 541.61 181.26 539.86 181.26 546.53 172.83 548.49 172.83 541.61"/><path class="cls-9" d="M169.05,524.25c-.09,1.74-.21,3.51-.3,5.3l0,0c-1.2,19.63-3,40.17-3,40.17-2.47,2.06-33.8-5.21-33.8-5.21s3.86-5.24,7.57-19.75.82-28.4-3.06-52-.65-23.44-.65-23.44L160,456.22c1.59,6,8,27.91,9.52,40.44C170.07,501.24,169.73,512.19,169.05,524.25Z"/><path class="cls-9" d="M176.79,455.34a210.36,210.36,0,0,1,10,36.78c3,18.94,2.9,53.22,6.2,54.06s2.29.27,2.29.27-.62-20.71-.92-27.58c-.68-15.32,2.18-49.86.86-53.35S184.44,456.72,176.79,455.34Z"/><path class="cls-38" d="M176.21,452.48a8.87,8.87,0,0,0,.34,2.81s-1.86,7.26-16.55.93c0,0,2.9-10.81,0-19.88l16.55,10.27s-.2,1.64-.29,3.54C176.21,450.92,176.19,451.74,176.21,452.48Z"/><path class="cls-42" d="M160.6,453.35a39.24,39.24,0,0,0,11.6,3.33l-2.84,6L160,456.23Z"/><path class="cls-42" d="M172.2,456.68s4.07-1.35,4-3.33l.56,2-1.66,6.37Z"/><path class="cls-43" d="M184.56,422.93s2.95-6.33.82-11-7.73-2.71-10.28-2.16-7.38-5.1-15.93,1.79-6,14.14-2.2,22.76,4.25,9.28,4.25,9.28,0-8.75,1.06-10.3c1.21-1.82,5.65-2.78,5.65-2.78s-3.38-4.62-.07-6.34S178,425.67,184.56,422.93Z"/><path class="cls-38" d="M163.59,428.75c-.45-1.32-2.68-2.82-3.8-.34s1.8,6.82,3.38,6.82S164.62,431.79,163.59,428.75Z"/><path class="cls-44" d="M172.2,456.68l2.12,3.65s-1,1.12-4.13.63Z"/><path class="cls-44" d="M173.87,460.65s8.68,25.54,8.75,43.68a237.89,237.89,0,0,1-1.36,29l-1.91,3.57-2.8-3.26s2-52.66-5.75-72.56C170.8,461,173.55,459.73,173.87,460.65Z"/><path class="cls-9" d="M138.48,467.92c6.35-2.59,12.94,6.2,16.45,15s10.24,24.78,10.24,24.78l47,7.61.67,8.93H158s-20.88-37.39-22.32-42.05S133.92,469.78,138.48,467.92Z"/><rect class="cls-34" x="196.16" y="524.24" width="154.87" height="5.33"/><rect class="cls-45" x="286.91" y="430.87" width="3.73" height="82.67"/><path class="cls-46" d="M296.05,524.24H324v-1.69H296.05a4,4,0,0,1-3.11-1,2.78,2.78,0,0,1-.62-1.94V483.42h-1.69v36a4.42,4.42,0,0,0,1,3.19A5.59,5.59,0,0,0,296.05,524.24Z"/><path class="cls-45" d="M256.07,521.28h31.41a0,0,0,0,1,0,0v.24a2.72,2.72,0,0,1-2.72,2.72H256.07a0,0,0,0,1,0,0v-3A0,0,0,0,1,256.07,521.28Z" transform="translate(543.55 1045.53) rotate(180)"/><rect class="cls-47" x="334.93" y="529.58" width="4.4" height="144.94" transform="translate(674.25 1204.1) rotate(180)"/><rect class="cls-47" x="207.86" y="529.58" width="4.4" height="144.94" transform="translate(420.13 1204.1) rotate(180)"/><path class="cls-40" d="M169.05,524.25c-.09,1.74-.21,3.51-.3,5.3l0,0s-6.1.81-11.22-1.51-8.7-20-8.95-20.95c.52,1,8.72,17.14,10.74,17.14Z"/><path class="cls-48" d="M176.26,450.15c0,.77-.07,1.59,0,2.33-11.67.19-11.85-6.48-11.85-6.48C166.17,450.83,176.26,450.15,176.26,450.15Z"/><rect class="cls-49" x="237.21" y="459.21" width="17.74" height="1.5" transform="translate(-250.41 299.9) rotate(-43.99)"/><polygon class="cls-32" points="251.93 453.26 254.33 451.99 252.98 454.34 251.93 453.26"/><path class="cls-50" d="M246.46,460.75s-6.05,1.3-6,2.39a1.67,1.67,0,0,0,.64,1.45l-2.32,1.77a1.72,1.72,0,0,0,1.34,2.55s-1.09,1.87,1.2,2c0,0-.23,1.56.81,1.83S247,472,247,472s.93-.61.38-2.18a2.56,2.56,0,0,0,.33-2.61,2.84,2.84,0,0,0-.05-2.64s1.2-2.58-.58-3.92A5.11,5.11,0,0,0,246.46,460.75Z"/><path class="cls-32" d="M236.28,461.8s4,1.28,5.83,3a1.41,1.41,0,0,1,.56,1.47c-.2.59-1.22,1.08-3,.62a14,14,0,0,0-4.25-.14S233.8,465.73,236.28,461.8Z"/><path class="cls-51" d="M241.38,596.84s-3.72-23.2-3.92-24.14-4-4.32-22.05-10.24c0,0,20.09,3.91,25.36,7.34C244.83,572.44,241.38,596.84,241.38,596.84Z"/><path class="cls-52" d="M317,524.24c2-.82,5.18-10.19,6.73-15,.54-1.73.88-2.88.88-2.88H306.51c1.56,11.2,5.37,17.92,5.37,17.92Z"/><path class="cls-53" d="M318.49,500.74c0-.65,2.91-3.38,4.37-5.16s-.56-5.16-.56-5.16c-6.5,2.68-5.38,10.32-5.38,10.32S318.49,501.39,318.49,500.74Z"/><path class="cls-53" d="M314.8,501h.78s.56-13.19-4.26-15-4.81-5.38-4.81-5.38-1.46,4.93.89,7.5,5,5.61,4.6,8.07S314.8,501,314.8,501Z"/><path class="cls-26" d="M323.77,509.2c.54-1.73.88-2.88.88-2.88H306.51c1.56,11.2,5.37,17.92,5.37,17.92h1.19C312.85,513.76,319.75,510.31,323.77,509.2Z"/><polygon class="cls-25" points="324.65 500.74 306.37 500.74 305.33 506.32 325.39 506.32 324.65 500.74"/><g class="cls-54"><path class="cls-55" d="M558.05,774.87s-2.88,1.42-3.71,2-4.46,2.45-5,3.53,2.84-.24,4-.46,2.84.29,2.34,1.37-3.24,3.06-4.21,4.24,8.78,1.11,11.57-.47,4.2-3.21,4.4-5.26-1.54-3.6-1.23-4.46Z"/><path class="cls-55" d="M567.71,777l-13.13-1,1.84-10.81,19.5-8.77A44.62,44.62,0,0,1,567.71,777Z"/><path class="cls-55" d="M522.77,679.84s-1.16-2.56,5.86-3,10.07-.42,10.68-2.76-1.36-3.33-9.13-3.56A180.59,180.59,0,0,0,505.74,672c-1.07.15-1.95.43-2,1-.13,1.15.84,4.24,2.61,6.35C508.87,682.31,522.77,679.84,522.77,679.84Z"/><path class="cls-55" d="M550,676.79s-.55-.82,6.52-1,14.59-.19,15.55-2.5-4.53-4.13-12.24-4.66c-6.64-.45-19.94-.76-25.22-.87-1.11,0-2,.35-2.16.9a13.32,13.32,0,0,0-.38,5.3C532.55,677.22,550,676.79,550,676.79Z"/><path class="cls-55" d="M513.11,735.39s-2-28.32-2.52-31.77-5.79-24.9-5.79-24.9,11.87-3,21.09-.94l10.27,54.42Z"/><path class="cls-55" d="M529.76,733.6l2.78-27.84c-.51-8.29-1.18-32.08-1.18-32.08,13.57-.77,22.19,2.91,22.19,2.91-.77,3.7,0,26.14,0,26.14,2.78,10.86,1.39,28.3,1.68,31.5,0,.34,0,.52,0,.52Z"/><path class="cls-55" d="M504.92,775.38s-6.9-13.28-5-20.42c0,0,5-3.67,14.33-3.3Z"/><path class="cls-55" d="M552.26,787.86c0-5.2-6.91-9.4-15.37-9.39s-15.3,4.23-15.27,9.43,6.91,9.39,15.37,9.38S552.29,793.05,552.26,787.86Z"/><path class="cls-55" d="M562.62,773.44s-12.83,2.43-14.57,3a4.94,4.94,0,0,0-2.38,1.48c-8.67,3-19.73,2.65-19.73,2.65-16.16-2.2-21-5.2-21-5.2,1.67-6.87,5.21-33.94,6-40,.1-.74,1-1.4,2.32-1.71,19.89-4.55,34.63-2.36,41.47-.72,2.55.61,3.95,2,3.64,3.38C555.45,749.36,562.62,773.44,562.62,773.44Z"/><path class="cls-55" d="M542.49,797.71s12-1.14,12.09-6.15l-11.17-1.84s1.75-4.22-4.51-5.3c0,0-1.81-3.82-13.17-3.47,0,0-17.07,11.09,3.79,16.33A54.18,54.18,0,0,0,542.49,797.71Z"/><path class="cls-55" d="M563.05,773.44c-11.66,0-7-12.5-7-12.5l4-8.72c.54-1.19,2.89-1.84,5.31-1.67,9.4.65,10.58,4.93,10.58,4.93C575.79,766.91,563.05,773.44,563.05,773.44Z"/><path class="cls-55" d="M545.67,777.93c-8.67,3-19.73,2.65-19.73,2.65-2.53-.35-4.76-.71-6.76-1.08,9.78,0,22.72-1.77,27.64-2.5A4,4,0,0,0,545.67,777.93Z"/></g><g class="cls-56"><g class="cls-57"><path class="cls-55" d="M232.27,800.93s3.3,2.52,3.82,2.89a17,17,0,0,0,5,1,20.23,20.23,0,0,0,6-.27c.27-.2.69-.32.8-1a2,2,0,0,0-.38-1.35,1.17,1.17,0,0,0,.05-1.58s.65-.78-.35-1.58a.88.88,0,0,0-.2-1.31,24.4,24.4,0,0,1-2.76-.63,51,51,0,0,0-9.29-.94S231,796.94,232.27,800.93Z"/><polygon class="cls-55" points="137.15 723.42 118.37 676.23 114.23 676.23 130.16 723.52 137.15 723.42"/><polygon class="cls-55" points="157.65 723.42 138.86 676.23 134.72 676.23 150.65 723.52 157.65 723.42"/><polygon class="cls-55" points="190.79 723.42 209.57 676.23 213.71 676.23 197.78 723.52 190.79 723.42"/><path class="cls-55" d="M208.56,723H127.63s-5.64.08-9.41,10.14c-4.25,11.32-12.83,49.13-12.83,49.13s2.28,3.51,37.86,3.06L207,735.48S209.13,727.63,208.56,723Z"/><path class="cls-55" d="M211.06,770.14a22.46,22.46,0,0,0,7.21.65c3.09-.44,10.34-2.07,13.92-2.34s7-1.52,6.91-2.24-27.62-1.3-27.75.33S211.06,770.14,211.06,770.14Z"/><path class="cls-55" d="M232.27,800.93s-5.38-2.13-5.5-2.78a11.61,11.61,0,0,1,1-4.4c.13,0,8.12,2.43,8.12,2.43Z"/><path class="cls-55" d="M232.16,684.26s6.93-2.48,10.08-3.41,15.35-1.2,16.56-1.9.75-2.89-1.27-3.11-16.89-1-21.84-.3-14.22-.46-16.27,0-.7,7.08.1,8.58S232.16,684.26,232.16,684.26Z"/><path class="cls-55" d="M232.05,687.08l.11-2.82s-9.29-1-12.64-.17l.23,3.1Z"/><path class="cls-55" d="M248.4,684.26s6.93-2.48,10.07-3.41,15.36-1.2,16.57-1.9.75-2.89-1.28-3.11-16.88-1-21.83-.3-14.22-.46-16.27,0-.7,7.08.1,8.58S248.4,684.26,248.4,684.26Z"/><path class="cls-55" d="M248.29,687.08l.11-2.82s-9.29-1-12.64-.17l.23,3.1Z"/><polygon class="cls-55" points="193.72 752.74 183.17 753.85 190.21 764.53 193.72 752.74"/><path class="cls-55" d="M162.11,750.56s53-6.79,61.3-8.91,13.24-3,13.86-4,13.55-51.72,13.55-51.72H233.23s-13.65,38.26-15.31,40.63-67.23,2.49-72,5.36-8.9,10.72-3.73,17.76S162.11,750.56,162.11,750.56Z"/><path class="cls-55" d="M189,754.12s60.81-10.31,65.79-15-20.28-53.22-20.28-53.22H217.1s16.75,45.37,14.68,47.36-93.71.06-76.64,16.39S189,754.12,189,754.12Z"/><path class="cls-55" d="M182.64,805c2.29.72,9.92-.85,12.18-3,5.24-4.92,15.14-11,15.14-11L232,802.26l4.43-6.67-26.21-13.31a8.69,8.69,0,0,0-7.63.16c-6.88,4-21.06,12.5-22.15,14.62C179,799.86,178.27,803.66,182.64,805Z"/><path class="cls-55" d="M175.17,833.52s10.55-1.06,10.65-11.85-6.68-11.79-17-10.22c-6.19.95-12,6.24-9.72,15.52S175.17,833.52,175.17,833.52Z"/><path class="cls-55" d="M176.55,807.78s14.54-3.19,16.71-5.18.77-19.94-.47-26.36S188.14,756,189,754.12l-33.82-4.49S144.28,773.44,144,777.24s-8.27,21.5-4.45,22.93S160,807.22,160,807.22Z"/><polygon class="cls-55" points="155.14 749.63 153.49 753.31 189.04 757.48 188.96 754.12 155.14 749.63"/><polygon class="cls-55" points="172.83 755.77 181.26 756.83 181.26 752.81 172.83 751.63 172.83 755.77"/><path class="cls-55" d="M169.05,766.23c-.09-1.05-.21-2.11-.3-3.19l0,0c-1.2-11.82-3-24.2-3-24.2-2.47-1.24-33.8,3.14-33.8,3.14s3.86,3.16,7.57,11.9.82,17.11-3.06,31.32-.65,14.12-.65,14.12l24.2,7.92c1.59-3.63,8-16.81,9.52-24.37C170.07,780.1,169.73,773.5,169.05,766.23Z"/><path class="cls-55" d="M176.79,807.75s7-11,10-22.16c3-11.41,2.9-32.07,6.2-32.57s2.29-.17,2.29-.17-.62,12.48-.92,16.62c-.68,9.23,2.18,30,.86,32.15S184.44,806.92,176.79,807.75Z"/><path class="cls-55" d="M176.21,809.47a3.37,3.37,0,0,1,.34-1.69s-1.86-4.37-16.55-.56c0,0,2.9,6.51,0,12L176.55,813a19.6,19.6,0,0,1-.29-2.13A9.55,9.55,0,0,1,176.21,809.47Z"/><path class="cls-55" d="M160.6,809a59.87,59.87,0,0,1,11.6-2l-2.84-3.63L160,807.22Z"/><path class="cls-55" d="M172.2,806.94s4.07.82,4,2l.56-1.2-1.66-3.84Z"/><path class="cls-55" d="M172.2,806.94l2.12-2.19s-1-.68-4.13-.39Z"/><path class="cls-55" d="M173.87,804.55s8.68-15.39,8.75-26.31a87.18,87.18,0,0,0-1.36-17.45l-1.91-2.16-2.8,2s2,31.73-5.75,43.72C170.8,804.32,173.55,805.11,173.87,804.55Z"/><path class="cls-55" d="M138.48,800.17c6.35,1.56,12.94-3.74,16.45-9s10.24-14.94,10.24-14.94l47-4.58.67-5.38H158s-20.88,22.53-22.32,25.33S133.92,799.05,138.48,800.17Z"/><rect class="cls-55" x="196.16" y="763.02" width="154.87" height="3.21"/><path class="cls-55" d="M256.07,766.24H285.7a1.78,1.78,0,0,1,1.78,1.78v0a0,0,0,0,1,0,0H256.07a0,0,0,0,1,0,0v-1.78A0,0,0,0,1,256.07,766.24Z" transform="translate(543.55 1534.26) rotate(-180)"/><rect class="cls-55" x="334.93" y="675.69" width="4.4" height="87.33" transform="translate(674.25 1438.71) rotate(180)"/><rect class="cls-55" x="207.86" y="675.69" width="4.4" height="87.33" transform="translate(420.13 1438.71) rotate(180)"/><path class="cls-55" d="M169.05,766.23c-.09-1.05-.21-2.11-.3-3.19l0,0a38.25,38.25,0,0,0-11.22.92c-5.14,1.4-8.7,12.06-8.95,12.62.52-.62,8.72-10.33,10.74-10.33Z"/><path class="cls-55" d="M176.26,810.88a9.55,9.55,0,0,1,0-1.41c-11.67-.11-11.85,3.91-11.85,3.91C166.17,810.47,176.26,810.88,176.26,810.88Z"/><polygon class="cls-55" points="240.21 800.93 239.17 801.58 251.93 809.01 252.98 808.36 240.21 800.93"/><polygon class="cls-55" points="251.93 809.01 254.33 809.77 252.98 808.36 251.93 809.01"/><path class="cls-55" d="M246.46,804.49s-6.05-.78-6-1.44a1,1,0,0,1,.64-.87l-2.32-1.07s-1-1.26,1.34-1.54c0,0-1.09-1.12,1.2-1.21a.88.88,0,0,1,.81-1.1,31.15,31.15,0,0,1,4.91.45.85.85,0,0,1,.38,1.31s1,.73.33,1.57a1.14,1.14,0,0,1-.05,1.59,1.47,1.47,0,0,1-.58,2.37S246.71,804.53,246.46,804.49Z"/><path class="cls-55" d="M236.28,803.86a25.54,25.54,0,0,0,5.83-1.83c.42-.24.75-.53.56-.89s-1.22-.65-3-.37a23,23,0,0,1-4.25.08S233.8,801.49,236.28,803.86Z"/><path class="cls-55" d="M241.38,722.49s-3.72,14-3.92,14.55-4,2.6-22.05,6.17c0,0,20.09-2.36,25.36-4.42C244.83,737.19,241.38,722.49,241.38,722.49Z"/></g></g><polygon class="cls-55" points="671.57 662.65 671.19 659.64 671.51 662.43 671.89 665.43 671.57 662.65"/><polygon class="cls-55" points="699.64 662.94 696.23 665.51 696.56 668.29 699.97 665.73 699.64 662.94"/><polygon class="cls-55" points="657.31 670.2 653.37 668.51 653.7 671.3 657.64 672.98 657.31 670.2"/><path class="cls-55" d="M666.29,678.9a1.55,1.55,0,0,1,0-.31c0-.13,0-.25,0-.37l.09-.3c0-.13.08-.26.13-.39s.08-.18.12-.28l.23-.44.16-.26a6,6,0,0,1,.44-.59,1.84,1.84,0,0,1,.17-.22l.32-.34.3-.3.39-.33a4.62,4.62,0,0,1,.41-.34c.33-.25.68-.48,1-.7l.32-.18c.28-.16.58-.32.88-.46l.33-.16c.19-.09.38-.16.58-.24s.29-.13.45-.18.42-.15.63-.22l.43-.15c.43-.13.87-.24,1.32-.34l.41-.09.79-.15.51-.07.64-.08.54,0,.6,0,.55,0h1.13l.63,0,.5,0q.38,0,.75.09l.42.06c.45.07.88.16,1.31.27l.62.18.33.1c.31.1.62.22.91.34,2.48,1.06,3.85,2.68,4,4.43l-.33-2.78c-.2-1.76-1.57-3.37-4.05-4.43-.29-.13-.6-.24-.91-.35l-.32-.09-.56-.17h-.07c-.42-.11-.86-.2-1.31-.28l-.1,0-.31,0-.76-.09-.2,0-.3,0-.63,0h-1.68l-.6,0-.3,0-.24,0-.64.08-.32,0-.19,0c-.26,0-.53.09-.79.15l-.32.06-.09,0c-.45.11-.88.22-1.32.35l-.06,0-.37.12-.63.22-.45.18-.58.25-.13.05-.2.1-.88.46a3.37,3.37,0,0,1-.32.19c-.36.22-.71.45-1,.69l-.13.1-.28.24c-.13.11-.27.22-.39.34s-.2.2-.29.29-.23.23-.33.35l-.07.07a1.7,1.7,0,0,0-.1.14c-.16.2-.31.4-.44.6,0,0-.06.08-.09.13s0,.08-.07.13-.15.29-.22.44-.07.12-.1.19l0,.09c0,.13-.09.26-.13.39l-.07.22a.22.22,0,0,0,0,.08c0,.12,0,.24-.06.36a2.17,2.17,0,0,0,0,.25v.06c0,.13,0,.25,0,.38v.24a.34.34,0,0,1,0,.1l.33,2.79c0-.12,0-.23,0-.35A2.29,2.29,0,0,1,666.29,678.9Z"/><path class="cls-55" d="M701.1,675.27c0,.17-.08.35-.13.52s-.06.24-.1.36-.07.22-.11.33-.08.24-.13.36-.09.22-.14.33-.12.28-.19.42l-.15.3c-.07.14-.16.29-.24.43l-.16.28c-.17.27-.34.53-.53.79a.76.76,0,0,1-.08.11l-.53.67c-.15.18-.3.36-.46.53l.33,2.79c.13-.15.26-.29.38-.44l.07-.09c.19-.23.37-.45.54-.68l.08-.11c.19-.26.36-.52.52-.78l0-.07.12-.22.24-.42.15-.31c.07-.14.13-.28.19-.42a.75.75,0,0,0,.06-.13l.08-.2c0-.11.09-.23.13-.35s.07-.23.11-.34.07-.24.1-.35a.75.75,0,0,1,.05-.16c0-.12,0-.25.08-.37l5.19-.62-.33-2.79Z"/><path class="cls-55" d="M659.55,688.17l-.32-2.78a11.52,11.52,0,0,1-4.21-4.57l-5.2.62.33,2.79,5.19-.63A11.67,11.67,0,0,0,659.55,688.17Z"/><path class="cls-55" d="M692.27,685.13c-.59.32-1.2.62-1.83.91l-1.06.44-1,.41-1.11.38c-.34.11-.68.24-1,.34-.77.24-1.55.45-2.35.64l.33,2.78q1.18-.28,2.34-.63l.12,0,.93-.32c.36-.13.74-.24,1.1-.38l1-.41c.36-.14.71-.28,1.06-.44l.12-.05c.59-.27,1.16-.55,1.71-.85l3.94,1.68,5.88-4.43-.33-2.79-5.88,4.44Z"/><path class="cls-55" d="M674.93,689.33c-.57,0-1.13,0-1.7,0-.41,0-.81,0-1.21-.06l-1.06-.09-1.43-.17c-.37-.06-.75-.1-1.11-.17l-.49-.09c-.64-.12-1.28-.25-1.9-.41h0l-3.41,2.58-6.8-2.91.33,2.78,6.8,2.91,3.41-2.57c.62.16,1.25.29,1.89.42l.49.09c.17,0,.33.06.5.09l.62.07c.47.07.95.13,1.43.17.16,0,.31.05.47.06s.39,0,.58,0c.41,0,.81,0,1.22.06l.55,0h1.15l.38,3,9-1.08-.33-2.79-9,1.08Z"/><path class="cls-55" d="M696.21,686.82l-3.94-1.69a34.45,34.45,0,0,1-8.38,3.12l.38,3-9,1.08-.38-3a34.51,34.51,0,0,1-8.9-1l-3.41,2.58-6.8-2.91,3.41-2.57a11.52,11.52,0,0,1-4.21-4.57l-5.2.62-.65-5.18,5.19-.63a11.54,11.54,0,0,1,2.95-5.43l-3.94-1.69,5.88-4.43,3.94,1.68a35,35,0,0,1,8.38-3.11l-.38-3,9-1.08.38,3a35,35,0,0,1,8.9,1l3.41-2.57,6.8,2.91-3.41,2.57a11.7,11.7,0,0,1,4.22,4.57l5.19-.63.65,5.19-5.19.63a11.54,11.54,0,0,1-3,5.43l3.94,1.68ZM670,681.26c4.92,2.11,12.36,1.21,16.61-2s3.72-7.52-1.21-9.62-12.36-1.21-16.62,2-3.71,7.52,1.22,9.62"/><polygon class="cls-55" points="623.97 662.8 623.66 660.35 623.93 662.62 624.24 665.08 623.97 662.8"/><polygon class="cls-55" points="646.91 663.04 644.13 665.14 644.39 667.41 647.17 665.32 646.91 663.04"/><polygon class="cls-55" points="612.32 668.97 609.11 667.59 609.37 669.87 612.59 671.24 612.32 668.97"/><path class="cls-55" d="M619.66,676.08a2.3,2.3,0,0,1,0-.26,1.47,1.47,0,0,1,0-.29,1.82,1.82,0,0,1,.07-.25c0-.11.06-.21.1-.32l.11-.23a3,3,0,0,1,.18-.36l.13-.21c.11-.16.23-.33.36-.49l.14-.17a3.45,3.45,0,0,1,.26-.28l.24-.24c.1-.1.21-.19.32-.28l.34-.28c.27-.2.55-.38.85-.56l.26-.15c.23-.13.47-.26.72-.38l.26-.13.48-.2.37-.14.51-.18.36-.12c.35-.11.71-.2,1.07-.28l.34-.07c.21-.05.43-.09.64-.12l.42-.07.52-.06.44,0,.49,0,.45,0h.93l.51,0,.41,0,.62.08.34,0c.36.06.72.13,1.07.22l.51.15.26.08c.26.08.51.18.75.28,2,.86,3.14,2.18,3.31,3.61l-.27-2.27c-.17-1.43-1.29-2.75-3.31-3.62-.24-.1-.49-.19-.75-.28l-.26-.08-.45-.13h-.06c-.35-.09-.71-.17-1.07-.23l-.09,0a2.13,2.13,0,0,1-.25,0l-.61-.07-.17,0h-.24l-.52,0h-1.37l-.49,0-.25,0-.19,0-.53.07-.26,0-.15,0-.65.12-.26.05-.08,0c-.36.09-.72.18-1.07.29h0l-.3.1-.52.18-.36.15c-.17.06-.33.13-.48.2l-.11,0-.16.09c-.24.12-.49.24-.72.37l-.26.15c-.29.18-.58.37-.85.57l-.11.08-.22.2-.32.27-.25.24-.26.28,0,.06a.94.94,0,0,0-.09.12,5.6,5.6,0,0,0-.36.49l-.07.1-.06.11a3,3,0,0,0-.18.36,1.09,1.09,0,0,0-.08.15l0,.08a3,3,0,0,0-.1.32,1.27,1.27,0,0,0-.06.18.13.13,0,0,0,0,.06c0,.1,0,.2-.05.3a1.2,1.2,0,0,0,0,.2v0c0,.1,0,.21,0,.31v.2a.22.22,0,0,1,0,.08l.27,2.28a2.81,2.81,0,0,1,0-.29C619.66,676.28,619.65,676.18,619.66,676.08Z"/><path class="cls-55" d="M648.1,673.11c0,.14-.07.29-.1.43l-.09.29c0,.09,0,.18-.09.28s-.07.19-.11.29l-.1.27c-.05.11-.11.22-.16.34l-.13.25c-.06.11-.12.23-.19.34l-.14.24c-.13.21-.27.43-.43.64l-.06.09c-.14.18-.28.37-.44.55s-.24.29-.37.43l.27,2.28.31-.36.06-.08c.15-.18.3-.36.43-.55l.07-.09a6.51,6.51,0,0,0,.43-.64l0-.05a1.62,1.62,0,0,1,.1-.18l.19-.35c0-.08.08-.17.13-.25l.15-.34a.54.54,0,0,0,0-.11,1,1,0,0,0,.06-.16,2.49,2.49,0,0,0,.11-.29l.09-.27c0-.1.06-.2.08-.29s0-.09,0-.13.05-.2.07-.3l4.24-.51-.27-2.28Z"/><path class="cls-55" d="M614.16,683.66l-.27-2.28a9.5,9.5,0,0,1-3.44-3.73l-4.24.51.26,2.27,4.25-.51A9.52,9.52,0,0,0,614.16,683.66Z"/><path class="cls-55" d="M640.89,681.17c-.48.26-1,.51-1.5.74-.28.13-.58.24-.87.36l-.81.34-.91.31-.84.28c-.63.19-1.27.36-1.92.52l.27,2.27c.65-.15,1.29-.33,1.91-.52l.1,0,.76-.26.89-.31c.28-.1.55-.22.83-.34l.86-.35.1-.05c.48-.22.94-.45,1.4-.69l3.22,1.37,4.8-3.62-.27-2.27-4.8,3.62Z"/><path class="cls-55" d="M626.72,684.6c-.47,0-.93,0-1.39,0l-1-.05-.86-.07-1.17-.15-.91-.13-.4-.07c-.53-.1-1-.21-1.55-.34h0l-2.79,2.1-5.56-2.38.27,2.28,5.56,2.37,2.78-2.1c.51.13,1,.24,1.55.34l.4.07.41.08.51.06,1.17.14.38,0,.48,0,1,.05.45,0H627l.31,2.46,7.32-.88-.27-2.28-7.32.88Z"/><path class="cls-55" d="M644.11,682.55l-3.22-1.38a28.25,28.25,0,0,1-6.85,2.55l.31,2.45-7.32.88-.31-2.45a28.68,28.68,0,0,1-7.27-.84l-2.79,2.1-5.56-2.38,2.79-2.1a9.5,9.5,0,0,1-3.44-3.73l-4.24.51-.54-4.24,4.24-.51a9.46,9.46,0,0,1,2.41-4.44l-3.22-1.38,4.81-3.62,3.21,1.38A28.41,28.41,0,0,1,624,662.8l-.31-2.45,7.32-.88.31,2.45a28.82,28.82,0,0,1,7.28.84l2.78-2.09,5.56,2.37-2.79,2.1a9.5,9.5,0,0,1,3.44,3.73l4.25-.51.53,4.24-4.24.51a9.37,9.37,0,0,1-2.41,4.44l3.22,1.38ZM622.71,678a15,15,0,0,0,13.58-1.64c3.47-2.62,3-6.14-1-7.86a15.11,15.11,0,0,0-13.58,1.64c-3.47,2.62-3,6.14,1,7.86"/><polygon class="cls-15" points="671.67 656.12 671.29 653.11 671.62 655.89 672 658.9 671.67 656.12"/><polygon class="cls-15" points="699.75 656.4 696.34 658.97 696.67 661.76 700.07 659.19 699.75 656.4"/><polygon class="cls-15" points="657.42 663.66 653.48 661.98 653.8 664.76 657.75 666.45 657.42 663.66"/><path class="cls-15" d="M666.39,672.36c0-.1,0-.21,0-.31s0-.24.06-.36.06-.2.09-.31.08-.25.13-.38.08-.19.12-.28a3.68,3.68,0,0,1,.23-.44,2.26,2.26,0,0,1,.16-.26,6,6,0,0,1,.43-.6l.17-.21.33-.35.3-.3.39-.33c.13-.11.26-.23.41-.34.33-.25.68-.47,1-.69a3.37,3.37,0,0,1,.32-.19c.28-.16.58-.31.88-.46.11,0,.21-.11.32-.15l.59-.25.44-.18.63-.22.44-.14c.43-.13.87-.25,1.31-.35l.42-.08c.26-.06.52-.11.79-.15l.5-.08.65-.08.54,0,.6,0,.54,0h1.13l.64,0,.5,0,.75.09.42.06c.44.08.88.17,1.31.28a6.32,6.32,0,0,1,.62.18l.32.09c.32.11.62.22.92.35,2.48,1.06,3.84,2.67,4,4.42l-.33-2.78c-.2-1.75-1.57-3.37-4.05-4.43-.29-.12-.6-.24-.91-.34l-.33-.1-.55-.16-.07,0c-.43-.11-.86-.2-1.31-.27l-.11,0-.31,0q-.36-.06-.75-.09l-.2,0h-.3l-.63,0h-1.42l-.26,0-.6,0-.3,0-.24,0-.65.08-.31,0-.19,0-.79.15-.32.06-.09,0c-.45.1-.89.21-1.32.34l-.06,0-.37.13-.63.22-.45.17-.58.25-.13,0-.2.11c-.3.14-.59.3-.88.46l-.32.18c-.36.22-.71.45-1,.7l-.13.1-.28.24-.39.33-.3.3-.32.34-.07.07-.1.15a6,6,0,0,0-.44.59,1,1,0,0,0-.09.13s0,.09-.07.13l-.23.44a1.11,1.11,0,0,1-.09.19l0,.09c0,.13-.09.26-.13.39s0,.15-.07.23,0,0,0,.07,0,.24,0,.36a1.18,1.18,0,0,0,0,.25s0,0,0,.07,0,.25,0,.37a1.92,1.92,0,0,0,0,.24s0,.07,0,.11l.33,2.78c0-.11,0-.23,0-.35S666.39,672.48,666.39,672.36Z"/><path class="cls-15" d="M701.21,668.73c0,.18-.08.35-.13.53s-.06.23-.1.35-.07.23-.11.34l-.13.36-.14.32c-.06.14-.12.28-.19.42l-.15.31-.24.42-.17.29c-.16.26-.33.52-.52.78a.76.76,0,0,0-.08.11c-.17.23-.35.45-.54.68l-.45.53.33,2.78.38-.43.07-.1c.19-.22.37-.45.53-.67l.09-.11c.19-.26.36-.53.52-.79l.05-.07.12-.21.24-.43.15-.31c.06-.13.13-.27.19-.41l.06-.14a1.46,1.46,0,0,0,.07-.19c.05-.12.1-.24.14-.36l.11-.33c0-.12.07-.24.1-.36s0-.11,0-.16.06-.24.08-.36l5.2-.63-.33-2.78Z"/><path class="cls-15" d="M659.66,681.64l-.33-2.79a11.67,11.67,0,0,1-4.21-4.57l-5.19.63.33,2.78,5.19-.62A11.67,11.67,0,0,0,659.66,681.64Z"/><path class="cls-15" d="M692.38,678.6c-.59.32-1.21.62-1.83.9-.35.16-.71.3-1.06.44l-1,.41c-.36.14-.74.26-1.11.38l-1,.35c-.77.23-1.55.44-2.35.63l.33,2.78c.79-.18,1.57-.4,2.34-.63l.12,0,.93-.32,1.1-.37,1-.41,1-.44.13-.06c.58-.27,1.16-.55,1.71-.85l3.94,1.69,5.88-4.44-.33-2.78-5.88,4.43Z"/><path class="cls-15" d="M675,682.79c-.57,0-1.14,0-1.7,0s-.81,0-1.21-.06-.71-.05-1.06-.09-1-.1-1.43-.17l-1.12-.16-.49-.09c-.64-.13-1.27-.26-1.89-.42h0l-3.41,2.57-6.8-2.91.32,2.79,6.8,2.9,3.41-2.57c.62.16,1.26.3,1.9.42l.49.09.5.09.62.08,1.43.17.47.05.58,0,1.22.06.55,0h1.15l.38,3,9-1.08-.33-2.78-9,1.08Z"/><path class="cls-6" d="M696.32,680.28l-3.94-1.68a34.44,34.44,0,0,1-8.38,3.11l.38,3-9,1.08-.38-3a34.41,34.41,0,0,1-8.9-1l-3.41,2.57-6.8-2.91,3.4-2.57a11.67,11.67,0,0,1-4.21-4.57l-5.19.63-.65-5.19,5.19-.63a11.5,11.5,0,0,1,2.95-5.43L653.48,662l5.87-4.44,3.94,1.69a34.33,34.33,0,0,1,8.38-3.11l-.37-3,9-1.08.38,3a34.51,34.51,0,0,1,8.9,1l3.4-2.57,6.81,2.9L696.34,659a11.74,11.74,0,0,1,4.21,4.57l5.2-.62.65,5.19-5.19.62a11.62,11.62,0,0,1-3,5.44l3.94,1.68Zm-26.19-5.55c4.93,2.1,12.37,1.2,16.62-2s3.72-7.51-1.21-9.62-12.36-1.2-16.62,2-3.71,7.51,1.21,9.62"/><polygon class="cls-15" points="624.08 656.27 623.77 653.81 624.04 656.09 624.35 658.54 624.08 656.27"/><polygon class="cls-15" points="647.01 656.5 644.23 658.6 644.5 660.88 647.28 658.78 647.01 656.5"/><polygon class="cls-15" points="612.43 662.43 609.21 661.06 609.48 663.33 612.7 664.71 612.43 662.43"/><path class="cls-15" d="M619.77,669.54a2.13,2.13,0,0,1,0-.25c0-.1,0-.2,0-.3s0-.16.08-.25.06-.21.1-.31.07-.15.1-.23.12-.24.19-.36l.13-.22c.11-.16.22-.32.35-.48l.14-.18.27-.28.24-.24.32-.27.34-.28a9,9,0,0,1,.85-.57l.26-.15c.23-.13.47-.26.72-.37l.26-.13.48-.2.36-.15.52-.18.36-.12c.35-.1.71-.2,1.07-.28l.34-.07.64-.12.42-.06.52-.07.44,0,.49,0,.45,0h.92a4.41,4.41,0,0,1,.52,0,2.73,2.73,0,0,1,.41,0l.61.07.34,0c.37.06.73.13,1.08.22l.51.15.26.08.75.28c2,.87,3.14,2.19,3.31,3.62l-.27-2.28c-.17-1.43-1.29-2.75-3.31-3.61-.24-.1-.49-.2-.75-.28l-.26-.08-.46-.14h-.05c-.35-.09-.71-.16-1.07-.22l-.09,0-.25,0-.62-.08-.16,0h-.25l-.51,0h-1.37l-.5,0h-.24l-.19,0-.53.06-.26,0-.16,0c-.21,0-.43.07-.64.12l-.26.05-.08,0c-.36.08-.72.17-1.07.28h0l-.3.11a4.56,4.56,0,0,0-.52.18l-.37.14-.48.2-.1.05-.16.08c-.25.12-.49.24-.72.38l-.26.15c-.3.18-.58.36-.85.56l-.11.09-.23.19c-.1.09-.22.18-.31.27l-.25.25a3.45,3.45,0,0,0-.26.28l-.06,0-.08.12c-.13.16-.25.33-.36.49a.76.76,0,0,1-.08.11l-.05.1a3,3,0,0,0-.18.36c0,.06-.06.11-.08.16l0,.07c0,.11-.07.21-.1.32a1.27,1.27,0,0,0-.06.18.17.17,0,0,0,0,.07,1.35,1.35,0,0,0-.05.29,1.62,1.62,0,0,0,0,.2v.06c0,.1,0,.2,0,.3a1.33,1.33,0,0,0,0,.2s0,.06,0,.09l.27,2.27a2.62,2.62,0,0,1,0-.28A1.6,1.6,0,0,1,619.77,669.54Z"/><path class="cls-15" d="M648.21,666.58c0,.14-.07.28-.11.42s-.05.2-.08.3l-.09.27a2.49,2.49,0,0,1-.11.29c0,.09-.07.18-.11.27l-.15.34c0,.08-.08.17-.13.25l-.19.35-.14.23a6.51,6.51,0,0,1-.43.64l-.06.09c-.14.19-.29.37-.44.55l-.37.44.27,2.27.31-.35.06-.08c.15-.18.3-.37.43-.55l.07-.09c.15-.21.3-.43.43-.65l0-.05.09-.18a4,4,0,0,0,.2-.35l.12-.25a3.54,3.54,0,0,0,.16-.34.37.37,0,0,0,0-.11l.06-.15c0-.1.07-.2.11-.29l.09-.28c0-.1.06-.19.08-.29l0-.13.06-.3,4.25-.51-.27-2.27Z"/><path class="cls-15" d="M614.26,677.12l-.26-2.27a9.52,9.52,0,0,1-3.44-3.74l-4.25.51.27,2.28,4.24-.51A9.65,9.65,0,0,0,614.26,677.12Z"/><path class="cls-15" d="M641,674.64c-.49.26-1,.5-1.5.73-.28.13-.58.25-.87.37l-.81.33-.91.31c-.28.09-.56.2-.85.28-.62.19-1.26.37-1.91.52l.27,2.27c.65-.15,1.28-.32,1.91-.51l.1,0,.75-.26c.3-.1.61-.2.9-.31s.55-.22.82-.33.58-.23.86-.36l.11,0c.48-.22.94-.45,1.39-.7l3.22,1.38,4.8-3.62-.26-2.28-4.8,3.62Z"/><path class="cls-15" d="M626.83,678.06c-.47,0-.93,0-1.39,0l-1,0-.86-.07-1.17-.14c-.31,0-.61-.08-.91-.14l-.41-.07c-.52-.1-1-.21-1.54-.34h0l-2.79,2.1L611.21,677l.27,2.27L617,681.6l2.78-2.11c.51.14,1,.24,1.55.35l.4.07.41.07c.16,0,.34,0,.5.06.39.06.78.11,1.17.14l.38.05.48,0,1,0,.45,0h.94l.31,2.45,7.32-.88-.27-2.27-7.32.88Z"/><path class="cls-6" d="M644.22,676,641,674.64a28.39,28.39,0,0,1-6.85,2.54l.31,2.46-7.32.88-.31-2.46a28.37,28.37,0,0,1-7.28-.84l-2.78,2.1L611.21,677l2.79-2.1a9.52,9.52,0,0,1-3.44-3.74l-4.25.51-.53-4.24,4.24-.51a9.56,9.56,0,0,1,2.41-4.44l-3.22-1.37,4.8-3.62,3.22,1.37a28.39,28.39,0,0,1,6.85-2.54l-.31-2.46,7.32-.88.31,2.46a28,28,0,0,1,7.28.84l2.78-2.1,5.55,2.38-2.78,2.09a9.59,9.59,0,0,1,3.44,3.74l4.25-.51.53,4.24-4.24.51A9.47,9.47,0,0,1,645.8,671l3.22,1.37Zm-21.4-4.54a15.08,15.08,0,0,0,13.58-1.63c3.47-2.62,3-6.14-1-7.86a15.08,15.08,0,0,0-13.58,1.63c-3.48,2.63-3,6.15,1,7.86"/></g></g></svg>