<svg id="Layer_1" data-name="Layer 1" xmlns="http://www.w3.org/2000/svg" viewBox="0 0 236.49 251.46"><defs><style>.cls-1{fill:#565656;}</style></defs><title>Speed</title><path class="cls-1" d="M89,108.05a2.67,2.67,0,0,0-2.21-1.45l-22.5-1.5a2.63,2.63,0,0,0-2.67,1.69L45.39,148.25a2.67,2.67,0,0,0,4.1,3.11L63,141.27l7.84,1.56a2.66,2.66,0,0,0,3-1.66,173.68,173.68,0,0,1,15.06-30.48A2.68,2.68,0,0,0,89,108.05Zm-19.36,29.1-6.81-1.36a2.68,2.68,0,0,0-2.12.48l-6.9,5.17,12.08-30.87L82,111.64A181.68,181.68,0,0,0,69.63,137.15Z"/><path class="cls-1" d="M138.88,179.69l-1.51-22.5a2.67,2.67,0,0,0-4.09-2.09,173.93,173.93,0,0,1-30.47,15.06,2.66,2.66,0,0,0-1.67,3l1.57,7.84-10.1,13.46a2.67,2.67,0,0,0,2.14,4.28,3,3,0,0,0,1-.17l41.46-16.23A2.68,2.68,0,0,0,138.88,179.69Zm-36.35,10.48,5.17-6.9a2.65,2.65,0,0,0,.48-2.13l-1.36-6.8a180.58,180.58,0,0,0,25.51-12.4l1.08,16.15Z"/><path class="cls-1" d="M115.56,125.73h-18a2.69,2.69,0,0,0-2.34,1.38L72.58,167.75a2.68,2.68,0,0,0,2.34,4,2.65,2.65,0,0,0,1.38-.39L117,146.74a2.67,2.67,0,0,0,1.29-2.29v-16A2.68,2.68,0,0,0,115.56,125.73ZM112.89,143l-30.73,18.6,17-30.47h13.78Z"/><path class="cls-1" d="M198.36,48.06a2.69,2.69,0,0,0-2.45-2.45c-.89-.06-89-6.21-127.09,93.64a2.68,2.68,0,0,0,.6,2.85l12.72,12.72a2.69,2.69,0,0,0,2.27.76,2.72,2.72,0,0,0,2-1.36l12.74-23.14h13.77V143l-23.28,14.7a2.67,2.67,0,0,0-.46,4.15l12.72,12.72a2.66,2.66,0,0,0,1.89.78,2.61,2.61,0,0,0,.95-.17C204.58,137,198.43,49,198.36,48.06Zm-14,47.45c-9.38,23.23-30.86,54.8-79.9,74l-9.12-9.13L117,146.72a2.68,2.68,0,0,0,1.25-2.26V128.41a2.68,2.68,0,0,0-2.68-2.68h-18a2.69,2.69,0,0,0-2.34,1.39L83.4,148.52l-9-9C107.9,54.17,179.25,50.68,193.11,50.87A118.39,118.39,0,0,1,184.32,95.51Z"/><path class="cls-1" d="M83.81,163.62a2.65,2.65,0,0,0-2.41-1.05,2.68,2.68,0,0,0-1.05-2.41,16.71,16.71,0,0,0-14.28-2.79,18,18,0,0,0-12,10L38.24,202.19A2.68,2.68,0,0,0,40.67,206a2.6,2.6,0,0,0,1.11-.25l34.79-15.81a18,18,0,0,0,10-12A16.72,16.72,0,0,0,83.81,163.62Zm-2.4,13a12.68,12.68,0,0,1-7,8.46l-28.3,12.86,12.86-28.3a12.65,12.65,0,0,1,8.46-7.05,12.18,12.18,0,0,1,3-.38,11.37,11.37,0,0,1,4.78,1l-2.55,4.51a2.67,2.67,0,0,0,3.65,3.64l4.5-2.55A11.57,11.57,0,0,1,81.41,176.59Z"/><path class="cls-1" d="M198.36,48.06a2.68,2.68,0,0,0-2.45-2.44c-1-.09-25.84-2-55,11.47a2.68,2.68,0,0,0-.77,4.32l42.42,42.42a2.66,2.66,0,0,0,1.89.78,2.59,2.59,0,0,0,.48,0,2.65,2.65,0,0,0,1.95-1.51C200.32,73.9,198.44,49.1,198.36,48.06ZM183.59,97.29l-36.9-36.91a118.94,118.94,0,0,1,46.43-9.52A119,119,0,0,1,183.59,97.29Z"/><path class="cls-1" d="M156.12,87.85a23.06,23.06,0,1,0,0,32.62A23.08,23.08,0,0,0,156.12,87.85Zm-3.78,28.84a17.71,17.71,0,1,1,0-25.06A17.74,17.74,0,0,1,152.34,116.69Z"/><path class="cls-1" d="M145.13,109.48a7.52,7.52,0,1,1,0-10.64,2.67,2.67,0,0,0,3.78-3.78,12.87,12.87,0,1,0,0,18.2,2.67,2.67,0,0,0-3.78-3.78Z"/></svg>