<?xml version="1.0" encoding="utf-8"?>
<!-- Generator: Adobe Illustrator 23.0.6, SVG Export Plug-In . SVG Version: 6.00 Build 0)  -->
<svg version="1.1" id="Layer_5" xmlns="http://www.w3.org/2000/svg" xmlns:xlink="http://www.w3.org/1999/xlink" x="0px" y="0px"
	 viewBox="0 0 512 512" style="enable-background:new 0 0 512 512;" xml:space="preserve">
<style type="text/css">
	.st0{fill:#F2BC00;}
	.st1{fill:#AAB2BD;}
	.st2{fill:#69D6F4;}
	.st3{fill:#FFEAA7;}
	.st4{fill:#CC272D;}
	.st5{fill:#E6E9ED;}
	.st6{fill:#64BD9F;}
</style>
<path class="st0" d="M136,281.5V336H88l-5.4-21.7c-0.8-0.3-1.6-0.6-2.4-1l-19,11.5l-34-34l11.5-19c-0.4-0.8-0.6-1.6-1-2.4L16,264
	v-48l21.7-5.4c0.3-0.8,0.6-1.6,1-2.4l-11.5-19l34-34l19,11.5c0.8-0.4,1.6-0.6,2.4-1L88,144h48v54.5c-7-4.1-15.3-6.5-24-6.5
	c-26.5,0-48,21.5-48,48s21.5,48,48,48C120.7,288,129,285.6,136,281.5z"/>
<path class="st1" d="M408,432v32c0,17.7-14.3,32-32,32H168c-17.7,0-32-14.3-32-32v-32H408z"/>
<path class="st1" d="M408,48v32H136V48c0-17.7,14.3-32,32-32h208C393.7,16,408,30.3,408,48z"/>
<path class="st2" d="M136,80h272v352H136V80z"/>
<path class="st3" d="M168,112h208v288H168V112z"/>
<path class="st4" d="M200,144h144v96H200V144z"/>
<circle class="st5" cx="392" cy="264" r="104"/>
<path class="st6" d="M408,366.8c-5.2,0.8-10.6,1.2-16,1.2s-10.8-0.4-16-1.2c-25.7-4-48.2-17.3-64-36.4V321c0-14.6,10-27.4,24.2-31
	L376,280v-12.4c-9.5-5.6-16-15.8-16-27.6v-14.3c0-16.9,12.3-32.1,29.1-33.5c19-1.7,34.9,13.2,34.9,31.8v16c0,11.8-6.5,22-16,27.6
	V280l39.8,9.9c14.2,3.6,24.2,16.4,24.2,31v9.4C456.2,349.5,433.7,362.8,408,366.8L408,366.8z"/>
<path d="M504,264c0-53.5-37.7-98.3-88-109.3V48c0-22.1-17.9-40-40-40H168c-22.1,0-40,17.9-40,40v88H81.8l-4.8,19.3l-17.1-10.2
	l-42.8,42.8l10.2,17.1L8,209.8v60.5l19.3,4.8l-10.3,17.1l42.8,42.8l17.1-10.2l4.8,19.3H128v120c0,22.1,17.9,40,40,40h208
	c22.1,0,40-17.9,40-40v-90.7C466.3,362.3,504,317.5,504,264L504,264z M488,264c0,15.6-3.8,30.3-10.4,43.3
	c-4.4-12.2-14.7-21.8-27.9-25.1l-33.7-8.4v-1.9c10-7.5,16-19.3,16-31.8v-16c0-11.2-4.7-21.9-13-29.5c-8.2-7.5-19.4-11.3-30.6-10.4
	c-20.4,1.8-36.4,20-36.4,41.5V240c0,12.5,6,24.3,16,31.8v1.9l-33.7,8.4c-13.2,3.3-23.4,12.9-27.9,25.1c-6.6-13-10.4-27.7-10.4-43.3
	c0-52.9,43.1-96,96-96S488,211.1,488,264z M368,154.7c-5.5,1.2-10.8,2.9-16,4.9V136H192v112h89.3c-0.8,5.2-1.3,10.6-1.3,16
	c0,53.5,37.7,98.3,88,109.3V392H176V120h192V154.7z M284.7,232H208v-80h128v15.2C311.6,181.3,293,204.4,284.7,232z M168,24h208
	c13.2,0,24,10.8,24,24v24H144V48C144,34.8,154.8,24,168,24z M128,276.6c-5,2.2-10.5,3.4-16,3.4c-22.1,0-40-17.9-40-40s17.9-40,40-40
	c5.5,0,11,1.2,16,3.4V276.6z M94.2,328l-3.9-15.6l-1.6-4.3l-9.1-3.7l-17.3,10.4l-25.1-25.1l10.4-17.3l-4-9.8L24,257.8v-35.5
	l19.6-4.9l4-9.8l-10.4-17.3l25.1-25.1l17.3,10.4l9.8-4l4.9-19.6H128v34.4c-5.2-1.6-10.6-2.4-16-2.4c-30.9,0-56,25.1-56,56
	s25.1,56,56,56c5.4,0,10.8-0.9,16-2.4V328H94.2z M376,488H168c-13.2,0-24-10.8-24-24v-24h256v24C400,477.2,389.2,488,376,488z
	 M400,424H144V88h256v64.4c-2.7-0.2-5.3-0.4-8-0.4s-5.3,0.2-8,0.4V104H160v304h224v-32.4c2.7,0.2,5.3,0.4,8,0.4s5.3-0.2,8-0.4V424z
	 M392,360c-28.7,0-54.4-12.7-72-32.7V321c0-11,7.5-20.6,18.2-23.3l45.8-11.4V263l-4-2.3c-7.5-4.4-12-12.1-12-20.6v-14.3
	c0-13.3,9.6-24.5,21.8-25.6c6.9-0.6,13.4,1.6,18.4,6.2c4.9,4.5,7.8,11,7.8,17.7v16c0,8.5-4.5,16.3-12,20.6l-4,2.3v23.3l45.8,11.4
	C456.5,300.4,464,310,464,321v6.3C446.4,347.3,420.7,360,392,360z"/>
<path d="M304,40h16v16h-16V40z"/>
<path d="M224,40h64v16h-64V40z"/>
<path d="M192,264h72v16h-72V264z"/>
<path d="M192,296h72v16h-72V296z"/>
<path d="M192,328h72v16h-72V328z"/>
<path d="M192,360h72v16h-72V360z"/>
</svg>
