<?xml version="1.0" encoding="utf-8"?>
<!-- Generator: Adobe Illustrator 23.0.6, SVG Export Plug-In . SVG Version: 6.00 Build 0)  -->
<svg version="1.1" id="Layer_1" xmlns="http://www.w3.org/2000/svg" xmlns:xlink="http://www.w3.org/1999/xlink" x="0px" y="0px"
	 viewBox="0 0 512 512" style="enable-background:new 0 0 512 512;" xml:space="preserve">
<style type="text/css">
	.st0{fill:#CC272D;}
	.st1{fill:#D4FBFF;}
	.st2{fill:#FFCFD7;}
	.st3{fill:#6DC9F7;}
	.st4{fill:#FFFFFF;}
	.st5{fill:#0089EF;}
	.st6{fill:#1A2551;}
	.st7{fill:#3A2C60;}
</style>
<path class="st0" d="M27.9,404.2h116c0.3,0,0.6,0,0.8,0.1v-24.1c0-4.7-3.8-8.5-8.5-8.5c0,0,0,0,0,0h-62c-2.5,0-4.8-1.1-6.4-3
	l-6.1-7.3c-1.6-1.9-4-3.1-6.5-3.1H35.6c-4.7,0-8.5,3.8-8.5,8.5v37.5C27.4,404.3,27.7,404.3,27.9,404.2z"/>
<path class="st1" d="M133.6,404.2v-13c0-2.2-1.8-4-4-4H42.3c-2.2,0-4,1.8-4,4v13H133.6z"/>
<path class="st2" d="M137.4,468.4h-103c-4.2,0-7.8-3.1-8.4-7.3l-6.5-47.2c-0.6-4.6,2.6-8.9,7.2-9.5c0.4-0.1,0.8-0.1,1.2-0.1h116
	c4.7,0,8.5,3.8,8.5,8.4c0,0.4,0,0.8-0.1,1.2l-6.5,47.2C145.3,465.3,141.7,468.4,137.4,468.4z"/>
<path class="st0" d="M190,404.2h116c0.3,0,0.6,0,0.8,0.1v-24.1c0-4.7-3.8-8.5-8.4-8.5h-62c-2.5,0-4.8-1.1-6.4-3l-6.1-7.3
	c-1.6-1.9-4-3.1-6.5-3.1h-19.8c-4.7,0-8.5,3.8-8.5,8.5v37.5C189.4,404.3,189.7,404.3,190,404.2z"/>
<path class="st1" d="M295.6,404.2v-13c0-2.2-1.8-4-4-4h-87.2c-2.2,0-4,1.8-4,4v13H295.6z"/>
<path class="st2" d="M299.5,468.4h-103c-4.2,0-7.8-3.1-8.4-7.3l-6.5-47.2c-0.6-4.6,2.6-8.9,7.2-9.5c0.4-0.1,0.8-0.1,1.2-0.1h116
	c4.7,0,8.5,3.8,8.5,8.4c0,0.4,0,0.8-0.1,1.2l-6.5,47.2C307.3,465.3,303.7,468.4,299.5,468.4z"/>
<path class="st0" d="M352,404.2h116c0.3,0,0.6,0,0.8,0.1v-24.1c0-4.7-3.8-8.5-8.5-8.5h-62c-2.5,0-4.8-1.1-6.4-3l-6.1-7.3
	c-1.6-1.9-4-3.1-6.5-3.1h-19.8c-4.7,0-8.4,3.8-8.4,8.5v37.5C351.5,404.3,351.7,404.3,352,404.2z"/>
<path class="st1" d="M457.7,404.2v-13c0-2.2-1.8-4-4-4h-87.3c-2.2,0-4,1.8-4,4v13H457.7z"/>
<path class="st2" d="M461.5,468.4h-103c-4.2,0-7.8-3.1-8.4-7.3l-6.5-47.2c-0.6-4.6,2.6-8.9,7.2-9.5c0.4-0.1,0.8-0.1,1.2-0.1h116
	c4.7,0,8.5,3.8,8.5,8.4c0,0.4,0,0.8-0.1,1.2l-6.5,47.2C469.3,465.3,465.8,468.4,461.5,468.4z"/>
<path class="st3" d="M352,125c0.1-1.5,0.2-2.9,0.2-4.4c0-51.4-41.6-93-93-93c-41,0-77.1,26.8-89,66c-2-0.2-4-0.3-6-0.3
	c-42,0.3-75.9,34.6-75.6,76.7c0.3,41.6,34,75.3,75.6,75.6h183.5c33.3,0,60.3-27.1,60.3-60.4C407.8,153.5,383.5,127.3,352,125z"/>
<path class="st4" d="M255.8,39.6c45.8,0,84.4,29.4,95.6,69.2c-6.5-50.9-53.1-87-104-80.5c-29.5,3.8-55.4,21.4-69.7,47.4
	C197.1,52.6,225.7,39.4,255.8,39.6z"/>
<circle class="st5" cx="248" cy="301.7" r="16.8"/>
<path class="st6" d="M477.4,404.5c-1.2-1.4-2.8-2.5-4.6-3.3v-21c0-6.9-5.6-12.5-12.5-12.5H416v-66.1c0-2.2-1.8-4-4-4H268.3
	c-1.6-8.3-8.1-14.7-16.3-16.3v-31.8h8.7c2.2,0,4-1.8,4-4s-1.8-4-4-4h-96.6c-39.8,0.3-72.4-31.8-72.7-71.6
	c-0.3-39.8,31.8-72.4,71.6-72.7c0.4,0,0.7,0,1.1,0c1.9,0,3.8,0.1,5.7,0.3c1.9,0.2,3.6-1,4.1-2.8c14.3-47.1,64-73.6,111.1-59.3
	c37.5,11.4,63.2,46,63.2,85.2c0,0.9-0.1,1.7-0.1,2.6l-0.1,1.6c-0.1,2.2,1.5,4,3.7,4.2c31,2.3,54.4,29.3,52.1,60.3
	c-2.1,29.5-26.7,52.3-56.2,52.3h-25.3c-2.2,0-4,1.8-4,4s1.8,4,4,4h25.3c35.5,0,64.4-28.8,64.4-64.3c0-32.3-23.9-59.6-55.8-63.8
	c0-0.3,0-0.5,0-0.8c0-53.6-43.4-97-97-97c-41.6,0-78.5,26.5-91.9,65.8c-1-0.1-2.1-0.1-3.1-0.1c-44.3-0.3-80.4,35.3-80.7,79.6
	c-0.3,44.3,35.3,80.4,79.6,80.7c0.4,0,0.8,0,1.1,0H244v31.8c-8.3,1.6-14.7,8.1-16.4,16.3H84c-2.2,0-4,1.8-4,4v66.1h-5.6
	c-1.3,0-2.5-0.6-3.3-1.6l-6.1-7.3c-2.4-2.9-5.9-4.5-9.6-4.5H35.6c-6.9,0-12.5,5.6-12.5,12.5v34.4c-5.2,2.2-8.3,7.6-7.5,13.1
	l6.5,47.2c0.9,6.2,6.1,10.7,12.3,10.8h103c6.2,0,11.5-4.6,12.4-10.8l6.5-47.2c0.8-5.6-2.3-11-7.5-13.2v-21c0-6.9-5.6-12.5-12.5-12.5
	H88v-62.1h139.7c1.6,8.3,8.1,14.7,16.3,16.3v45.7h-7.6c-1.3,0-2.5-0.6-3.3-1.6l-6.1-7.3c-2.4-2.9-5.9-4.5-9.6-4.5h-19.8
	c-6.9,0-12.5,5.6-12.5,12.5v34.4c-5.2,2.2-8.3,7.6-7.5,13.2l6.5,47.2c0.9,6.2,6.1,10.7,12.4,10.7h103c6.2,0,11.5-4.6,12.3-10.8
	l6.5-47.2c0.8-5.6-2.3-11-7.5-13.2v-21c0-6.9-5.6-12.5-12.5-12.5H252V322c8.3-1.6,14.7-8.1,16.3-16.3H408v62.1h-9.6
	c-1.3,0-2.5-0.6-3.3-1.6l-6.1-7.3c-2.4-2.9-5.9-4.5-9.6-4.5h-19.8c-6.9,0-12.4,5.6-12.4,12.5v34.4c-1.7,0.7-3.3,1.8-4.6,3.3
	c-2.4,2.7-3.4,6.3-3,9.9l6.5,47.2c0.9,6.2,6.1,10.7,12.3,10.8h103c6.2,0,11.5-4.6,12.3-10.8l6.5-47.2
	C480.9,410.8,479.8,407.2,477.4,404.5z M141.9,460.6c-0.3,2.2-2.2,3.8-4.4,3.9h-103c-2.2,0-4.1-1.7-4.4-3.9l-6.5-47.2
	c-0.3-2.4,1.4-4.7,3.8-5c0.2,0,0.4,0,0.6,0h116c2.5,0,4.5,2,4.5,4.4c0,0.2,0,0.4,0,0.6L141.9,460.6z M140.8,380.2v20H31.1v-33.4
	c0-2.5,2-4.5,4.5-4.5h19.8c1.3,0,2.6,0.6,3.4,1.6l6.1,7.3c2.3,2.8,5.8,4.5,9.5,4.5h62C138.8,375.8,140.8,377.8,140.8,380.2
	L140.8,380.2z M303.9,460.6c-0.3,2.2-2.2,3.8-4.4,3.9h-103c-2.2,0-4.1-1.6-4.4-3.9l-6.5-47.2c-0.3-2.4,1.4-4.7,3.8-5
	c0.2,0,0.4,0,0.6,0h116c2.5,0,4.4,2,4.4,4.5c0,0.2,0,0.4,0,0.6L303.9,460.6z M302.9,380.2v20H193.1v-33.4c0-2.5,2-4.5,4.5-4.5h19.8
	c1.3,0,2.6,0.6,3.4,1.6l6.1,7.3c2.3,2.8,5.8,4.5,9.5,4.5h62C300.9,375.8,302.9,377.8,302.9,380.2z M248,314.5
	c-7,0-12.8-5.7-12.8-12.7s5.7-12.8,12.7-12.8s12.8,5.7,12.8,12.7c0,0,0,0,0,0C260.7,308.7,255,314.4,248,314.5z M359.6,362.4h19.8
	c1.3,0,2.6,0.6,3.4,1.6l6.1,7.3c2.3,2.8,5.8,4.5,9.5,4.5h62c2.5,0,4.5,2,4.5,4.5v20H355.2v-33.4
	C355.2,364.4,357.2,362.4,359.6,362.4z M465.9,460.6c-0.3,2.2-2.2,3.8-4.4,3.9h-103c-2.2,0-4.1-1.6-4.4-3.9l-6.5-47.2
	c-0.3-2.4,1.4-4.7,3.8-5c0.2,0,0.4,0,0.6,0h116c2.5,0,4.5,2,4.4,4.5c0,0.2,0,0.4,0,0.6L465.9,460.6z"/>
<path class="st7" d="M278.3,241.6c-2.2,0-4,1.8-4,4s1.8,4,4,4H304c2.2,0,4-1.8,4-4s-1.8-4-4-4H278.3z"/>
</svg>
