<?xml version="1.0" encoding="utf-8"?>
<!-- Generator: Adobe Illustrator 23.0.6, SVG Export Plug-In . SVG Version: 6.00 Build 0)  -->
<svg version="1.1" id="Capa_1" xmlns="http://www.w3.org/2000/svg" xmlns:xlink="http://www.w3.org/1999/xlink" x="0px" y="0px"
	 viewBox="0 0 512 512" style="enable-background:new 0 0 512 512;" xml:space="preserve">
<style type="text/css">
	.st0{fill:#EAEAEA;}
	.st1{fill:#CBCBCB;}
	.st2{fill:#CC272D;}
	.st3{fill:#DA4A54;}
	.st4{fill:#8C808A;}
	.st5{fill:#7B7179;}
	.st6{fill:#F2BC00;}
	.st7{fill:#F1D333;}
</style>
<g>
	<path class="st0" d="M144.8,77.6h359.7l-46.6,194.3l-265.3,0.8L144.8,77.6z"/>
	<path class="st1" d="M188.2,254.5l4.4,18.1l265.3-0.8l4.3-18L188.2,254.5z"/>
	<path class="st2" d="M476.9,376.1H167.5c-29.6,0-53.8-24.1-53.8-53.8c0-25.3,17.6-46.6,41.2-52.3L102,54.4c-0.3-1.2-1.3-2-2.5-2
		h-74c-9.9,0-18-8.1-18-18s8.1-18,18-18h74c17.8,0,33.2,12.1,37.5,29.4l55.6,226.8c1.9,7.8,0.2,15.8-4.8,22.1
		c-4.9,6.3-12.3,9.9-20.3,9.9c-9.8,0-17.8,8-17.8,17.8s8,17.8,17.8,17.8h309.4c9.9,0,18,8.1,18,18
		C494.9,368,486.9,376.1,476.9,376.1L476.9,376.1z"/>
	<g>
		<g>
			<path class="st3" d="M476.9,358.1H167.5c-26.6,0-48.7-19.4-53-44.8c-0.5,2.9-0.8,6-0.8,9c0,29.6,24.1,53.8,53.8,53.8h309.4
				c9.9,0,18-8.1,18-18c0-3.3-0.9-6.4-2.4-9C489.4,354.4,483.6,358.1,476.9,358.1L476.9,358.1z"/>
			<path class="st3" d="M99.5,39.4c0-2.8-2.2-5-5-5h-69c-6.6,0-12.4-3.6-15.6-9c-1.8,3-2.7,6.6-2.4,10.4c0.7,9.4,9,16.6,18.4,16.6
				h73.5L99.5,39.4L99.5,39.4z"/>
		</g>
	</g>
	<circle class="st4" cx="408.5" cy="435.8" r="59.7"/>
	<path class="st5" d="M408.5,477.6c-29.9,0-54.7-22-59.1-50.7c-0.4,2.9-0.7,6-0.7,9c0,33,26.8,59.7,59.7,59.7s59.7-26.8,59.7-59.7
		c0-3.1-0.2-6.1-0.7-9C463.3,455.5,438.5,477.6,408.5,477.6L408.5,477.6z"/>
	
		<ellipse transform="matrix(7.088903e-02 -0.9975 0.9975 7.088903e-02 -229.9528 624.811)" class="st4" cx="220.4" cy="435.8" rx="59.7" ry="59.7"/>
	<path class="st5" d="M220.4,477.6c-29.9,0-54.7-22-59.1-50.7c-0.4,2.9-0.7,6-0.7,9c0,33,26.8,59.7,59.7,59.7s59.7-26.8,59.7-59.7
		c0-3.1-0.2-6.1-0.7-9C275.1,455.5,250.4,477.6,220.4,477.6L220.4,477.6z"/>
	<circle class="st6" cx="220.4" cy="435.8" r="28.9"/>
	<path class="st7" d="M220.4,446.7c-12.8,0-23.7-8.4-27.5-19.9c-0.9,2.8-1.4,5.9-1.4,9c0,16,13,28.9,28.9,28.9s28.9-13,28.9-28.9
		c0-3.1-0.5-6.2-1.4-9C244.1,438.4,233.2,446.7,220.4,446.7z"/>
	<circle class="st6" cx="408.5" cy="435.8" r="28.9"/>
	<path class="st7" d="M408.5,446.7c-12.8,0-23.7-8.4-27.5-19.9c-0.9,2.8-1.4,5.9-1.4,9c0,16,13,28.9,28.9,28.9s28.9-13,28.9-28.9
		c0-3.1-0.5-6.2-1.4-9C432.2,438.4,421.4,446.7,408.5,446.7z"/>
	<g>
		<path d="M476.9,332.6H352.5c-4.2,0-7.5,3.4-7.5,7.5c0,4.1,3.4,7.5,7.5,7.5h124.4c5.8,0,10.5,4.7,10.5,10.5s-4.7,10.5-10.5,10.5
			H167.5c-25.5,0-46.2-20.7-46.2-46.2c0-21.4,14.6-39.9,35.4-45c1.9-0.5,3.6-1.7,4.7-3.4c1-1.7,1.4-3.8,0.9-5.7l-31.8-129.8
			c-1-4-5.1-6.5-9.1-5.5s-6.5,5.1-5.5,9.1L145.9,265c-23.7,8.9-39.7,31.5-39.7,57.4c0,33.8,27.5,61.3,61.3,61.3h10.6
			c-15.2,12.3-24.9,31.2-24.9,52.2c0,7.1,1.1,14.1,3.3,20.8c1.3,3.9,5.5,6.1,9.5,4.8c3.9-1.3,6.1-5.5,4.8-9.5
			c-1.7-5.2-2.5-10.6-2.5-16.1c0-28.8,23.4-52.2,52.2-52.2s52.2,23.4,52.2,52.2c0,28.8-23.4,52.2-52.2,52.2c-13.2,0-25.9-5-35.6-14
			c-3-2.8-7.8-2.7-10.6,0.4c-2.8,3-2.7,7.8,0.4,10.6c12.5,11.6,28.7,18,45.8,18c37.1,0,67.3-30.2,67.3-67.3
			c0-21.1-9.7-39.9-24.9-52.2h103.5c-15.2,12.3-24.9,31.2-24.9,52.2c0,37.1,30.2,67.3,67.3,67.3s67.3-30.2,67.3-67.3
			c0-21.1-9.7-39.9-24.9-52.2h26.1c14.1,0,25.5-11.4,25.5-25.5C502.5,344,491,332.6,476.9,332.6L476.9,332.6z M460.8,435.8
			c0,28.8-23.4,52.2-52.2,52.2c-28.8,0-52.2-23.4-52.2-52.2s23.4-52.2,52.2-52.2C437.3,383.6,460.8,407,460.8,435.8z"/>
		<path d="M510.4,72.9c-1.4-1.8-3.6-2.9-5.9-2.9H150.7L144.3,44c-5.1-20.7-23.5-35.1-44.8-35.1h-74C11.4,8.9,0,20.3,0,34.4
			s11.4,25.5,25.5,25.5h70.1l13.4,54.9c1,4,5.1,6.5,9.1,5.5c4-1,6.5-5.1,5.5-9.1l-14.4-58.6c-1.1-4.5-5.1-7.7-9.8-7.7h-74
			c-5.8,0-10.5-4.7-10.5-10.5s4.7-10.5,10.5-10.5h74c14.3,0,26.7,9.7,30.2,23.7l55.6,226.8c1.3,5.5,0.1,11.2-3.4,15.7s-8.7,7-14.4,7
			c-13.9,0-25.3,11.3-25.3,25.3c0,13.9,11.3,25.3,25.3,25.3h155c4.2,0,7.5-3.4,7.5-7.5s-3.4-7.5-7.5-7.5h-155
			c-5.7,0-10.3-4.6-10.3-10.3c0-5.7,4.6-10.3,10.3-10.3c10.3,0,19.9-4.7,26.2-12.8c4.4-5.6,6.8-12.3,7.1-19.2l257-0.7
			c3.5,0,6.5-2.4,7.3-5.8l46.6-194.3C512.3,77.1,511.8,74.7,510.4,72.9L510.4,72.9z M467.5,199.6h-45.7l9.7-49.7h47.9L467.5,199.6z
			 M419.2,134.8H372l4.3-49.7h52.5L419.2,134.8z M360.7,264.6l4.3-50h38.5l-9.8,49.9L360.7,264.6z M256.2,264.9l-9.8-50.3h38.5
			l4.4,50.2L256.2,264.9z M198.5,265.1l-12.4-50.5h44.9l9.8,50.3L198.5,265.1z M293,134.8l-4.3-49.7h72.6l-4.3,49.7H293z
			 M355.6,149.9l-4.3,49.7h-52.7l-4.3-49.7L355.6,149.9z M283.5,199.6h-40.1l-9.7-49.7h45.5L283.5,199.6z M277.9,134.8h-47.1
			L221,85.1h52.5L277.9,134.8z M228.1,199.6h-45.7l-12.2-49.7h48.2L228.1,199.6z M299.9,214.6H350l-4.3,50l-41.4,0.1L299.9,214.6z
			 M366.4,199.6l4.3-49.7h45.5l-9.7,49.7H366.4z M205.7,85.1l9.7,49.7h-48.9l-12.2-49.7H205.7z M451.9,264.3l-42.8,0.1l9.8-49.9h45
			L451.9,264.3z M483,134.8h-48.5l9.7-49.7H495L483,134.8z"/>
		<path d="M220.4,472.3c20.1,0,36.4-16.4,36.4-36.4c0-20.1-16.4-36.4-36.4-36.4c-20.1,0-36.4,16.4-36.4,36.4
			C184,455.9,200.3,472.3,220.4,472.3z M220.4,414.4c11.8,0,21.4,9.6,21.4,21.4s-9.6,21.4-21.4,21.4s-21.4-9.6-21.4-21.4
			S208.6,414.4,220.4,414.4z"/>
		<path d="M408.5,472.3c20.1,0,36.4-16.4,36.4-36.4c0-20.1-16.4-36.4-36.4-36.4s-36.4,16.4-36.4,36.4
			C372.1,455.9,388.4,472.3,408.5,472.3z M408.5,414.4c11.8,0,21.4,9.6,21.4,21.4s-9.6,21.4-21.4,21.4s-21.4-9.6-21.4-21.4
			S396.7,414.4,408.5,414.4z"/>
	</g>
</g>
</svg>
