<?xml version="1.0" encoding="utf-8"?>
<!-- Generator: Adobe Illustrator 23.0.6, SVG Export Plug-In . SVG Version: 6.00 Build 0)  -->
<svg version="1.1" id="Layer_1" xmlns="http://www.w3.org/2000/svg" xmlns:xlink="http://www.w3.org/1999/xlink" x="0px" y="0px"
	 viewBox="0 0 512 512" style="enable-background:new 0 0 512 512;" xml:space="preserve">
<style type="text/css">
	.st0{fill:#AFAFAF;}
	.st1{fill:#7A7380;}
	.st2{fill:#EFEFEF;}
	.st3{fill:#F2BC00;}
	.st4{fill:#F9E5AF;}
	.st5{fill:#CC272D;}
	.st6{fill:#FFCBC2;}
</style>
<g>
	<g>
		<g>
			<path class="st0" d="M488.5,406H469V130.6c0-11-8.9-20-20-20h-78.6c1.5,9.8,1.6,20,0.6,29.6c-5.3,49.7-41.9,90.1-89.8,101
				L255.2,283l-25.9-41.8c-47.9-10.9-84.5-51.2-89.8-101c-1-9.6-0.9-19.8,0.6-29.6H61c-11.1,0-20,9-20,20V406H21.5
				c-5.5,0-10,4.5-10,10v20.6c0,16.6,13.4,30,30,30h427c16.6,0,30-13.4,30-30V416C498.5,410.5,494,406,488.5,406z"/>
		</g>
	</g>
	<g>
		<path class="st1" d="M193.8,406v19.3c0,5.5,4.5,10,10,10h102.4c5.5,0,10-4.5,10-10V406L193.8,406z"/>
	</g>
	<g>
		<path class="st2" d="M469.3,451.6H362.8c-2.8,0-5-2.2-5-5s2.2-5,5-5h106.6c2.8,0,5-2.2,5-5V426c0-2.8,2.2-5,5-5s5,2.2,5,5v10.6
			C484.3,444.9,477.6,451.6,469.3,451.6L469.3,451.6z M342.8,451.6h-10c-2.8,0-5-2.2-5-5s2.2-5,5-5h10c2.8,0,5,2.2,5,5
			S345.5,451.6,342.8,451.6z"/>
	</g>
	<g>
		<path class="st3" d="M439.4,140.2v236.2H70.6V140.2h68.9c5.3,49.7,41.9,90.1,89.8,101l25.9,41.8l25.9-41.8
			c47.9-10.9,84.5-51.2,89.8-101H439.4z"/>
	</g>
	<g>
		<path class="st4" d="M414.5,358.1H121c-2.8,0-5-2.2-5-5s2.2-5,5-5h288.5V162.6c0-2.8,2.2-5,5-5s5,2.2,5,5v190.5
			C419.5,355.9,417.3,358.1,414.5,358.1z M101,358.1h-6.7c-2.8,0-5-2.2-5-5s2.2-5,5-5h6.7c2.8,0,5,2.2,5,5S103.8,358.1,101,358.1z"
			/>
	</g>
	<g>
		<path class="st5" d="M370.3,110.6c-8.3-56.1-56.7-99.2-115.1-99.2s-106.8,43.1-115.1,99.2c-1.5,9.8-1.6,20-0.6,29.6
			c5.3,49.7,41.9,90.1,89.8,101l25.9,41.8l25.9-41.8c47.9-10.9,84.5-51.2,89.8-101C372,130.6,371.8,120.4,370.3,110.6z"/>
	</g>
	<g>
		<path class="st6" d="M252.6,245.5c-2.3-1.5-3.1-4.5-1.6-6.9l12.1-19.5c0.7-1.1,1.8-1.9,3.1-2.2c53.9-12.3,78.4-48.3,78.4-89.1
			c0-38.6-24.7-72.8-61.4-84.9c-2.6-0.9-4-3.7-3.2-6.3s3.7-4.1,6.3-3.2c40.8,13.5,68.3,51.4,68.3,94.4c0,44.7-27.5,85.5-84.1,98.4
			l-11,17.7C258,246.2,255,246.9,252.6,245.5L252.6,245.5z M264.7,38.9c-3.1-0.3-6.3-0.5-9.5-0.5c-2.8,0-5-2.2-5-5s2.2-5,5-5
			c3.5,0,7,0.2,10.5,0.5c2.7,0.3,4.7,2.8,4.5,5.5C269.9,37.3,267.4,39.2,264.7,38.9L264.7,38.9z"/>
	</g>
	<g>
		<path d="M220.2,85.6c-2-1.7-5.3-1.4-7,0.6l-33.5,39.9c-1.6,1.9-1.6,4.6,0,6.4l33.5,39.9c1.8,2.1,4.9,2.4,7,0.6
			c2.1-1.8,2.4-4.9,0.6-7.1c0,0,0,0,0,0L190,129.4l30.8-36.7C222.5,90.7,222.4,87.5,220.2,85.6z"/>
		<path d="M289.8,173.2c2.1,1.8,5.3,1.5,7-0.6l33.5-39.9c1.6-1.9,1.6-4.6,0-6.4l-33.5-39.9c-1.7-2-5-2.3-7-0.6
			c-2.2,1.9-2.3,5.1-0.6,7h0l30.8,36.7l-30.8,36.7C287.4,168.2,287.7,171.4,289.8,173.2z"/>
		<path d="M269.8,84.7c-2.6-0.8-5.5,0.7-6.3,3.3l-24.8,79.9c-0.8,2.6,0.7,5.4,3.3,6.3c2.8,0.8,5.5-0.7,6.3-3.3l24.8-79.9
			C273.9,88.3,272.4,85.5,269.8,84.7L269.8,84.7z"/>
		<path d="M182.7,339h144.6c2.8,0,5-2.2,5-5c0-2.7-2.2-5-5-5H182.7c-2.8,0-5,2.3-5,5C177.7,336.7,180,339,182.7,339z"/>
		<path d="M182.7,313.5h144.6c2.8,0,5-2.2,5-5s-2.2-5-5-5H182.7c-2.8,0-5,2.2-5,5S180,313.5,182.7,313.5z"/>
		<circle cx="469" cy="340.5" r="5"/>
		<path d="M488.5,401H474v-40.4c0-2.8-2.2-5-5-5c-2.7,0-5,2.2-5,5v0V401c-21.8,0-396.5,0-417.9,0V130.6c0-8.3,6.7-15,15-15h73.5
			c-0.7,7.2-0.8,13.3-0.4,19.6H70.6c-2.8,0-5,2.3-5,5v89.5c0,2.8,2.2,5,5,5s5-2.3,5-5v-84.5h59.5c7.1,49.5,43.9,88.8,91,100.4
			l24.8,40.1c1.9,3.1,6.5,3.2,8.5,0l24.8-40.1c47.1-11.6,83.9-50.9,91-100.4h59v226.2H75.6V269.7c0-2.7-2.2-5-5-5s-5,2.3-5,5v106.7
			c0,2.8,2.3,5,5,5h368.7c2.8,0,5-2.2,5-5V140.2c0-2.6-2.1-5-5-5h-63c0.4-6.2,0.4-12.3-0.4-19.6h73c8.3,0,15,6.8,15,15v189.9
			c0,2.8,2.2,5,5,5s5-2.2,5-5V130.6c0-13.8-11.2-25-25-25h-74.4c-2.3-12.3-6.4-24.1-12.3-35.1c-1.2-2.3-4.1-3.4-6.8-2
			c-2.5,1.4-3.3,4.4-2,6.8c6.1,11.3,10.1,23.5,12,36.1c1.3,9.1,1.6,18.6,0.6,28.3c-5,47.3-39.5,86.1-85.9,96.6
			c-1.3,0.3-2.4,1.1-3.1,2.2l-21.7,35l-21.7-35c-0.7-1.1-1.8-2-3.1-2.2c-46.4-10.5-80.9-49.4-85.9-96.6c-1.1-9.8-0.8-19.5,0.6-28.3
			c8-54.1,55.3-94.9,110.1-94.9c27.7,0,54.2,10.2,74.7,28.8c2,1.8,5.3,1.6,7.1-0.4c1.9-2,1.7-5.2-0.3-7.1c0,0,0,0,0,0
			c-22.3-20.2-51.2-31.3-81.4-31.3c-59.4,0-108.9,42.7-119.3,99.2l-74.9,0c-13.8,0-25,11.2-25,25V401H21.5c-8.3,0-15,6.7-15,15v20.6
			v0c0,19.3,15.7,35,35,35h427c19.3,0,35-15.7,35-35v0V416C503.5,407.7,496.8,401,488.5,401L488.5,401z M311.2,411v14.3
			c0,2.7-2.2,5-5,5H203.8c-2.8,0-5-2.3-5-5V411H311.2z M468.5,461.6c-21.6,0-405.4,0-427,0c-13.8,0-25-11.3-25-25V416
			c0-2.8,2.2-5,5-5h167.3v14.3c0,8.3,6.7,15,15,15h102.4c8.3,0,15-6.7,15-15V411h167.3c2.8,0,5,2.3,5,5v20.6
			C493.5,450.3,482.3,461.6,468.5,461.6z"/>
		<path d="M70.6,254.7c2.8,0,5-2.2,5-5c0-2.7-2.2-5-5-5s-5,2.2-5,5C65.6,252.4,67.9,254.7,70.6,254.7z"/>
		<path d="M343,59.2c1.8,2.2,4.9,2.5,7,0.8c2.2-1.7,2.6-4.8,0.9-7c-1.6-2.1-4.9-2.5-7-0.8C341.6,53.9,341.3,57,343,59.2L343,59.2z"
			/>
	</g>
</g>
</svg>
