<?xml version="1.0" encoding="utf-8"?>
<!-- Generator: Adobe Illustrator 23.0.6, SVG Export Plug-In . SVG Version: 6.00 Build 0)  -->
<svg version="1.1" id="Layer_1" xmlns="http://www.w3.org/2000/svg" xmlns:xlink="http://www.w3.org/1999/xlink" x="0px" y="0px"
	 viewBox="0 0 512 512" style="enable-background:new 0 0 512 512;" xml:space="preserve">
<style type="text/css">
	.st0{fill:#F2BC00;}
	.st1{fill:#63D3FD;}
</style>
<g transform="translate(1 1)">
	<g>
		<path class="st0" d="M378.7,289.1c-1.7,0-3.4-0.9-5.1-1.7c-3.4-3.4-4.3-8.5-0.9-11.9c18.8-22.2,22.2-66.6,0-91.3
			c-3.4-3.4-2.6-8.5,0.9-11.9s8.5-2.6,11.9,0.9c29,32.4,23,85.3,0,113.5C383.8,288.3,381.3,289.1,378.7,289.1z"/>
		<path class="st0" d="M404.3,331.8c-2.6,0-4.3-0.9-6-2.6c-3.4-3.4-3.4-8.5,0-11.9c19.6-19.6,31.6-54.6,31.6-91.3
			c0-35-11.9-64.9-31.6-84.5c-3.4-3.4-3.4-8.5,0-11.9s8.5-3.4,11.9,0c23,22.2,36.7,57.2,36.7,96.4c0.9,41.8-13.7,80.2-36.7,104.1
			C408.6,330.9,406.9,331.8,404.3,331.8z"/>
		<polyline class="st0" points="353.1,323.3 353.1,434.2 80,434.2 80,58.7 353.1,58.7 353.1,135.5 		"/>
		<path class="st0" d="M80,476.9c0,13.7,11.1,25.6,25.6,25.6h221.9c13.7,0,25.6-11.1,25.6-25.6v-42.7H80V476.9z"/>
		<path class="st0" d="M327.5,7.5H105.6C91.1,7.5,80,18.6,80,33.1v25.6h273.1V33.1C353.1,18.6,342,7.5,327.5,7.5"/>
	</g>
	<g>
		<polygon class="st1" points="173.9,263.5 259.2,263.5 259.2,195.3 173.9,195.3 		"/>
		<polygon class="st1" points="310.4,297.7 259.2,263.5 259.2,195.3 310.4,161.1 		"/>
		<polygon class="st1" points="191,323.3 225.1,323.3 225.1,263.5 191,263.5 		"/>
		<path class="st1" d="M242.2,468.3c0,14.5-11.1,25.6-25.6,25.6S191,482.8,191,468.3c0-14.5,11.1-25.6,25.6-25.6
			S242.2,453.8,242.2,468.3"/>
	</g>
	<path d="M361.6,442.7H71.5V50.2h290.1v85.3c0,5.1-3.4,8.5-8.5,8.5s-8.5-3.4-8.5-8.5V67.3h-256v358.4h256V323.3
		c0-5.1,3.4-8.5,8.5-8.5s8.5,3.4,8.5,8.5L361.6,442.7L361.6,442.7z"/>
	<path d="M250.7,41.7H208c-5.1,0-8.5-3.4-8.5-8.5s3.4-8.5,8.5-8.5h42.7c5.1,0,8.5,3.4,8.5,8.5S255.8,41.7,250.7,41.7z"/>
	<path d="M182.4,41.7h-8.5c-5.1,0-8.5-3.4-8.5-8.5s3.4-8.5,8.5-8.5h8.5c5.1,0,8.5,3.4,8.5,8.5S187.6,41.7,182.4,41.7z"/>
	<path d="M71.5,101.4c-5.1,0-8.5-3.4-8.5-8.5v-8.5c0-5.1,3.4-8.5,8.5-8.5s8.5,3.4,8.5,8.5v8.5C80,98,76.6,101.4,71.5,101.4z"/>
	<path d="M71.5,135.5c-5.1,0-8.5-3.4-8.5-8.5v-8.5c0-5.1,3.4-8.5,8.5-8.5s8.5,3.4,8.5,8.5v8.5C80,132.1,76.6,135.5,71.5,135.5z"/>
	<path d="M71.5,169.7c-5.1,0-8.5-3.4-8.5-8.5v-8.5c0-5.1,3.4-8.5,8.5-8.5s8.5,3.4,8.5,8.5v8.5C80,166.3,76.6,169.7,71.5,169.7z"/>
	<path d="M216.6,502.5c-18.8,0-34.1-15.4-34.1-34.1s15.4-34.1,34.1-34.1s34.1,15.4,34.1,34.1C250.7,487.1,235.4,502.5,216.6,502.5z
		 M216.6,451.3c-9.4,0-17.1,7.7-17.1,17.1s7.7,17.1,17.1,17.1c9.4,0,17.1-7.7,17.1-17.1S226,451.3,216.6,451.3z"/>
	<path d="M259.2,272.1h-85.3c-5.1,0-8.5-3.4-8.5-8.5v-68.3c0-5.1,3.4-8.5,8.5-8.5h85.3c5.1,0,8.5,3.4,8.5,8.5v68.3
		C267.8,268.7,264.4,272.1,259.2,272.1z M182.4,255h68.3v-51.2h-68.3V255z"/>
	<path d="M310.4,306.2c-1.7,0-3.4-0.9-5.1-1.7l-51.2-34.1c-1.7-1.7-3.4-4.3-3.4-6.8v-68.3c0-2.6,1.7-5.1,3.4-6.8l51.2-34.1
		c2.6-1.7,6-1.7,8.5,0s4.3,4.3,4.3,7.7v136.5c0,3.4-1.7,6-4.3,7.7C313,306.2,312.2,306.2,310.4,306.2z M267.8,259.3l34.1,23v-105
		l-34.1,23V259.3z"/>
	<path d="M344.6,263.5c-1.7,0-3.4-0.9-5.1-1.7c-3.4-3.4-4.3-8.5-0.9-11.9c7.7-9.4,9.4-29,0-40.1c-3.4-3.4-2.6-8.5,0.9-11.9
		s8.5-2.6,11.9,0.9c16.2,17.9,12.8,46.9,0,62.3C349.7,262.7,347.1,263.5,344.6,263.5z"/>
	<path d="M370.2,289.1c-1.7,0-3.4-0.9-5.1-1.7c-3.4-3.4-4.3-8.5-0.9-11.9c18.8-22.2,22.2-66.6,0-91.3c-3.4-3.4-2.6-8.5,0.9-11.9
		s8.5-2.6,11.9,0.9c29,32.4,23,85.3,0,113.5C375.3,288.3,372.7,289.1,370.2,289.1z"/>
	<path d="M225.1,331.8H191c-5.1,0-8.5-3.4-8.5-8.5v-59.7c0-5.1,3.4-8.5,8.5-8.5h34.1c5.1,0,8.5,3.4,8.5,8.5v59.7
		C233.6,328.4,230.2,331.8,225.1,331.8z M199.5,314.7h17.1v-42.7h-17.1V314.7z"/>
	<path d="M395.8,331.8c-2.6,0-4.3-0.9-6-2.6c-3.4-3.4-3.4-8.5,0-11.9c19.6-19.6,31.6-54.6,31.6-91.3c0-35-11.9-64.9-31.6-84.5
		c-3.4-3.4-3.4-8.5,0-11.9c3.4-3.4,8.5-3.4,11.9,0c23,22.2,36.7,57.2,36.7,96.4c0.9,41.8-13.7,80.2-36.7,104.1
		C400,330.9,398.3,331.8,395.8,331.8z"/>
	<path d="M327.5,511H105.6c-18.8,0-34.1-15.4-34.1-34.1v-51.2h290.1v51.2C361.6,495.6,346.3,511,327.5,511z M88.6,442.7v34.1
		c0,9.4,7.7,17.1,17.1,17.1h221.9c9.4,0,17.1-7.7,17.1-17.1v-34.1H88.6z"/>
	<path d="M361.6,67.3H71.5V33.1C71.5,14.4,86.9-1,105.6-1h221.9c18.8,0,34.1,15.4,34.1,34.1V67.3z M88.6,50.2h256V33.1
		c0-9.4-7.7-17.1-17.1-17.1H105.6c-9.4,0-17.1,7.7-17.1,17.1V50.2z"/>
</g>
</svg>
