<svg id="Layer_1" data-name="Layer 1" xmlns="http://www.w3.org/2000/svg" xmlns:xlink="http://www.w3.org/1999/xlink" viewBox="0 0 830 847.79"><defs><style>.cls-1{fill:none;}.cls-2,.cls-4{fill:#f0f5fc;}.cls-3{fill:#d4e1f7;}.cls-39,.cls-4{opacity:0.5;}.cls-5{fill:#2a3554;}.cls-6{fill:#001030;}.cls-7{fill:#445279;}.cls-8{fill:#fff;}.cls-9{fill:#e1fff4;}.cls-10{fill:#64bd9f;}.cls-11{fill:#168e63;}.cls-12{fill:#3bcc94;}.cls-13{fill:#fceede;}.cls-14{fill:#da7800;}.cls-15{fill:#ba6202;}.cls-16{fill:#efa656;}.cls-17{fill:#fbdefc;}.cls-18{fill:#963596;}.cls-19{fill:#830687;}.cls-20{fill:#b933c4;}.cls-21{fill:#ff5767;}.cls-22{fill:#e22445;}.cls-23{fill:#004386;}.cls-24{fill:#005db1;}.cls-25{fill:#f7ad89;}.cls-26{fill:#2e3052;}.cls-27{fill:#000b29;}.cls-28{fill:#fa8465;}.cls-29{fill:#fa664d;}.cls-30{fill:#f3a17a;}.cls-31{fill:#cf6244;}.cls-31,.cls-46{opacity:0.4;}.cls-32{fill:#91554a;}.cls-33{fill:#8d191b;}.cls-34{fill:#231113;}.cls-35{fill:#e38a62;}.cls-36{fill:#331a17;}.cls-37{fill:#f2747b;}.cls-38{fill:#260b0c;}.cls-38,.cls-47{opacity:0.6;}.cls-39{fill:#493123;}.cls-40{fill:#000718;}.cls-41{fill:#524e82;}.cls-42{fill:#0078cc;}.cls-43{clip-path:url(#clip-path);}.cls-44{opacity:0.35;}.cls-45,.cls-46,.cls-47{fill:#b5cff4;}</style><clipPath id="clip-path"><circle class="cls-1" cx="415" cy="423.89" r="407.59"/></clipPath></defs><title>Testimonial_banner</title><circle class="cls-2" cx="415" cy="423.89" r="407.59"/><path class="cls-3" d="M680.15,641c-15.95-22.63-21.83-70.93,14.2-168.78,38.49-104.51-9.16-208.59-90.94-226.79s-191.47,43.06-274.11-6.65-168.39,5.58-185.22,65.72C126.27,368.15,158,407.21,171.23,462.93s-18.85,54.26-45,95.8c-24.31,38.64-14.79,67.7-6.25,82.31Z"/><path class="cls-3" d="M173.45,529.09a1.32,1.32,0,0,1-.95-.4l-.62-.67a1.3,1.3,0,0,1,.07-1.86,1.32,1.32,0,0,1,1.86.07c.38.42.59.63.59.63a1.33,1.33,0,0,1,0,1.87A1.31,1.31,0,0,1,173.45,529.09Zm-4.62-5.17a1.29,1.29,0,0,1-1-.46c-1.11-1.29-2.26-2.66-3.41-4.06a1.31,1.31,0,1,1,2-1.67c1.14,1.39,2.28,2.74,3.38,4a1.31,1.31,0,0,1-1,2.17Zm-7.16-8.74a1.33,1.33,0,0,1-1-.51c-1.07-1.37-2.16-2.78-3.23-4.2a1.31,1.31,0,1,1,2.1-1.58c1.06,1.4,2.14,2.8,3.2,4.16a1.32,1.32,0,0,1-1,2.13Zm-6.8-9a1.31,1.31,0,0,1-1.07-.55c-1-1.42-2.05-2.87-3.06-4.31a1.31,1.31,0,0,1,.32-1.83,1.33,1.33,0,0,1,1.84.32c1,1.43,2,2.87,3,4.28a1.32,1.32,0,0,1-.3,1.84A1.29,1.29,0,0,1,154.87,506.15Zm-6.45-9.27a1.31,1.31,0,0,1-1.09-.59c-1-1.47-2-3-2.91-4.42a1.32,1.32,0,0,1,2.21-1.43c.94,1.46,1.91,2.93,2.88,4.39a1.32,1.32,0,0,1-.36,1.83A1.3,1.3,0,0,1,148.42,496.88Zm-6.11-9.5a1.32,1.32,0,0,1-1.12-.62c-.92-1.5-1.85-3-2.74-4.53a1.31,1.31,0,1,1,2.26-1.34c.89,1.49,1.8,3,2.72,4.48a1.31,1.31,0,0,1-.43,1.81A1.23,1.23,0,0,1,142.31,487.38Zm-5.75-9.71a1.31,1.31,0,0,1-1.15-.67c-.86-1.52-1.73-3.08-2.57-4.62a1.32,1.32,0,1,1,2.31-1.26c.83,1.53,1.69,3.07,2.55,4.58a1.32,1.32,0,0,1-.49,1.8A1.4,1.4,0,0,1,136.56,477.67Zm-5.39-9.92A1.33,1.33,0,0,1,130,467c-.81-1.56-1.61-3.15-2.39-4.72a1.32,1.32,0,1,1,2.36-1.17c.77,1.56,1.57,3.13,2.37,4.68a1.32,1.32,0,0,1-.56,1.77A1.34,1.34,0,0,1,131.17,467.75Zm-5-10.12a1.33,1.33,0,0,1-1.2-.76c-.74-1.6-1.48-3.21-2.2-4.81a1.33,1.33,0,0,1,.67-1.74,1.31,1.31,0,0,1,1.74.67c.7,1.58,1.44,3.18,2.18,4.76a1.32,1.32,0,0,1-.64,1.75A1.23,1.23,0,0,1,126.18,457.63Zm-4.58-10.32a1.32,1.32,0,0,1-1.22-.8c-.68-1.63-1.35-3.28-2-4.91a1.31,1.31,0,1,1,2.44-1c.64,1.61,1.31,3.24,2,4.85a1.32,1.32,0,0,1-.71,1.72A1.24,1.24,0,0,1,121.6,447.31Zm-4.14-10.49a1.3,1.3,0,0,1-1.23-.87c-.61-1.65-1.21-3.33-1.78-5a1.31,1.31,0,1,1,2.48-.86c.57,1.64,1.16,3.3,1.76,4.93a1.3,1.3,0,0,1-.77,1.69A1.25,1.25,0,0,1,117.46,436.82Zm-3.66-10.68a1.32,1.32,0,0,1-1.26-.91c-.53-1.68-1.05-3.39-1.54-5.07a1.31,1.31,0,1,1,2.52-.74c.49,1.67,1,3.35,1.53,5a1.31,1.31,0,0,1-.85,1.65A1.44,1.44,0,0,1,113.8,426.14Zm-3.16-10.83a1.32,1.32,0,0,1-1.27-1c-.45-1.7-.89-3.43-1.3-5.13a1.32,1.32,0,0,1,2.56-.62c.41,1.68.84,3.39,1.29,5.08a1.31,1.31,0,0,1-1.28,1.65Zm-2.61-11a1.32,1.32,0,0,1-1.29-1c-.36-1.72-.71-3.47-1-5.19a1.32,1.32,0,1,1,2.59-.48c.31,1.7.66,3.43,1,5.13a1.32,1.32,0,0,1-1,1.56Zm-2-11.1a1.31,1.31,0,0,1-1.3-1.11c-.27-1.74-.52-3.51-.75-5.24a1.32,1.32,0,1,1,2.61-.34c.22,1.71.47,3.45.74,5.17a1.32,1.32,0,0,1-1.1,1.51Zm-1.43-11.18a1.32,1.32,0,0,1-1.31-1.19c-.18-1.75-.33-3.53-.46-5.28a1.32,1.32,0,0,1,2.63-.19c.12,1.73.28,3.48.45,5.21a1.32,1.32,0,0,1-1.18,1.44Zm-.8-11.25a1.32,1.32,0,0,1-1.31-1.26c-.07-1.76-.12-3.54-.15-5.3a1.31,1.31,0,0,1,1.3-1.33h0a1.31,1.31,0,0,1,1.32,1.29c0,1.74.07,3.49.14,5.23a1.32,1.32,0,0,1-1.26,1.37Zm-.13-11.28h0a1.3,1.3,0,0,1-1.29-1.34c0-1.76.09-3.54.17-5.3a1.32,1.32,0,0,1,2.63.12c-.08,1.74-.14,3.49-.17,5.23A1.31,1.31,0,0,1,103.63,359.53Zm.56-11.27h-.11a1.33,1.33,0,0,1-1.21-1.42c.14-1.76.31-3.53.5-5.28a1.32,1.32,0,1,1,2.62.29c-.19,1.72-.36,3.47-.49,5.2A1.32,1.32,0,0,1,104.19,348.26Zm1.24-11.21-.19,0a1.32,1.32,0,0,1-1.11-1.49c.25-1.74.52-3.5.82-5.24a1.32,1.32,0,0,1,2.6.45c-.3,1.71-.57,3.45-.82,5.17A1.31,1.31,0,0,1,105.43,337.05Zm1.94-11.12-.26,0a1.31,1.31,0,0,1-1-1.55c.36-1.73.75-3.47,1.16-5.18a1.31,1.31,0,0,1,1.58-1,1.33,1.33,0,0,1,1,1.59c-.4,1.69-.79,3.4-1.14,5.1A1.32,1.32,0,0,1,107.37,325.93ZM110,315a1.34,1.34,0,0,1-.35,0,1.31,1.31,0,0,1-.92-1.62c.46-1.7,1-3.41,1.47-5.09a1.31,1.31,0,0,1,1.64-.88,1.33,1.33,0,0,1,.87,1.65c-.5,1.65-1,3.34-1.45,5A1.32,1.32,0,0,1,110,315Zm3.3-10.79a1.29,1.29,0,0,1-.43-.07,1.32,1.32,0,0,1-.82-1.67c.57-1.66,1.16-3.34,1.78-5a1.32,1.32,0,0,1,1.69-.78,1.33,1.33,0,0,1,.78,1.7c-.61,1.63-1.2,3.28-1.76,4.92A1.3,1.3,0,0,1,113.31,304.17Zm4-10.56a1.24,1.24,0,0,1-.5-.1,1.31,1.31,0,0,1-.72-1.71l.54-1.33c.5-1.19,1-2.39,1.53-3.55a1.32,1.32,0,0,1,2.41,1.06c-.51,1.15-1,2.33-1.51,3.5l-.54,1.31A1.31,1.31,0,0,1,117.26,293.61Zm4.58-10.3a1.28,1.28,0,0,1-.57-.13,1.32,1.32,0,0,1-.61-1.76c.77-1.59,1.58-3.18,2.39-4.73a1.32,1.32,0,1,1,2.33,1.22c-.8,1.53-1.59,3.09-2.35,4.66A1.32,1.32,0,0,1,121.84,283.31Zm5.27-10a1.32,1.32,0,0,1-1.13-2c.88-1.54,1.8-3.07,2.72-4.56a1.32,1.32,0,0,1,2.24,1.4c-.91,1.45-1.81,3-2.68,4.47A1.34,1.34,0,0,1,127.11,273.35Zm6-9.55a1.25,1.25,0,0,1-.74-.23,1.32,1.32,0,0,1-.35-1.83c1-1.46,2-2.91,3.06-4.33A1.32,1.32,0,0,1,137.2,259c-1,1.39-2,2.82-3,4.25A1.31,1.31,0,0,1,133.1,263.8Zm6.7-9.06a1.37,1.37,0,0,1-.83-.29,1.33,1.33,0,0,1-.2-1.85c1.11-1.38,2.25-2.75,3.41-4.08a1.31,1.31,0,1,1,2,1.73c-1.13,1.3-2.25,2.65-3.34,4A1.32,1.32,0,0,1,139.8,254.74Zm7.41-8.49a1.31,1.31,0,0,1-1-2.22c1.22-1.28,2.47-2.55,3.73-3.78a1.32,1.32,0,0,1,1.84,1.88c-1.24,1.21-2.47,2.46-3.66,3.71A1.29,1.29,0,0,1,147.21,246.25Zm8.09-7.84a1.32,1.32,0,0,1-.88-2.3c1.32-1.17,2.68-2.34,4-3.46a1.31,1.31,0,0,1,1.67,2c-1.33,1.1-2.67,2.24-3.95,3.39A1.32,1.32,0,0,1,155.3,238.41Zm8.72-7.14a1.3,1.3,0,0,1-1.05-.53,1.31,1.31,0,0,1,.26-1.84c1.41-1.06,2.86-2.1,4.31-3.11A1.32,1.32,0,0,1,169,228c-1.43,1-2.85,2-4.23,3A1.28,1.28,0,0,1,164,231.27Zm9.29-6.39a1.32,1.32,0,0,1-.7-2.43c1.49-.93,3-1.86,4.55-2.74a1.32,1.32,0,0,1,1.32,2.28c-1.51.87-3,1.77-4.47,2.69A1.29,1.29,0,0,1,173.31,224.88Zm9.78-5.61a1.31,1.31,0,0,1-.61-2.48c1.56-.81,3.16-1.61,4.75-2.37a1.31,1.31,0,1,1,1.13,2.37c-1.56.75-3.13,1.54-4.66,2.33A1.22,1.22,0,0,1,183.09,219.27Zm10.19-4.83a1.31,1.31,0,0,1-.52-2.52c1.61-.69,3.26-1.37,4.91-2a1.32,1.32,0,1,1,1,2.45c-1.62.63-3.25,1.3-4.83,2A1.37,1.37,0,0,1,193.28,214.44Zm10.52-4.06a1.32,1.32,0,0,1-.43-2.56c1.65-.57,3.34-1.13,5-1.66a1.32,1.32,0,0,1,.78,2.52c-1.67.52-3.34,1.06-5,1.63A1.33,1.33,0,0,1,203.8,210.38Zm10.77-3.33a1.31,1.31,0,0,1-.34-2.58c1.69-.46,3.41-.9,5.14-1.32a1.32,1.32,0,0,1,.61,2.56c-1.69.41-3.4.84-5.06,1.3A1.39,1.39,0,0,1,214.57,207.05Zm105.85-1.32a1.24,1.24,0,0,1-.33,0s-1.84-.46-5.08-1.11a1.31,1.31,0,1,1,.51-2.58c3.32.66,5.14,1.12,5.22,1.14a1.32,1.32,0,0,1-.32,2.59Zm-94.88-1.3a1.31,1.31,0,0,1-.26-2.6c1.71-.35,3.46-.69,5.21-1a1.32,1.32,0,0,1,.46,2.59c-1.72.31-3.45.64-5.14,1Zm83.8-.9-.22,0c-1.68-.28-3.42-.55-5.17-.8a1.32,1.32,0,1,1,.37-2.61c1.77.26,3.53.53,5.24.82a1.31,1.31,0,0,1,1.08,1.51A1.33,1.33,0,0,1,309.34,203.53Zm-72.68-1.05a1.32,1.32,0,0,1-.19-2.62c1.73-.25,3.5-.49,5.25-.7a1.31,1.31,0,1,1,.31,2.61c-1.73.21-3.47.44-5.18.69Zm61.51-.54H298c-1.72-.2-3.47-.39-5.2-.56a1.32,1.32,0,1,1,.25-2.62c1.75.17,3.52.36,5.26.57a1.31,1.31,0,0,1-.15,2.62Zm-50.31-.79a1.32,1.32,0,0,1-.12-2.63c1.75-.16,3.52-.3,5.28-.42a1.31,1.31,0,1,1,.18,2.62c-1.74.12-3.49.26-5.22.42Zm39.08-.28h-.1c-1.73-.13-3.49-.24-5.23-.33a1.32,1.32,0,0,1,.14-2.63c1.75.09,3.53.2,5.28.33a1.32,1.32,0,0,1-.09,2.63Zm-27.82-.47a1.32,1.32,0,0,1-.05-2.63c1.75-.07,3.53-.12,5.29-.16a1.32,1.32,0,0,1,1.34,1.29,1.3,1.3,0,0,1-1.29,1.34c-1.74,0-3.51.09-5.23.16Zm16.55-.1h0c-1.74-.05-3.5-.08-5.23-.09a1.32,1.32,0,1,1,0-2.63c1.75,0,3.53,0,5.3.09a1.32,1.32,0,0,1,0,2.63Z"/><path class="cls-3" d="M700.1,397.46a1.24,1.24,0,0,1-.46-.08,1.32,1.32,0,0,1-.77-1.7c.25-.66.49-1.33.74-2a1.31,1.31,0,1,1,2.47.9c-.25.67-.49,1.34-.75,2A1.3,1.3,0,0,1,700.1,397.46Zm2.73-7.69a1.23,1.23,0,0,1-.42-.07,1.31,1.31,0,0,1-.83-1.66c.55-1.66,1.09-3.33,1.6-5a1.32,1.32,0,0,1,2.52.78c-.52,1.66-1.06,3.36-1.63,5A1.29,1.29,0,0,1,702.83,389.77ZM706.14,379a1.12,1.12,0,0,1-.36-.05,1.31,1.31,0,0,1-.91-1.62c.47-1.68.92-3.38,1.34-5.05a1.31,1.31,0,1,1,2.55.64c-.42,1.69-.88,3.42-1.36,5.12A1.31,1.31,0,0,1,706.14,379Zm2.73-10.94a1.33,1.33,0,0,1-.28,0,1.32,1.32,0,0,1-1-1.57c.37-1.7.73-3.42,1.06-5.12a1.31,1.31,0,0,1,2.58.5c-.33,1.72-.69,3.47-1.07,5.19A1.32,1.32,0,0,1,708.87,368.05ZM711,357h-.21a1.33,1.33,0,0,1-1.1-1.51c.28-1.72.53-3.46.76-5.17a1.32,1.32,0,1,1,2.61.34c-.23,1.73-.49,3.5-.77,5.24A1.31,1.31,0,0,1,711,357Zm1.44-11.18h-.13a1.32,1.32,0,0,1-1.18-1.44c.16-1.73.31-3.48.42-5.2a1.32,1.32,0,1,1,2.63.17c-.12,1.75-.26,3.53-.43,5.29A1.32,1.32,0,0,1,712.43,345.79Zm.73-11.26h0a1.32,1.32,0,0,1-1.27-1.35c0-1.75.08-3.5.08-5.23a1.32,1.32,0,0,1,1.32-1.31h0a1.31,1.31,0,0,1,1.31,1.31c0,1.76,0,3.54-.08,5.31A1.31,1.31,0,0,1,713.16,334.53Zm0-11.27a1.32,1.32,0,0,1-1.32-1.27c-.06-1.74-.15-3.5-.27-5.21a1.31,1.31,0,1,1,2.62-.18c.13,1.74.22,3.52.29,5.29a1.33,1.33,0,0,1-1.27,1.37ZM712.32,312a1.33,1.33,0,0,1-1.31-1.17c-.18-1.73-.4-3.47-.64-5.18a1.31,1.31,0,1,1,2.6-.37c.25,1.74.47,3.51.66,5.27a1.31,1.31,0,0,1-1.17,1.45Zm-1.61-11.15a1.33,1.33,0,0,1-1.3-1.08c-.31-1.71-.65-3.43-1-5.12a1.32,1.32,0,0,1,2.58-.56c.37,1.72.72,3.47,1,5.21a1.32,1.32,0,0,1-1.06,1.53Zm-2.42-11a1.32,1.32,0,0,1-1.28-1c-.43-1.67-.9-3.36-1.39-5a1.32,1.32,0,0,1,.89-1.64,1.3,1.3,0,0,1,1.63.89c.5,1.69,1,3.41,1.42,5.11a1.32,1.32,0,0,1-.94,1.61A1.24,1.24,0,0,1,708.29,289.85Zm-3.23-10.8a1.31,1.31,0,0,1-1.24-.89c-.56-1.65-1.16-3.3-1.77-4.91a1.33,1.33,0,0,1,.77-1.7,1.3,1.3,0,0,1,1.69.76c.63,1.65,1.23,3.33,1.8,5a1.32,1.32,0,0,1-.83,1.67A1.23,1.23,0,0,1,705.06,279.05Zm-4-10.54a1.33,1.33,0,0,1-1.22-.8c-.67-1.59-1.38-3.2-2.11-4.77a1.31,1.31,0,1,1,2.38-1.11c.75,1.6,1.47,3.23,2.16,4.85a1.31,1.31,0,0,1-1.21,1.83Zm-4.78-10.21a1.3,1.3,0,0,1-1.17-.72c-.79-1.53-1.61-3.08-2.46-4.6a1.32,1.32,0,0,1,2.3-1.28c.86,1.55,1.7,3.12,2.5,4.68a1.33,1.33,0,0,1-.57,1.78A1.42,1.42,0,0,1,696.27,258.3Zm-5.49-9.85a1.31,1.31,0,0,1-1.13-.63c-.9-1.48-1.83-3-2.78-4.42a1.32,1.32,0,0,1,2.21-1.44c1,1.48,1.91,3,2.82,4.5a1.3,1.3,0,0,1-.44,1.8A1.32,1.32,0,0,1,690.78,248.45ZM684.6,239a1.31,1.31,0,0,1-1.08-.56c-1-1.41-2-2.83-3.08-4.22a1.32,1.32,0,0,1,2.11-1.58c1.06,1.41,2.11,2.85,3.12,4.29a1.31,1.31,0,0,1-.31,1.83A1.34,1.34,0,0,1,684.6,239Zm-6.81-9a1.31,1.31,0,0,1-1-.48c-1.09-1.35-2.22-2.7-3.35-4a1.32,1.32,0,1,1,2-1.73c1.15,1.33,2.29,2.7,3.41,4.07a1.33,1.33,0,0,1-.19,1.85A1.31,1.31,0,0,1,677.79,230Zm-7.41-8.51a1.31,1.31,0,0,1-1-.42c-1.18-1.27-2.4-2.53-3.62-3.77a1.32,1.32,0,1,1,1.87-1.85c1.24,1.25,2.48,2.54,3.68,3.83a1.32,1.32,0,0,1-.07,1.86A1.29,1.29,0,0,1,670.38,221.52Zm-8-8a1.3,1.3,0,0,1-.9-.36c-1.26-1.19-2.56-2.37-3.86-3.52a1.32,1.32,0,0,1,1.75-2c1.32,1.17,2.63,2.37,3.91,3.58a1.31,1.31,0,0,1,.06,1.86A1.33,1.33,0,0,1,662.43,213.52ZM654,206.06a1.35,1.35,0,0,1-.84-.3c-1.33-1.11-2.71-2.21-4.08-3.27a1.32,1.32,0,0,1,1.62-2.08c1.39,1.08,2.78,2.19,4.14,3.32a1.32,1.32,0,0,1,.18,1.85A1.34,1.34,0,0,1,654,206.06ZM645,199.17a1.29,1.29,0,0,1-.77-.25c-1.41-1-2.85-2-4.29-3a1.32,1.32,0,0,1,1.47-2.19c1.46,1,2.92,2,4.36,3a1.32,1.32,0,0,1-.77,2.39Zm-189.35-4.41a1.32,1.32,0,0,1-.42-2.57s1.85-.62,5.07-1.63a1.31,1.31,0,0,1,.78,2.51c-3.18,1-5,1.61-5,1.62A1.61,1.61,0,0,1,455.69,194.76Zm180-1.86a1.38,1.38,0,0,1-.7-.2c-1.47-.92-3-1.82-4.48-2.67a1.32,1.32,0,1,1,1.31-2.29c1.52.88,3.06,1.79,4.56,2.72a1.32,1.32,0,0,1-.69,2.44Zm-169.17-1.53a1.32,1.32,0,0,1-.37-2.58c1.66-.49,3.37-1,5.08-1.47a1.32,1.32,0,0,1,.72,2.53c-1.7.48-3.4,1-5.05,1.47A1.65,1.65,0,0,1,466.49,191.37Zm10.87-3.09a1.31,1.31,0,0,1-.34-2.58c1.69-.47,3.41-.92,5.1-1.36a1.31,1.31,0,1,1,.67,2.54l-5.08,1.36A1.39,1.39,0,0,1,477.36,188.28Zm148.49-1a1.29,1.29,0,0,1-.6-.14c-1.56-.81-3.13-1.6-4.68-2.33a1.32,1.32,0,0,1,1.13-2.38c1.57.75,3.18,1.55,4.76,2.37a1.32,1.32,0,0,1,.56,1.78A1.3,1.3,0,0,1,625.85,187.31Zm-137.56-1.87a1.31,1.31,0,0,1-.31-2.59c1.7-.43,3.43-.85,5.13-1.25a1.32,1.32,0,1,1,.61,2.56c-1.69.4-3.41.82-5.11,1.24A1.17,1.17,0,0,1,488.29,185.44Zm11-2.59a1.32,1.32,0,0,1-.28-2.6c1.72-.39,3.46-.77,5.16-1.13a1.32,1.32,0,0,1,.55,2.58c-1.7.36-3.43.73-5.14,1.12A1.36,1.36,0,0,1,499.28,182.85Zm116.36-.33a1.32,1.32,0,0,1-.51-.1c-1.62-.68-3.25-1.32-4.85-1.9a1.32,1.32,0,1,1,.91-2.47c1.63.59,3.3,1.25,4.95,1.94a1.32,1.32,0,0,1-.5,2.53Zm-105.31-2a1.32,1.32,0,0,1-.25-2.61c1.73-.34,3.48-.68,5.19-1a1.32,1.32,0,0,1,.48,2.59c-1.7.31-3.44.64-5.16,1A1.15,1.15,0,0,1,510.33,180.52Zm94.7-1.83a1.21,1.21,0,0,1-.38-.06l-.19,0c-1.55-.47-3.17-.9-4.82-1.29a1.33,1.33,0,0,1-1-1.59,1.31,1.31,0,0,1,1.59-1c1.7.4,3.37.85,5,1.33l.18.05a1.32,1.32,0,0,1-.37,2.58Zm-83.59-.21a1.32,1.32,0,0,1-.22-2.62l5.22-.85a1.32,1.32,0,0,1,.4,2.61c-1.7.26-3.44.54-5.18.84Zm11.16-1.72a1.32,1.32,0,0,1-.18-2.62c1.76-.25,3.52-.48,5.23-.68a1.31,1.31,0,1,1,.32,2.61c-1.7.21-3.45.43-5.19.67Zm61.45-.65-.23,0c-1.66-.3-3.39-.56-5.14-.79a1.32,1.32,0,0,1-1.13-1.48,1.3,1.3,0,0,1,1.47-1.13c1.79.23,3.56.5,5.26.8a1.32,1.32,0,0,1-.23,2.62Zm-50.26-.7a1.32,1.32,0,0,1-.13-2.63c1.77-.18,3.54-.34,5.27-.49a1.31,1.31,0,1,1,.22,2.62c-1.71.15-3.47.31-5.22.49Zm39.08-.75h-.12c-1.69-.15-3.44-.27-5.2-.36a1.32,1.32,0,0,1,.13-2.63c1.8.09,3.58.21,5.3.36a1.32,1.32,0,0,1-.11,2.63Zm-27.82-.17a1.32,1.32,0,0,1-.07-2.63c1.77-.11,3.55-.2,5.29-.27a1.32,1.32,0,0,1,.1,2.63c-1.72.07-3.48.16-5.24.26Zm16.55-.39h0c-1.72,0-3.48,0-5.23,0a1.32,1.32,0,0,1,0-2.63c1.78,0,3.56,0,5.3,0a1.32,1.32,0,0,1,0,2.64Z"/><path class="cls-3" d="M259.73,205.73a1.43,1.43,0,0,1-.29,0,1.32,1.32,0,0,1-1-1.57c0-.08.46-2,1.52-5.22a1.31,1.31,0,1,1,2.49.83c-1,3.06-1.43,4.95-1.44,5A1.31,1.31,0,0,1,259.73,205.73Zm162.4-10a1.32,1.32,0,0,1-1.27-1s-.32-1.16-1-3.09a1.32,1.32,0,1,1,2.47-.91c.76,2.05,1.09,3.27,1.1,3.32a1.31,1.31,0,0,1-.93,1.61A1.33,1.33,0,0,1,422.13,195.77ZM263.28,195a1.23,1.23,0,0,1-.49-.1,1.32,1.32,0,0,1-.73-1.71c.66-1.64,1.37-3.29,2.12-4.9a1.32,1.32,0,0,1,2.39,1.1c-.73,1.58-1.43,3.19-2.07,4.78A1.3,1.3,0,0,1,263.28,195Zm155.44-8a1.3,1.3,0,0,1-1.19-.76c-.73-1.54-1.53-3.1-2.37-4.61a1.32,1.32,0,0,1,.51-1.79,1.3,1.3,0,0,1,1.79.51c.87,1.57,1.69,3.17,2.45,4.77a1.31,1.31,0,0,1-.63,1.75A1.39,1.39,0,0,1,418.72,187Zm-150.65-2.26a1.32,1.32,0,0,1-1.16-1.94c.84-1.57,1.73-3.13,2.65-4.64a1.32,1.32,0,0,1,2.25,1.37c-.89,1.46-1.76,3-2.58,4.51A1.31,1.31,0,0,1,268.07,184.75Zm145.13-7.59a1.3,1.3,0,0,1-1.1-.6c-.94-1.44-1.94-2.87-3-4.24a1.32,1.32,0,1,1,2.11-1.58c1.06,1.42,2.1,2.89,3.07,4.38a1.31,1.31,0,0,1-.38,1.82A1.27,1.27,0,0,1,413.2,177.16Zm-139.23-2a1.32,1.32,0,0,1-1.08-2.07c1-1.47,2.09-2.91,3.18-4.3a1.32,1.32,0,0,1,2.07,1.63c-1.06,1.35-2.1,2.75-3.09,4.17A1.33,1.33,0,0,1,274,175.13Zm132.42-7a1.33,1.33,0,0,1-1-.45c-1.14-1.3-2.33-2.57-3.54-3.79a1.32,1.32,0,0,1,1.87-1.86c1.25,1.26,2.48,2.57,3.65,3.91a1.32,1.32,0,0,1-1,2.19ZM281,166.3a1.33,1.33,0,0,1-.88-.34,1.31,1.31,0,0,1-.09-1.86c1.2-1.33,2.45-2.62,3.71-3.85a1.32,1.32,0,0,1,1.86,0,1.3,1.3,0,0,1,0,1.86c-1.22,1.19-2.43,2.44-3.6,3.73A1.32,1.32,0,0,1,281,166.3Zm117.39-6.07a1.29,1.29,0,0,1-.85-.31c-1.31-1.12-2.67-2.21-4-3.23a1.32,1.32,0,1,1,1.57-2.11c1.42,1.06,2.83,2.18,4.18,3.34a1.31,1.31,0,0,1,.14,1.85A1.29,1.29,0,0,1,398.38,160.23Zm-109.26-1.74a1.32,1.32,0,0,1-.84-2.33c1.37-1.14,2.79-2.24,4.22-3.28A1.32,1.32,0,1,1,294,155c-1.38,1-2.75,2.06-4.08,3.17A1.33,1.33,0,0,1,289.12,158.49Zm100.19-4.94a1.29,1.29,0,0,1-.7-.2c-1.45-.91-2.95-1.78-4.47-2.6a1.32,1.32,0,0,1-.54-1.78,1.33,1.33,0,0,1,1.79-.54c1.56.85,3.12,1.75,4.62,2.69a1.31,1.31,0,0,1,.41,1.82A1.29,1.29,0,0,1,389.31,153.55Zm-91-1.6a1.32,1.32,0,0,1-.68-2.45c1.52-.92,3.09-1.8,4.67-2.61a1.31,1.31,0,0,1,1.2,2.34c-1.52.79-3,1.64-4.5,2.52A1.34,1.34,0,0,1,298.28,152Zm81.08-3.68a1.29,1.29,0,0,1-.53-.11c-1.56-.69-3.17-1.34-4.79-1.94a1.31,1.31,0,1,1,.9-2.47c1.68.62,3.34,1.29,5,2a1.32,1.32,0,0,1-.54,2.52Zm-71-1.41a1.32,1.32,0,0,1-.5-2.54c1.63-.67,3.32-1.3,5-1.87a1.31,1.31,0,1,1,.84,2.49c-1.63.55-3.26,1.16-4.83,1.82A1.54,1.54,0,0,1,308.32,146.86Zm60.46-2.42a1.64,1.64,0,0,1-.37-.05c-1.63-.47-3.32-.91-5-1.29a1.31,1.31,0,1,1,.57-2.56c1.75.39,3.48.83,5.17,1.32a1.32,1.32,0,0,1-.36,2.58ZM319,143.32a1.32,1.32,0,0,1-.33-2.59c1.71-.43,3.46-.81,5.22-1.14a1.32,1.32,0,0,1,.48,2.59c-1.7.32-3.4.69-5.05,1.1A1.22,1.22,0,0,1,319,143.32ZM357.79,142l-.21,0c-1.68-.27-3.42-.49-5.15-.68a1.31,1.31,0,1,1,.28-2.61c1.78.18,3.55.42,5.28.69a1.32,1.32,0,0,1-.2,2.62Zm-27.71-.69a1.31,1.31,0,0,1-.15-2.62c1.74-.2,3.53-.35,5.31-.45a1.31,1.31,0,1,1,.15,2.62c-1.73.1-3.47.25-5.16.44Zm16.5-.46h-.06c-1.7-.09-3.45-.13-5.2-.14a1.32,1.32,0,0,1,0-2.63h0c1.79,0,3.58,0,5.32.14a1.32,1.32,0,0,1-.07,2.63Z"/><path class="cls-3" d="M70.21,641.35C142.42,755.61,269.85,831.48,415,831.48s272.58-75.87,344.79-190.13Z"/><ellipse class="cls-4" cx="415.3" cy="655.61" rx="195.94" ry="19.41"/><path class="cls-5" d="M600.26,195.68V630.46a18.71,18.71,0,0,1-18.72,18.71H254.29a18.7,18.7,0,0,1-18.72-18.71V195.68A18.73,18.73,0,0,1,254.29,177H581.54a18.72,18.72,0,0,1,18.72,18.72Z"/><path class="cls-6" d="M600.26,195.68V630.46a18.71,18.71,0,0,1-18.72,18.71H254.29A18.63,18.63,0,0,1,242.45,645L596.39,184.28A18.63,18.63,0,0,1,600.26,195.68Z"/><path class="cls-7" d="M480,202.84H333.22a3.87,3.87,0,0,1-3.85-3.86h0a3.86,3.86,0,0,1,3.85-3.85H480a3.86,3.86,0,0,1,3.85,3.85h0A3.87,3.87,0,0,1,480,202.84Z"/><path class="cls-7" d="M506.42,198.33a3.86,3.86,0,1,1-3.15-3.14A3.86,3.86,0,0,1,506.42,198.33Z"/><rect class="cls-8" x="263.14" y="221.73" width="310.09" height="402.5" rx="7.47"/><path class="cls-3" d="M573.23,229.2V261H263.14V229.2a7.47,7.47,0,0,1,7.47-7.47H565.75A7.47,7.47,0,0,1,573.23,229.2Z"/><path class="cls-8" d="M550.73,238.28H328.45c-2.94,0-5.48,1.8-5.6,4.14s2.35,4.52,5.43,4.52H550.73c3,0,5.44-1.94,5.44-4.33h0C556.17,240.22,553.74,238.28,550.73,238.28Z"/><path class="cls-5" d="M288.86,242.61v3.21a1.2,1.2,0,0,1-1.8,1l-2.77-1.61-2.78-1.6a1.19,1.19,0,0,1,0-2.07l2.78-1.61,2.77-1.6a1.2,1.2,0,0,1,1.8,1Z"/><path class="cls-5" d="M303.32,242.61v3.21a1.19,1.19,0,0,0,1.79,1l2.78-1.61,2.78-1.6a1.19,1.19,0,0,0,0-2.07L307.89,240l-2.78-1.6a1.19,1.19,0,0,0-1.79,1Z"/><path class="cls-3" d="M357,298.05H286.83a3.39,3.39,0,0,1-3.2-3.56h0a3.4,3.4,0,0,1,3.2-3.56H357a3.4,3.4,0,0,1,3.2,3.56h0A3.39,3.39,0,0,1,357,298.05Z"/><path class="cls-3" d="M357,316H286.83a3.39,3.39,0,0,1-3.2-3.56h0a3.4,3.4,0,0,1,3.2-3.56H357a3.4,3.4,0,0,1,3.2,3.56h0A3.39,3.39,0,0,1,357,316Z"/><path class="cls-3" d="M357,333.85H286.83a3.4,3.4,0,0,1-3.2-3.56h0a3.39,3.39,0,0,1,3.2-3.56H357a3.39,3.39,0,0,1,3.2,3.56h0A3.4,3.4,0,0,1,357,333.85Z"/><path class="cls-3" d="M357,351.74H286.83a3.39,3.39,0,0,1-3.2-3.55h0a3.39,3.39,0,0,1,3.2-3.56H357a3.39,3.39,0,0,1,3.2,3.56h0A3.39,3.39,0,0,1,357,351.74Z"/><path class="cls-3" d="M357,384.52H286.83a3.4,3.4,0,0,1-3.2-3.56h0a3.39,3.39,0,0,1,3.2-3.56H357a3.39,3.39,0,0,1,3.2,3.56h0A3.4,3.4,0,0,1,357,384.52Z"/><path class="cls-3" d="M357,402.41H286.83a3.39,3.39,0,0,1-3.2-3.55h0a3.39,3.39,0,0,1,3.2-3.56H357a3.39,3.39,0,0,1,3.2,3.56h0A3.39,3.39,0,0,1,357,402.41Z"/><path class="cls-3" d="M357,420.31H286.83a3.39,3.39,0,0,1-3.2-3.56h0a3.39,3.39,0,0,1,3.2-3.55H357a3.39,3.39,0,0,1,3.2,3.55h0A3.39,3.39,0,0,1,357,420.31Z"/><path class="cls-3" d="M357,438.21H286.83a3.39,3.39,0,0,1-3.2-3.56h0a3.4,3.4,0,0,1,3.2-3.56H357a3.4,3.4,0,0,1,3.2,3.56h0A3.39,3.39,0,0,1,357,438.21Z"/><path class="cls-3" d="M357,471.05H286.83a3.4,3.4,0,0,1-3.2-3.56h0a3.39,3.39,0,0,1,3.2-3.56H357a3.39,3.39,0,0,1,3.2,3.56h0A3.4,3.4,0,0,1,357,471.05Z"/><path class="cls-3" d="M357,488.94H286.83a3.39,3.39,0,0,1-3.2-3.55h0a3.39,3.39,0,0,1,3.2-3.56H357a3.39,3.39,0,0,1,3.2,3.56h0A3.39,3.39,0,0,1,357,488.94Z"/><path class="cls-3" d="M357,506.84H286.83a3.39,3.39,0,0,1-3.2-3.56h0a3.4,3.4,0,0,1,3.2-3.56H357a3.4,3.4,0,0,1,3.2,3.56h0A3.39,3.39,0,0,1,357,506.84Z"/><path class="cls-3" d="M357,524.74H286.83a3.39,3.39,0,0,1-3.2-3.56h0a3.4,3.4,0,0,1,3.2-3.56H357a3.4,3.4,0,0,1,3.2,3.56h0A3.39,3.39,0,0,1,357,524.74Z"/><rect class="cls-9" x="388.37" y="470.46" width="170.18" height="60.87" rx="9.34"/><rect class="cls-10" x="383.2" y="463.93" width="170.18" height="60.87" rx="9.34"/><path class="cls-11" d="M440.69,494a25.58,25.58,0,0,1-42.53,19.18,24.48,24.48,0,0,1-2.79-2.88A25.59,25.59,0,1,1,440.69,494Z"/><path class="cls-12" d="M424.91,487.69a9.82,9.82,0,1,1-9.81-9.82A9.81,9.81,0,0,1,424.91,487.69Z"/><path class="cls-12" d="M432,513.14a25.56,25.56,0,0,1-33.88,0,15,15,0,0,1,6.28-8.92,18.75,18.75,0,0,1,21.31,0A15,15,0,0,1,432,513.14Z"/><path class="cls-8" d="M451.36,488.61a1,1,0,0,1,.05-.16c.5-1.57,1-3.15,1.52-4.72a.18.18,0,0,0-.08-.24l-4.54-3.37a.42.42,0,0,1-.1-.12h.33L454,480c.1,0,.14,0,.17-.14q.81-2.54,1.64-5.08l0-.12a1,1,0,0,0,.06.14l1.89,5.19a.2.2,0,0,0,.22.15l5.1,0a.86.86,0,0,1,.22,0l-.11.08-4.42,3a.16.16,0,0,0-.08.23l1.79,5.19a.86.86,0,0,0,0,.15l-.2-.13L456,485.52a.17.17,0,0,0-.22,0l-4.31,3Z"/><path class="cls-8" d="M470.81,488.61a.53.53,0,0,1,0-.16c.51-1.57,1-3.15,1.52-4.72a.17.17,0,0,0-.08-.24l-4.53-3.37a.32.32,0,0,1-.11-.12H468l5.48-.05c.1,0,.14,0,.17-.14.55-1.69,1.09-3.38,1.64-5.08l0-.12a.73.73,0,0,1,.06.14l1.9,5.19c0,.12.09.15.22.15l5.1,0a.82.82,0,0,1,.21,0l-.11.08-4.42,3a.16.16,0,0,0-.08.23q.9,2.6,1.79,5.19a.86.86,0,0,1,0,.15l-.2-.13-4.35-3.08a.17.17,0,0,0-.22,0l-4.3,3Z"/><path class="cls-8" d="M490.25,488.61l0-.16c.51-1.57,1-3.15,1.53-4.72a.19.19,0,0,0-.09-.24l-4.53-3.37a.32.32,0,0,1-.11-.12h.33l5.48-.05c.11,0,.14,0,.18-.14q.81-2.54,1.63-5.08l0-.12a.73.73,0,0,1,.06.14q1,2.6,1.9,5.19c0,.12.09.15.22.15l5.1,0a.82.82,0,0,1,.21,0l-.11.08-4.42,3a.16.16,0,0,0-.08.23q.9,2.6,1.79,5.19a.86.86,0,0,1,.05.15l-.2-.13-4.34-3.08a.17.17,0,0,0-.22,0l-4.31,3Z"/><path class="cls-8" d="M509.69,488.61l0-.16,1.53-4.72a.18.18,0,0,0-.08-.24l-4.54-3.37a.31.31,0,0,1-.1-.12h.33l5.47-.05c.11,0,.15,0,.18-.14.54-1.69,1.09-3.38,1.63-5.08,0,0,0-.06.05-.12a1,1,0,0,0,.06.14l1.89,5.19a.19.19,0,0,0,.22.15l5.1,0a.9.9,0,0,1,.22,0l-.11.08-4.42,3c-.11.06-.12.12-.08.23l1.79,5.19,0,.15-.2-.13-4.34-3.08a.17.17,0,0,0-.22,0l-4.31,3Z"/><path class="cls-8" d="M529.13,488.61a1,1,0,0,1,0-.16c.5-1.57,1-3.15,1.52-4.72a.18.18,0,0,0-.08-.24l-4.54-3.37a.42.42,0,0,1-.1-.12h.33l5.48-.05c.1,0,.14,0,.17-.14.54-1.69,1.09-3.38,1.63-5.08a.48.48,0,0,0,0-.12,1,1,0,0,0,.06.14l1.89,5.19a.2.2,0,0,0,.22.15l5.1,0a.86.86,0,0,1,.22,0l-.11.08-4.42,3a.16.16,0,0,0-.08.23l1.79,5.19,0,.15-.19-.13-4.35-3.08a.17.17,0,0,0-.22,0l-4.31,3Z"/><rect class="cls-11" x="448.21" y="495.04" width="92.84" height="4.08" rx="2.04"/><path class="cls-11" d="M539,503.79H450.25a2,2,0,0,0-2,2h0a2,2,0,0,0,2,2H539a2,2,0,0,0,2-2h0A2,2,0,0,0,539,503.79Z"/><rect class="cls-13" x="388.37" y="297.4" width="170.18" height="60.87" rx="9.34"/><rect class="cls-14" x="383.2" y="290.87" width="170.18" height="60.87" rx="9.34"/><path class="cls-15" d="M440.69,320.91a25.59,25.59,0,0,1-42.53,19.18,24.57,24.57,0,0,1-2.79-2.89,25.59,25.59,0,1,1,45.32-16.29Z"/><path class="cls-16" d="M424.91,314.63a9.82,9.82,0,1,1-9.81-9.81A9.82,9.82,0,0,1,424.91,314.63Z"/><path class="cls-16" d="M432,340.09a25.59,25.59,0,0,1-33.88,0,15.06,15.06,0,0,1,6.28-8.93,18.75,18.75,0,0,1,21.31,0A15,15,0,0,1,432,340.09Z"/><path class="cls-8" d="M451.36,315.55c0-.06,0-.11.05-.16q.75-2.36,1.52-4.72a.18.18,0,0,0-.08-.24l-4.54-3.37a.55.55,0,0,1-.1-.11h.33l5.48-.06a.16.16,0,0,0,.17-.13q.81-2.55,1.64-5.08l0-.13a1,1,0,0,0,.06.14l1.89,5.19c.05.12.1.16.22.16l5.1,0a.58.58,0,0,1,.22,0l-.11.07-4.42,3a.17.17,0,0,0-.08.24c.6,1.72,1.19,3.45,1.79,5.18a1.26,1.26,0,0,0,0,.16l-.2-.14L456,312.46a.16.16,0,0,0-.22,0l-4.31,3Z"/><path class="cls-8" d="M470.81,315.55a.75.75,0,0,1,0-.16c.51-1.57,1-3.14,1.52-4.72a.17.17,0,0,0-.08-.24l-4.53-3.37a.38.38,0,0,1-.11-.11H468l5.48-.06a.16.16,0,0,0,.17-.13c.55-1.7,1.09-3.39,1.64-5.08l0-.13a.73.73,0,0,1,.06.14l1.9,5.19a.19.19,0,0,0,.22.16l5.1,0a.56.56,0,0,1,.21,0l-.11.07-4.42,3a.17.17,0,0,0-.08.24q.9,2.58,1.79,5.18a.76.76,0,0,1,0,.16l-.2-.14-4.35-3.08a.16.16,0,0,0-.22,0l-4.3,3Z"/><path class="cls-8" d="M490.25,315.55a1.24,1.24,0,0,0,0-.16c.51-1.57,1-3.14,1.53-4.72a.19.19,0,0,0-.09-.24l-4.53-3.37a.38.38,0,0,1-.11-.11h.33l5.48-.06c.11,0,.14,0,.18-.13q.81-2.55,1.63-5.08l0-.13a.73.73,0,0,1,.06.14q1,2.6,1.9,5.19a.19.19,0,0,0,.22.16l5.1,0a.56.56,0,0,1,.21,0l-.11.07-4.42,3a.17.17,0,0,0-.08.24q.9,2.58,1.79,5.18a.76.76,0,0,1,.05.16l-.2-.14-4.34-3.08a.16.16,0,0,0-.22,0l-4.31,3Z"/><path class="cls-8" d="M509.69,315.55a1.24,1.24,0,0,0,0-.16l1.53-4.72a.18.18,0,0,0-.08-.24l-4.54-3.37a.36.36,0,0,1-.1-.11h.33l5.47-.06a.16.16,0,0,0,.18-.13c.54-1.7,1.09-3.39,1.63-5.08,0,0,0-.07.05-.13a1,1,0,0,0,.06.14l1.89,5.19a.2.2,0,0,0,.22.16l5.1,0a.61.61,0,0,1,.22,0l-.11.07-4.42,3c-.11.07-.12.12-.08.24.6,1.72,1.19,3.45,1.79,5.18l0,.16-.2-.14-4.34-3.08a.16.16,0,0,0-.22,0l-4.31,3Z"/><path class="cls-8" d="M529.13,315.55c0-.06,0-.11,0-.16q.75-2.36,1.52-4.72a.18.18,0,0,0-.08-.24l-4.54-3.37a.55.55,0,0,1-.1-.11h.33l5.48-.06a.16.16,0,0,0,.17-.13c.54-1.7,1.09-3.39,1.63-5.08a.89.89,0,0,0,0-.13,1,1,0,0,0,.06.14l1.89,5.19c0,.12.1.16.22.16l5.1,0a.58.58,0,0,1,.22,0l-.11.07-4.42,3a.17.17,0,0,0-.08.24c.6,1.72,1.19,3.45,1.79,5.18l0,.16-.19-.14-4.35-3.08a.16.16,0,0,0-.22,0l-4.31,3Z"/><rect class="cls-15" x="448.21" y="321.98" width="92.84" height="4.08" rx="2.04"/><path class="cls-15" d="M539,330.73H450.25a2,2,0,0,0-2,2h0a2,2,0,0,0,2,2H539a2,2,0,0,0,2-2h0A2,2,0,0,0,539,330.73Z"/><rect class="cls-17" x="388.37" y="383.93" width="170.18" height="60.87" rx="9.34"/><rect class="cls-18" x="383.2" y="377.4" width="170.18" height="60.87" rx="9.34"/><path class="cls-19" d="M440.69,407.44a25.59,25.59,0,0,1-42.53,19.18,24.57,24.57,0,0,1-2.79-2.89,25.59,25.59,0,1,1,45.32-16.29Z"/><path class="cls-20" d="M424.91,401.16a9.82,9.82,0,1,1-9.81-9.82A9.81,9.81,0,0,1,424.91,401.16Z"/><path class="cls-20" d="M432,426.62a25.59,25.59,0,0,1-33.88,0,15,15,0,0,1,6.28-8.93,18.75,18.75,0,0,1,21.31,0A15,15,0,0,1,432,426.62Z"/><path class="cls-8" d="M451.36,402.08a1.56,1.56,0,0,1,.05-.16c.5-1.57,1-3.15,1.52-4.72a.18.18,0,0,0-.08-.24l-4.54-3.37a.42.42,0,0,1-.1-.12h.33l5.48-.05c.1,0,.14,0,.17-.14q.81-2.53,1.64-5.07l0-.13a1,1,0,0,0,.06.14l1.89,5.19a.2.2,0,0,0,.22.15l5.1,0a.58.58,0,0,1,.22,0l-.11.07-4.42,3a.17.17,0,0,0-.08.24c.6,1.72,1.19,3.45,1.79,5.18a1.26,1.26,0,0,0,0,.16l-.2-.14L456,399a.16.16,0,0,0-.22,0l-4.31,3Z"/><path class="cls-8" d="M470.81,402.08a.62.62,0,0,1,0-.16c.51-1.57,1-3.15,1.52-4.72a.17.17,0,0,0-.08-.24l-4.53-3.37a.32.32,0,0,1-.11-.12H468l5.48-.05c.1,0,.14,0,.17-.14.55-1.69,1.09-3.38,1.64-5.07l0-.13a.73.73,0,0,1,.06.14l1.9,5.19c0,.12.09.15.22.15l5.1,0a.56.56,0,0,1,.21,0l-.11.07-4.42,3a.17.17,0,0,0-.08.24q.9,2.58,1.79,5.18a.76.76,0,0,1,0,.16l-.2-.14L475.48,399a.16.16,0,0,0-.22,0l-4.3,3Z"/><path class="cls-8" d="M490.25,402.08l0-.16c.51-1.57,1-3.15,1.53-4.72a.19.19,0,0,0-.09-.24l-4.53-3.37a.32.32,0,0,1-.11-.12h.33l5.48-.05c.11,0,.14,0,.18-.14q.81-2.53,1.63-5.07l0-.13a.73.73,0,0,1,.06.14q1,2.59,1.9,5.19c0,.12.09.15.22.15l5.1,0a.56.56,0,0,1,.21,0l-.11.07-4.42,3a.17.17,0,0,0-.08.24q.9,2.58,1.79,5.18a.76.76,0,0,1,.05.16l-.2-.14L494.93,399a.16.16,0,0,0-.22,0l-4.31,3Z"/><path class="cls-8" d="M509.69,402.08c0-.07,0-.11,0-.16l1.53-4.72a.18.18,0,0,0-.08-.24l-4.54-3.37a.31.31,0,0,1-.1-.12h.33l5.47-.05c.11,0,.15,0,.18-.14.54-1.69,1.09-3.38,1.63-5.07,0,0,0-.07.05-.13a1,1,0,0,0,.06.14l1.89,5.19a.19.19,0,0,0,.22.15l5.1,0a.61.61,0,0,1,.22,0l-.11.07-4.42,3c-.11.07-.12.12-.08.24.6,1.72,1.19,3.45,1.79,5.18l0,.16-.2-.14L514.37,399a.16.16,0,0,0-.22,0l-4.31,3Z"/><path class="cls-8" d="M529.13,402.08a1.56,1.56,0,0,1,0-.16c.5-1.57,1-3.15,1.52-4.72a.18.18,0,0,0-.08-.24l-4.54-3.37a.42.42,0,0,1-.1-.12h.33l5.48-.05c.1,0,.14,0,.17-.14.54-1.69,1.09-3.38,1.63-5.07a.89.89,0,0,0,0-.13,1,1,0,0,0,.06.14l1.89,5.19a.2.2,0,0,0,.22.15l5.1,0a.58.58,0,0,1,.22,0l-.11.07-4.42,3a.17.17,0,0,0-.08.24c.6,1.72,1.19,3.45,1.79,5.18l0,.16-.19-.14L533.81,399a.16.16,0,0,0-.22,0l-4.31,3Z"/><rect class="cls-19" x="448.21" y="408.51" width="92.84" height="4.08" rx="2.04"/><path class="cls-19" d="M539,417.26H450.25a2,2,0,0,0-2,2h0a2,2,0,0,0,2,2H539a2,2,0,0,0,2-2h0A2,2,0,0,0,539,417.26Z"/><path class="cls-3" d="M282.9,594.2c.06-.23.09-.38.14-.53,1.66-5.15,3.31-10.3,5-15.44a.6.6,0,0,0-.27-.79l-14.84-11a1.07,1.07,0,0,1-.34-.38h1.08l17.92-.19a.5.5,0,0,0,.57-.43q2.66-8.32,5.35-16.62c0-.11.07-.22.14-.42.08.2.14.34.2.47q3.11,8.49,6.2,17a.63.63,0,0,0,.72.5l16.69-.1a2.55,2.55,0,0,1,.7.07l-.36.26q-7.23,4.91-14.47,9.8a.55.55,0,0,0-.26.78q3,8.48,5.87,17l.15.52-.65-.45q-7.12-5-14.22-10.09a.53.53,0,0,0-.72,0l-14.1,9.8Z"/><path class="cls-3" d="M340.5,594.2c.06-.23.09-.38.14-.53,1.66-5.15,3.31-10.3,5-15.44a.6.6,0,0,0-.27-.79l-14.84-11a1.09,1.09,0,0,1-.35-.38h1.08l17.93-.19a.5.5,0,0,0,.57-.43q2.65-8.32,5.35-16.62c0-.11.07-.22.14-.42l.19.47q3.12,8.49,6.21,17a.63.63,0,0,0,.72.5l16.68-.1a2.62,2.62,0,0,1,.71.07l-.36.26q-7.23,4.91-14.47,9.8a.55.55,0,0,0-.26.78q3,8.48,5.87,17c0,.13.07.27.14.52l-.65-.45q-7.11-5-14.21-10.09a.53.53,0,0,0-.72,0l-14.1,9.8Z"/><path class="cls-3" d="M398.1,594.2c.06-.23.09-.38.14-.53q2.49-7.73,5-15.44a.58.58,0,0,0-.26-.79l-14.84-11a1,1,0,0,1-.35-.38h1.08l17.93-.19a.5.5,0,0,0,.57-.43q2.65-8.32,5.35-16.62c0-.11.07-.22.14-.42l.19.47q3.11,8.49,6.21,17a.63.63,0,0,0,.72.5l16.68-.1a2.62,2.62,0,0,1,.71.07l-.36.26q-7.23,4.91-14.47,9.8a.55.55,0,0,0-.26.78c2,5.65,3.91,11.3,5.86,17,.05.13.08.27.15.52l-.65-.45q-7.11-5-14.21-10.09a.54.54,0,0,0-.73,0l-14.09,9.8Z"/><path class="cls-3" d="M455.7,594.2a4.85,4.85,0,0,1,.14-.53q2.48-7.73,5-15.44a.58.58,0,0,0-.26-.79l-14.84-11a1,1,0,0,1-.35-.38h1.08l17.92-.19c.35,0,.47-.11.58-.43q2.66-8.32,5.34-16.62l.15-.42.19.47c2.07,5.66,4.15,11.32,6.2,17a.64.64,0,0,0,.73.5l16.68-.1a2.62,2.62,0,0,1,.71.07l-.36.26q-7.23,4.91-14.47,9.8a.55.55,0,0,0-.26.78c2,5.65,3.91,11.3,5.86,17,0,.13.08.27.15.52l-.65-.45L471,584.07a.53.53,0,0,0-.72,0l-14.09,9.8Z"/><path class="cls-3" d="M513.29,594.2c.06-.23.1-.38.15-.53q2.47-7.73,5-15.44a.59.59,0,0,0-.26-.79q-7.44-5.51-14.84-11A1,1,0,0,1,503,566h1.08l17.92-.19c.35,0,.47-.11.58-.43q2.66-8.32,5.34-16.62c0-.11.08-.22.14-.42.09.2.15.34.2.47,2.07,5.66,4.15,11.32,6.2,17a.63.63,0,0,0,.72.5l16.69-.1a2.62,2.62,0,0,1,.71.07l-.36.26q-7.23,4.91-14.47,9.8a.55.55,0,0,0-.26.78c2,5.65,3.91,11.3,5.86,17,0,.13.08.27.15.52l-.65-.45L528.6,584.07a.53.53,0,0,0-.72,0l-14.09,9.8Z"/><path class="cls-21" d="M701.13,538.87h-116c1.91-11.64,11.14-20.09,21.9-20.06l36.08.11,36.09-.11C690,518.78,699.21,527.23,701.13,538.87Z"/><rect class="cls-21" x="594.28" y="537.2" width="6.32" height="107.74"/><rect class="cls-21" x="685.69" y="537.2" width="6.32" height="107.74"/><rect class="cls-22" x="600.6" y="567.5" width="85.09" height="6.09"/><path class="cls-23" d="M614.75,393.31s-19.37,25.83-22,48.36c-1.82,15.91,22,39.68,22,39.68l8.19-4.07-8.16-18.4c-2.91-9-6.48-12.5-3.84-21.55l5.91-12.74Z"/><path class="cls-23" d="M675.78,392.92s19.12,27.55,20.7,50.16c1.37,19.5-22,38.27-22,38.27L667.69,478l9.36-18.59c2.9-9,4.28-14.37.32-24.12l-5-10.69Z"/><path class="cls-24" d="M618.7,452.14,605.86,493s55.58,7.09,72.58,2.5L669.8,451l6-58.08a82.87,82.87,0,0,0-26.14-6.39c-13.14-.95-21.45,1.22-34.89,6.78Z"/><path class="cls-23" d="M632.59,405.63c12.26-1.44,23.67-9.86,24.19-10.25a.69.69,0,0,0,.14-1,.7.7,0,0,0-1-.14c-.13.1-13.56,10-26.47,10.18a.69.69,0,1,0,0,1.37A28.78,28.78,0,0,0,632.59,405.63Z"/><polygon class="cls-25" points="642.47 624.44 643.47 633.45 653.06 633.67 653.87 626.19 642.47 624.44"/><path class="cls-6" d="M641,481.46s-24.84-1.36-33.25,5.52-6.72,26.64,1.85,32,23.17,16,23.17,16l9.3,92.38,12.28.41S665.63,535,659.89,517,641,481.46,641,481.46Z"/><path class="cls-26" d="M655.45,623.21a10.23,10.23,0,0,1-.32,6.33L641,629.22a16.35,16.35,0,0,1-.27-6.19Z"/><path class="cls-8" d="M676.11,480.77H610.94l-6-35.23a5,5,0,0,1,4.93-5.83h67.37a5,5,0,0,1,4.93,5.83Z"/><path class="cls-3" d="M610.94,480.77h65.24a0,0,0,0,1,0,0v2.36a5.3,5.3,0,0,1-5.3,5.3H616.24a5.3,5.3,0,0,1-5.3-5.3v-2.36A0,0,0,0,1,610.94,480.77Z"/><path class="cls-3" d="M649.33,461.69a5.66,5.66,0,1,1-5.66-5.66A5.65,5.65,0,0,1,649.33,461.69Z"/><polygon class="cls-25" points="601.73 599.07 599.61 608 608.22 609.7 611.72 601.73 601.73 599.07"/><path class="cls-26" d="M653.58,479.93S637,474.2,627.2,486.24,601.12,600,601.12,600l11.2,4.62,36-90.3s29.3,16.73,32.85-7C684,488.42,653.58,479.93,653.58,479.93Z"/><path class="cls-7" d="M614.85,599.92A10.63,10.63,0,0,1,612.5,606l-13.76-4.87a16.82,16.82,0,0,1,1.73-6.16Z"/><path class="cls-24" d="M606.18,606.53s-5.22-2.65-6.76-2.95-14.21,8.7-17.81,8.61c-6.51-.16-8.6,9.4-4.89,10.71,10.71,3.76,30.53,3.3,30.53,3.3s4.4-11.91,4.49-15.92S609,608.33,606.18,606.53Z"/><path class="cls-8" d="M594.78,615a.78.78,0,0,0,.62,0,.75.75,0,0,0,.43-1,11.89,11.89,0,0,0-3.45-4.68,5.44,5.44,0,0,0-5.5-.53.75.75,0,0,0-.31,1,.8.8,0,0,0,1.06.31,3.92,3.92,0,0,1,3.87.44,10.49,10.49,0,0,1,2.88,4A.8.8,0,0,0,594.78,615Z"/><path class="cls-8" d="M597.38,613.23a.88.88,0,0,0,.62,0,.76.76,0,0,0,.43-1,11.89,11.89,0,0,0-3.45-4.68,5.47,5.47,0,0,0-5.5-.53.76.76,0,0,0-.31,1,.8.8,0,0,0,1.06.31,3.9,3.9,0,0,1,3.87.43,10.57,10.57,0,0,1,2.88,4A.82.82,0,0,0,597.38,613.23Z"/><path class="cls-8" d="M591.42,616.32a.85.85,0,0,0,.61,0,.77.77,0,0,0,.44-1,12,12,0,0,0-3.45-4.68,5.47,5.47,0,0,0-5.5-.53.75.75,0,0,0-.31,1,.8.8,0,0,0,1.06.31,3.9,3.9,0,0,1,3.87.43,10.57,10.57,0,0,1,2.88,4A.78.78,0,0,0,591.42,616.32Z"/><path class="cls-24" d="M647.17,633.08a50.14,50.14,0,0,1,6.83-1.65c1.5,0,11.91,10.52,15.3,11,6.15.93,6.52,10.26,2.83,10.87-10.69,1.76-29.23-2-29.23-2s-2.16-11.91-1.57-15.7S644.22,634.3,647.17,633.08Z"/><path class="cls-8" d="M656.46,643a.74.74,0,0,1-.58-.08.72.72,0,0,1-.24-1,11.3,11.3,0,0,1,4-3.82,5.22,5.22,0,0,1,5.25.41.73.73,0,0,1,.12,1,.76.76,0,0,1-1,.11,3.74,3.74,0,0,0-3.7-.23,9.93,9.93,0,0,0-3.37,3.27A.72.72,0,0,1,656.46,643Z"/><path class="cls-8" d="M654.32,640.83a.79.79,0,0,1-.58-.09.71.71,0,0,1-.24-1,11.32,11.32,0,0,1,4-3.83,5.2,5.2,0,0,1,5.26.42.71.71,0,0,1,.11,1,.74.74,0,0,1-1,.12,3.68,3.68,0,0,0-3.7-.23,10.11,10.11,0,0,0-3.38,3.26A.73.73,0,0,1,654.32,640.83Z"/><path class="cls-8" d="M659.41,644.72a.75.75,0,0,1-.58-.09.71.71,0,0,1-.24-1,11.32,11.32,0,0,1,4-3.83,5.23,5.23,0,0,1,5.26.42.71.71,0,0,1,.11,1,.74.74,0,0,1-1,.12,3.72,3.72,0,0,0-3.71-.23,10.14,10.14,0,0,0-3.37,3.26A.73.73,0,0,1,659.41,644.72Z"/><path class="cls-26" d="M661.67,335.06s7.91,12.24,7,25,1.16,27.48-10.25,26.83-31.76,4.58-38.23-5.36S661.67,335.06,661.67,335.06Z"/><path class="cls-27" d="M664.6,357.57s2,18.49-6.72,23.57-15.12-.59-15.12-.59S661.25,354.79,664.6,357.57Z"/><path class="cls-28" d="M628.17,357.49s-3.15-4.2-5.49-.73,1,13.73,6.7,11.22Z"/><path class="cls-29" d="M628.13,364.81a.49.49,0,0,1-.47-.35,7.47,7.47,0,0,0-4.2-4.46.49.49,0,0,1-.28-.63.48.48,0,0,1,.62-.28,8.32,8.32,0,0,1,4.79,5.11.48.48,0,0,1-.33.6Z"/><path class="cls-29" d="M624.82,363.22a.53.53,0,0,1-.27-.08.48.48,0,0,1-.14-.67,4.31,4.31,0,0,1,1.82-1.46.48.48,0,1,1,.39.88,3.51,3.51,0,0,0-1.4,1.11A.49.49,0,0,1,624.82,363.22Z"/><path class="cls-28" d="M660.62,357.49s3.15-4.2,5.5-.73-1,13.73-6.71,11.22Z"/><path class="cls-29" d="M660.67,364.81a.48.48,0,0,0,.46-.35,7.47,7.47,0,0,1,4.2-4.46.49.49,0,0,0,.28-.63.48.48,0,0,0-.62-.28,8.35,8.35,0,0,0-4.79,5.11.49.49,0,0,0,.33.6Z"/><path class="cls-29" d="M664,363.22a.5.5,0,0,0,.26-.08.48.48,0,0,0,.14-.67,4.31,4.31,0,0,0-1.82-1.46.48.48,0,1,0-.39.88,3.51,3.51,0,0,1,1.4,1.11A.49.49,0,0,0,664,363.22Z"/><path class="cls-25" d="M652.15,376.68v10.2s-3,5.2-7.16,5.55-7.76-4.47-7.76-4.47V377.4Z"/><path class="cls-28" d="M652.15,376.68v4.53c-2.76,3.06-7.66,4.15-14.92,3.07V377.4Z"/><path class="cls-25" d="M662.9,350.49a98.65,98.65,0,0,1-1.32,12.88c-.19,1-.4,1.92-.64,2.75-2.15,7.52-7.52,20.41-22.55,15-6.63-2.37-9.71-9.76-11.08-17.28a72.58,72.58,0,0,1-1-14,10.64,10.64,0,0,1,5.4-9.06c8.87-5,18.23-3.15,24.39-.78A10.6,10.6,0,0,1,662.9,350.49Z"/><path class="cls-26" d="M637.78,359.06c0,1.09-.56,2-1.26,2s-1.25-.88-1.25-2,.56-2,1.25-2S637.78,358,637.78,359.06Z"/><path class="cls-26" d="M653.25,359.06c0,1.09-.56,2-1.25,2s-1.25-.88-1.25-2,.56-2,1.25-2S653.25,358,653.25,359.06Z"/><path class="cls-26" d="M634,352.5a20.81,20.81,0,0,1,5.36-.8.93.93,0,0,1,.93,1.09h0a.93.93,0,0,1-1,.76,23.76,23.76,0,0,0-7.34.9,1.38,1.38,0,0,1,.42-1A3.25,3.25,0,0,1,634,352.5Z"/><path class="cls-26" d="M654.29,352.54a20.81,20.81,0,0,0-5.36-.8.93.93,0,0,0-.93,1.09h0a.93.93,0,0,0,1,.77,23.17,23.17,0,0,1,7.34.9,1.38,1.38,0,0,0-.42-1A3.2,3.2,0,0,0,654.29,352.54Z"/><path class="cls-28" d="M644.56,367.08a2.09,2.09,0,0,1-1-.25,1.5,1.5,0,0,1-.7-1.19,70.21,70.21,0,0,1,.29-7.6.48.48,0,0,1,.52-.44.47.47,0,0,1,.44.52c0,.06-.46,5.73-.29,7.42a.54.54,0,0,0,.24.46,2.91,2.91,0,0,0,1.94-.19.49.49,0,0,1,.37.9A5.26,5.26,0,0,1,644.56,367.08Z"/><path class="cls-8" d="M638.41,370.14c.37,1.84,1.58,5.23,5.69,5.23s5.26-3.1,5.66-5.23Z"/><path class="cls-28" d="M644,378.2a4.83,4.83,0,0,1-2.28-.67.48.48,0,0,1-.15-.66.48.48,0,0,1,.66-.16h0a4,4,0,0,0,1.77.52,4.25,4.25,0,0,0,1.86-.52.47.47,0,0,1,.66.16.49.49,0,0,1-.16.67A5.15,5.15,0,0,1,644,378.2Z"/><path class="cls-26" d="M664.85,349.7a1.59,1.59,0,0,1-1.16.89,30.36,30.36,0,0,1-.18,3.59c-.6,7-2.36,8.23-2.76,6.5a78.92,78.92,0,0,1-.12-9.9,22.74,22.74,0,0,1-2.57-.32l-1.62-6.8-.57,6.72c-2.44.85-8.12-.51-8.12-.51l-1.91-6.7-1.18,6.44c-3.65,1.78-8.22.6-8.22.6l-1.05-7-2.42,7s-7.8,2.8-7.88,0c-.06-1.63,1.14-6.21,2.14-9.76a14.69,14.69,0,0,1,7.08-9c9.67-5.19,19.9-2.43,23.41-.34C665.16,335.56,664.85,349.7,664.85,349.7Z"/><path class="cls-26" d="M629.38,335.58s-6.42,7.63-8.53,21.27-5,23.7,3.18,28.2c8.89,4.88,8.12-5.12,8-7.83s-7.69-10.14-2.64-31.05C631,339.42,629.38,335.58,629.38,335.58Z"/><path class="cls-27" d="M627.88,363.75v0c0,.1,0,.64,0,1.49,0,.53.05,1.16.1,1.89.3,4.6,1.19,12.53,3.82,15.28,1,1.09,3,1.63,5.38,1.85v-3.6a14.29,14.29,0,0,1-5.9-5.49,33.44,33.44,0,0,1-3.27-10.08Z"/><path class="cls-8" d="M663,368.21a1.14,1.14,0,1,1-1.14-1.13A1.14,1.14,0,0,1,663,368.21Z"/><path class="cls-25" d="M178.3,330.12v10.47s4.89,3.88,9.11,4.24a6.65,6.65,0,0,0,6.19-3.14V330.86Z"/><path class="cls-30" d="M203.31,307.26s1.9-3.34,4.87-3.39c1.76,0,1.24,7.21-.57,9.08s-4.46,1.25-5.05-.41Z"/><path class="cls-31" d="M203.71,312.3s2.22.78,3.18-1.06,1.88-4.07,1.14-5.7c0,0-2.05.48-3.93,4.29C204.1,309.83,205.48,311.55,203.71,312.3Z"/><path class="cls-32" d="M208.33,307.86a8.36,8.36,0,0,0-.27-2c-.07-.17-.14-.24-.19-.17l-.44.28a6.13,6.13,0,0,0-.79.64,12.31,12.31,0,0,0-1.39,1.49,4.5,4.5,0,0,0-.55.86l-.51.88,0-.17a2.45,2.45,0,0,1,.55,1.64l-.15.43-.31.31c-.09.12-.25.14-.37.2l-.38.17.36-.21c.1-.08.25-.11.32-.24l.24-.31.08-.37a2.2,2.2,0,0,0-.59-1.4l-.08-.09,0-.08.51-.94a4.45,4.45,0,0,1,.56-.91,9.79,9.79,0,0,1,1.48-1.54,5.56,5.56,0,0,1,.85-.64l.47-.25a.34.34,0,0,1,.39,0,1,1,0,0,1,.15.29A6.51,6.51,0,0,1,208.33,307.86Z"/><path class="cls-32" d="M207.69,308.19a1.75,1.75,0,0,0-1.14-.48,1.85,1.85,0,0,0-.47,0,1.82,1.82,0,0,0-.42,0l-.44,0a2.93,2.93,0,0,1,.38-.24,1.9,1.9,0,0,1,1-.21,1.35,1.35,0,0,1,.92.45A1,1,0,0,1,207.69,308.19Z"/><path class="cls-30" d="M187.64,334.39s9-4.31,12.05-9.15c2.54-3.39,4.64-20.71,4.93-23.4l0-.26c0-.09,0-.13,0-.13h0c0-.56.08-1.12.08-1.69a18.78,18.78,0,1,0-37.44,2h0s2.15,19.76,4.93,23.48c3.27,5.55,12.06,9.15,12.06,9.15A5.6,5.6,0,0,0,187.64,334.39Z"/><path class="cls-30" d="M168.44,308.05s-1.91-3.34-4.87-3.39c-1.77,0-1.25,7.21.57,9.08s4.45,1.25,5-.41Z"/><path class="cls-31" d="M168,313.09s-2.22.78-3.17-1.06-1.89-4.07-1.15-5.7c0,0,2,.48,3.94,4.29C167.65,310.62,166.26,312.34,168,313.09Z"/><path class="cls-32" d="M163.41,308.65a6.58,6.58,0,0,1,.05-2.12.86.86,0,0,1,.15-.28.32.32,0,0,1,.39-.05l.46.25a4.73,4.73,0,0,1,.85.64,9.42,9.42,0,0,1,1.49,1.54,4.45,4.45,0,0,1,.56.91l.51.94,0,.08-.07.09a2.15,2.15,0,0,0-.59,1.4l.08.37.24.31c.06.12.21.16.32.24l.35.21-.38-.17c-.12-.06-.28-.08-.37-.2l-.31-.31-.14-.43a2.45,2.45,0,0,1,.55-1.64l0,.17-.51-.88a4.1,4.1,0,0,0-.56-.86,12.31,12.31,0,0,0-1.39-1.49,5.43,5.43,0,0,0-.78-.64l-.45-.28c-.05-.07-.11,0-.18.16A8,8,0,0,0,163.41,308.65Z"/><path class="cls-32" d="M164.05,309a1,1,0,0,1,.19-.42,1.35,1.35,0,0,1,.93-.45,1.88,1.88,0,0,1,1,.21,2.93,2.93,0,0,1,.38.24,4.25,4.25,0,0,1-.44,0c-.12,0-.27,0-.42,0a2.18,2.18,0,0,0-1.61.48Z"/><path class="cls-33" d="M192.27,322.1s-1.46,4.75-6.15,4.75c-2.4,0-5.62-1.49-5.76-4.75C180.36,322.1,190.62,322.32,192.27,322.1Z"/><path class="cls-34" d="M181.65,302s-3.56-3.9-8.53-2.68c0,0-1.62,1.54-1.71,2.33A27.86,27.86,0,0,1,181.65,302Z"/><path class="cls-34" d="M190.65,302s4.33-3.63,7.67-2.76a4.29,4.29,0,0,1,2.56,2.41A27.81,27.81,0,0,0,190.65,302Z"/><path class="cls-35" d="M184.29,334.39a5.67,5.67,0,0,0,2.74.16c-12.57-4.2-17.88-20-17.88-20h0c.84,4.62,1.91,9.09,3.09,10.67C175.5,330.79,184.29,334.39,184.29,334.39Z"/><path class="cls-8" d="M182,309.07a6.76,6.76,0,0,0-2.71-2.75c-2.67-1.41-7.5-.86-7.25,1.78,0,0,.19,2.45,3.57,2.77C178.37,311.12,181,310.33,182,309.07Z"/><path class="cls-8" d="M182,309.07a6.76,6.76,0,0,0-2.71-2.75c-2.67-1.41-7.5-.86-7.25,1.78,0,0,.19,2.45,3.57,2.77C178.37,311.12,181,310.33,182,309.07Z"/><path class="cls-34" d="M179.32,306.32a7.6,7.6,0,0,0-4.48-.67,3.34,3.34,0,0,0-.52,4.94,5.77,5.77,0,0,0,1.32.28,10.65,10.65,0,0,0,3.93-.36,3.32,3.32,0,0,0,.79-2.16,3.26,3.26,0,0,0-.45-1.67A5.8,5.8,0,0,0,179.32,306.32Z"/><path class="cls-34" d="M182,309.07s-.1-.14-.3-.38a7.61,7.61,0,0,0-.88-.93,4.75,4.75,0,0,0-.65-.58c-.28-.17-.58-.35-.86-.55a3.57,3.57,0,0,0-1-.48,7.07,7.07,0,0,0-1.22-.27,6.86,6.86,0,0,0-2.52,0,5,5,0,0,0-1.05.32,2.37,2.37,0,0,0-.75.48,1.92,1.92,0,0,0-.61,1l-.08.41s0-.15-.06-.42a1.56,1.56,0,0,1,.42-1.1,2.42,2.42,0,0,1,.76-.61,4.13,4.13,0,0,1,1.17-.44,8.13,8.13,0,0,1,2.88-.11,7.75,7.75,0,0,1,1.38.35,3.85,3.85,0,0,1,1.13.56c.31.21.6.44.86.64a5.74,5.74,0,0,1,.59.66,4.69,4.69,0,0,1,.66,1A2.1,2.1,0,0,1,182,309.07Z"/><path class="cls-8" d="M189.9,309.07a6.76,6.76,0,0,1,2.71-2.75c2.66-1.41,7.49-.86,7.24,1.78,0,0-.18,2.45-3.56,2.77C193.55,311.12,190.92,310.33,189.9,309.07Z"/><path class="cls-34" d="M192.61,306.32a6.36,6.36,0,0,0-1.73,1.36,3.08,3.08,0,0,0-.06.61,3.28,3.28,0,0,0,.56,1.85,9.89,9.89,0,0,0,4.91.73l.26,0a3.34,3.34,0,0,0-.23-5.26A7.43,7.43,0,0,0,192.61,306.32Z"/><path class="cls-34" d="M189.9,309.07a2.1,2.1,0,0,1,.17-.41,4.34,4.34,0,0,1,.66-1,5.59,5.59,0,0,1,.58-.66c.27-.2.55-.43.86-.64a4,4,0,0,1,1.13-.56,7.64,7.64,0,0,1,1.39-.35,8.07,8.07,0,0,1,2.87.11,4,4,0,0,1,1.17.44,2.36,2.36,0,0,1,.77.61,1.54,1.54,0,0,1,.41,1.1c0,.27-.06.42-.06.42s0-.15-.07-.41a2,2,0,0,0-.62-1,2.43,2.43,0,0,0-.74-.48,5,5,0,0,0-1-.32,6.91,6.91,0,0,0-2.53,0,7.51,7.51,0,0,0-1.22.27,3.51,3.51,0,0,0-1,.48c-.29.2-.58.38-.87.55a6.33,6.33,0,0,0-.65.58,8.22,8.22,0,0,0-.87.93C190,308.93,189.9,309.07,189.9,309.07Z"/><path class="cls-8" d="M176.1,307.5c.05.25-.6.51-1.44.57s-1.55-.08-1.6-.32.6-.51,1.44-.58S176.06,307.25,176.1,307.5Z"/><path class="cls-8" d="M199.07,307.73c-.09.24-.83.34-1.65.22s-1.43-.41-1.34-.66.82-.34,1.64-.22S199.15,307.48,199.07,307.73Z"/><path class="cls-36" d="M168,307.55s2.09-6.33,2.09-9.05,0-8.06,1.29-8.7a18.32,18.32,0,0,1,10.24-1.07c4.17,1,12.5,3,18.21,1.71a7.36,7.36,0,0,1,2.7,6.08c-.29,3.85,1.4,9.81,1.4,9.81l1.26-1.27s4.31-9.18,1.85-17.72c0,0,2.36-6-1.06-7.9a122,122,0,0,0-15.24-6.51c-2.82-1-9.3-.75-11.94.85s-12.21,8.13-13.32,8.77c0,0-3.11,2.66-2.06,8.21,0,0-2.72,3.76.6,13.9C164.05,304.66,167.19,305.53,168,307.55Z"/><path class="cls-8" d="M191.07,323.38c.25-.08.59-.88.67-1.23-2.36.12-9.55,0-11.08,0a1.65,1.65,0,0,0,.71,1.17A31.81,31.81,0,0,0,191.07,323.38Z"/><path class="cls-37" d="M189.33,326c-2.5-2.29-5.53-.86-6.74-.12a6.8,6.8,0,0,0,3.53,1A5.93,5.93,0,0,0,189.33,326Z"/><path class="cls-38" d="M168,307.55s2.09-6.33,2.09-9.05,0-8.06,1.29-8.7a18.32,18.32,0,0,1,10.24-1.07c4.17,1,12.5,3,18.21,1.71a7.36,7.36,0,0,1,2.7,6.08c-.29,3.85,1.4,9.81,1.4,9.81l1.26-1.27a28.79,28.79,0,0,0,1.12-3c-2.45,1.46-.59-9.89-1.6-16.43-1.17-7.47-18-1.6-19.63-1s-5.27-2.13-11.65-1.17-3.76,13-6.94,14.52c-1.35.64-2.82-1.28-4.06-3.68a26.24,26.24,0,0,0,1.59,10.32S167.19,305.53,168,307.55Z"/><path class="cls-39" d="M204.63,278.71a136,136,0,0,0-13.86-5.78c-2.82-1-9.3-.75-11.94.85-2,1.19-7.71,5.08-11,7.28,3.75-1.51,8.87-3.75,12.55-5.14,6.18-2.35,18.58,6,22.66,4.48A2.3,2.3,0,0,0,204.63,278.71Z"/><path class="cls-40" d="M204,304.57c-.47-.12-2.25-.47-2.25-.47h0c-2.65-2.74-10.94-1.19-12.5,0l-.3.24a18.56,18.56,0,0,1-6.36-.17c-1.56-1.22-9.85-2.77-12.5,0h0s-1.78.35-2.25.47a2.73,2.73,0,0,0,0,2l1.53.63c.18,1.63.65,4.79,1.6,5.9s8.06,2.17,10.51,0a8.2,8.2,0,0,0,2.33-5.09c2.27-3.27,4.2-.26,4.2-.26h0a8.37,8.37,0,0,0,2.35,5.28c2.45,2.16,9.54,1.1,10.51,0s1.42-4.27,1.6-5.89l1.53-.64A2.7,2.7,0,0,0,204,304.57Zm-23,8.28c-2.19,1.92-8.73.88-9.59-.12-1.16-1.35-1.28-6.18-1.28-6.18,0-4.88,10.19-3.17,11.84-1.87a4.84,4.84,0,0,1,1.18,1.2l.12.35C183.12,307.38,183.12,311,181,312.85Zm19.51-.19c-.86,1-7.4,2-9.59.12-1.93-1.71-2.11-4.86-2.23-6.27l.68-1.42.57-.48c1.66-1.3,11.87-3,11.85,1.87C201.79,306.48,201.67,311.31,200.51,312.66Z"/><path class="cls-22" d="M214.35,384.93c7.49,27.22,32.14,34.82,32.14,34.82a74.09,74.09,0,0,0,22.12-8.4c-1.82-4.36-2.61-8.8-3.62-14.55-9.08,2.52-16.92,3.87-16.92,3.87-19.17-8.88-30.79-51.41-30.79-51.41C205.88,360.08,214.35,384.93,214.35,384.93Z"/><path class="cls-25" d="M149.88,603.66l-8.11,10.84s1.48,4.85,7.49,8.59l9.7-12.48Z"/><path class="cls-21" d="M147.91,619.73s3.8-.82,5.1.49,4.55,19.16,7.6,23.06,0,6-1.9,6.77S130,624,130,624s6.64-9.18,9.85-11S144.51,617.84,147.91,619.73Z"/><path class="cls-8" d="M148.41,630.14a.62.62,0,0,1-.38-.38.72.72,0,0,1,.36-.93,10.5,10.5,0,0,1,5.12-.85,4.71,4.71,0,0,1,3.71,3.19.7.7,0,0,1-.47.87.67.67,0,0,1-.85-.47,3.36,3.36,0,0,0-2.65-2.2,9.33,9.33,0,0,0-4.33.76A.65.65,0,0,1,148.41,630.14Z"/><path class="cls-8" d="M148,627.29a.69.69,0,0,1-.39-.38A.73.73,0,0,1,148,626a10.41,10.41,0,0,1,5.11-.86,4.73,4.73,0,0,1,3.72,3.19.71.71,0,0,1-.47.88.67.67,0,0,1-.85-.48,3.36,3.36,0,0,0-2.65-2.2,9.12,9.12,0,0,0-4.33.77A.69.69,0,0,1,148,627.29Z"/><path class="cls-8" d="M149.66,633.15a.69.69,0,0,1-.39-.38.72.72,0,0,1,.37-.93,10.38,10.38,0,0,1,5.11-.86,4.73,4.73,0,0,1,3.72,3.19.72.72,0,0,1-.48.88.68.68,0,0,1-.85-.48,3.36,3.36,0,0,0-2.65-2.2,9.21,9.21,0,0,0-4.32.76A.65.65,0,0,1,149.66,633.15Z"/><path class="cls-25" d="M199.62,622.28l1.23,13.49s4.35,2.61,11.31,1.37L211,621.38Z"/><path class="cls-21" d="M209.7,635.25s2.38-3.29,4.3-3.18,16.91,11.69,22,12.59,4.16,4.65,3.26,6.57-40.32.82-40.32.82-1.45-12.72-.21-16.34S205.75,636.16,209.7,635.25Z"/><path class="cls-8" d="M219.46,643.84a.64.64,0,0,1-.54-.05.71.71,0,0,1-.31-.95,10.37,10.37,0,0,1,3.39-3.92,4.71,4.71,0,0,1,4.9.09.72.72,0,0,1,.19,1,.68.68,0,0,1-1,.18,3.36,3.36,0,0,0-3.44,0,9.27,9.27,0,0,0-2.85,3.34A.67.67,0,0,1,219.46,643.84Z"/><path class="cls-8" d="M217.3,641.92a.71.71,0,0,1-.55,0,.72.72,0,0,1-.31-1,10.46,10.46,0,0,1,3.4-3.92,4.69,4.69,0,0,1,4.89.08.72.72,0,0,1,.2,1,.68.68,0,0,1-1,.17,3.38,3.38,0,0,0-3.45,0,9.1,9.1,0,0,0-2.84,3.35A.65.65,0,0,1,217.3,641.92Z"/><path class="cls-8" d="M222.33,645.36a.65.65,0,0,1-.54-.05.72.72,0,0,1-.31-.95,10.47,10.47,0,0,1,3.39-3.92,4.69,4.69,0,0,1,4.9.09.71.71,0,0,1,.19,1,.67.67,0,0,1-1,.18,3.38,3.38,0,0,0-3.45,0,9.18,9.18,0,0,0-2.84,3.34A.72.72,0,0,1,222.33,645.36Z"/><path class="cls-6" d="M192.07,475.88l-8.19,67.79a226.79,226.79,0,0,0-14.36,22.73C163.64,577.11,148,604.9,148,604.9l9.47,7.22,51.9-53.78,13.81-83.12Z"/><path class="cls-26" d="M159.79,612a10.46,10.46,0,0,1-4.3,4.81l-11-9.29a16.73,16.73,0,0,1,3.75-5.09Z"/><path class="cls-26" d="M150.16,478.69s14.61,35.93,33.6,63.95c0,0,2.84,27.26,7.69,41.78,2.12,6.35,6.24,36.47,6.24,36.47l14.41-.66-3.72-83.72-15.24-60.65Z"/><path class="cls-41" d="M213.44,619.74a12.17,12.17,0,0,1,0,7.48l-16.68.46a19.14,19.14,0,0,1-.69-7.29Z"/><path class="cls-21" d="M217.28,349.26c2.17,2.71,6.53,30.33,7.21,58.37,0,.64,0,1.29,0,1.93q.11,4.45.19,8.93t.16,8.8c.08,4.76.15,9.46.21,14,0,.52,0,1,0,1.54,0,4.41.09,8.63.12,12.58,0,.52,0,1,0,1.54.05,5.93.08,11.17.08,15.39h0V474c0,3,0,5.28,0,6.86A148.8,148.8,0,0,1,204.37,485l-.55.06-.93.11-.23,0c-1.22.14-2.42.25-3.63.35a140.47,140.47,0,0,1-18,.33l-1.57-.09c-.47,0-1-.05-1.42-.09l-.64,0-1.2-.09a145.46,145.46,0,0,1-26.44-4.64c0-3.47-.08-10.54-.1-19.66V459.7c0-10.06,0-22.41.15-35.12l0-3c0-1.17,0-2.34,0-3.51,0-.2,0-.4,0-.6s0-.55,0-.83c0-.55,0-1.11,0-1.65,0-.81,0-1.61,0-2.41,0-.61,0-1.22,0-1.83l.06-3.62c.42-25.24,1.28-48.44,2.9-54.34a4.11,4.11,0,0,1,.47-1.18,6.18,6.18,0,0,1,.62-.8,14.89,14.89,0,0,1,1.05-1.06c2.71-2.49,7.39-5.38,12.15-8.12l1.66-1c.08,0,12.92-4.37,13-4.42l13.43.94S214.08,345.28,217.28,349.26Z"/><path class="cls-22" d="M163.1,385.63a.7.7,0,0,0-1.25-.43,69.23,69.23,0,0,0-10.58,21c-.49,1.58-.92,3.1-1.29,4.55,0,.61,0,1.22,0,1.83,0,.8,0,1.6,0,2.41,0,.54,0,1.1,0,1.65,0,.28,0,.56,0,.83s0,.4,0,.6a85.94,85.94,0,0,1,2.73-11.49A68,68,0,0,1,163,386.05a.71.71,0,0,0,.14-.42Z"/><path class="cls-22" d="M165.83,458.89h0c14.5-.07,26.87-6.67,34.7-12.19a79.06,79.06,0,0,0,13.65-12.09.7.7,0,0,0-.08-1,.71.71,0,0,0-1,.08,78,78,0,0,1-13.42,11.87c-7.65,5.4-19.75,11.85-33.87,11.91a.7.7,0,0,0,0,1.4Z"/><path class="cls-22" d="M180.94,463.81c12.59,0,25.13-7.17,25.7-7.5a.69.69,0,0,0,.26-.95.7.7,0,0,0-1-.25c-.14.08-14.91,8.51-28,7.16a.68.68,0,0,0-.76.62.7.7,0,0,0,.62.77C178.84,463.76,179.89,463.81,180.94,463.81Z"/><path class="cls-22" d="M177.34,359.23c12.12-3.37,22.3-13.63,22.76-14.1a.69.69,0,1,0-1-1c-.12.12-12.1,12.19-25.08,14.38a.69.69,0,0,0-.57.8.7.7,0,0,0,.81.57A29.52,29.52,0,0,0,177.34,359.23Z"/><rect class="cls-24" x="157.36" y="371.08" width="170.18" height="60.87" rx="9.34" transform="translate(-225.52 369.94) rotate(-55.01)"/><path class="cls-23" d="M226.3,423.89a25.6,25.6,0,0,1-8.67,45.85,26.54,26.54,0,0,1-4,.63,25.59,25.59,0,1,1,12.63-46.48Z"/><path class="cls-42" d="M212.11,433.22a9.81,9.81,0,1,1-13.67,2.41A9.83,9.83,0,0,1,212.11,433.22Z"/><path class="cls-42" d="M237.06,442a25.6,25.6,0,0,1-19.43,27.76,15,15,0,0,1-3.71-10.27A18.75,18.75,0,0,1,226.14,442,15,15,0,0,1,237.06,442Z"/><path class="cls-8" d="M228,412.08l-.1-.13c-1-1.32-2-2.63-3-3.95a.18.18,0,0,0-.25-.07l-5.36,1.78a.37.37,0,0,1-.16,0l.19-.27q1.54-2.26,3.1-4.52a.16.16,0,0,0,0-.22l-3.23-4.25-.08-.11.16,0,5.34,1.43a.2.2,0,0,0,.25-.1l2.89-4.19a.76.76,0,0,1,.15-.17v.14c0,1.78-.05,3.56-.08,5.34,0,.12,0,.17.15.2l5.27,1.5.15.06-.22.08-5,1.79c-.1,0-.13.08-.13.18,0,1.75,0,3.5,0,5.25A1.28,1.28,0,0,1,228,412.08Z"/><path class="cls-8" d="M239.18,396.15a.91.91,0,0,1-.1-.13l-3-3.95a.17.17,0,0,0-.24-.07l-5.36,1.78a.27.27,0,0,1-.16,0l.19-.27q1.55-2.26,3.1-4.52a.17.17,0,0,0,0-.22l-3.23-4.25-.08-.11.16,0,5.33,1.43a.19.19,0,0,0,.25-.1c1-1.4,1.94-2.79,2.9-4.19a1,1,0,0,1,.14-.17c0,.05,0,.09,0,.14,0,1.78-.05,3.56-.09,5.34a.17.17,0,0,0,.15.2l5.28,1.5.15.06-.22.08-5,1.79c-.1,0-.13.08-.13.18,0,1.75,0,3.5,0,5.25C239.19,396,239.18,396.08,239.18,396.15Z"/><path class="cls-8" d="M250.33,380.22l-.11-.13c-1-1.31-2-2.63-3-3.95a.17.17,0,0,0-.24-.07l-5.36,1.78a.29.29,0,0,1-.16,0l.19-.27,3.09-4.52a.15.15,0,0,0,0-.22l-3.22-4.25-.08-.11.15,0,5.34,1.42a.19.19,0,0,0,.25-.1c1-1.4,1.93-2.79,2.9-4.19a.7.7,0,0,1,.14-.16v.13c0,1.78-.05,3.56-.08,5.34,0,.12,0,.17.15.2l5.27,1.5.16.06-.23.08-5,1.79c-.1,0-.13.08-.13.18,0,1.75,0,3.5,0,5.25Z"/><path class="cls-8" d="M261.48,364.29l-.11-.13q-1.5-2-3-4a.17.17,0,0,0-.24-.07l-5.37,1.78a.24.24,0,0,1-.15,0l.19-.27,3.09-4.52a.16.16,0,0,0,0-.22q-1.62-2.12-3.22-4.25l-.08-.11.15,0,5.34,1.42a.2.2,0,0,0,.25-.09c1-1.41,1.93-2.8,2.9-4.2a.52.52,0,0,1,.14-.16v.13c0,1.78-.05,3.56-.08,5.34,0,.12,0,.17.15.2l5.27,1.51.16.05-.23.08-5,1.8c-.1,0-.13.07-.13.18,0,1.74,0,3.49,0,5.24Z"/><path class="cls-8" d="M272.63,348.36l-.11-.12-3-4a.18.18,0,0,0-.25-.07L263.92,346a.26.26,0,0,1-.16,0l.19-.27,3.1-4.52a.16.16,0,0,0,0-.22q-1.62-2.12-3.22-4.25a.52.52,0,0,1-.08-.11l.15,0,5.34,1.42a.2.2,0,0,0,.25-.09l2.9-4.2a.5.5,0,0,1,.14-.16v.13c0,1.78,0,3.56-.08,5.34,0,.12,0,.17.15.2l5.27,1.51.16.05-.23.08-5,1.8c-.09,0-.12.07-.12.18,0,1.74,0,3.49,0,5.24Z"/><path class="cls-23" d="M283.55,344l-50.89,72.72a2,2,0,0,0,.51,2.84h0A2,2,0,0,0,236,419L286.9,346.3a2,2,0,0,0-.5-2.84h0A2,2,0,0,0,283.55,344Z"/><path class="cls-23" d="M290.72,349l-50.89,72.71a2.06,2.06,0,0,0,.5,2.85h0a2.05,2.05,0,0,0,2.85-.51l50.89-72.71a2,2,0,0,0-.51-2.84h0A2,2,0,0,0,290.72,349Z"/><path class="cls-25" d="M217.17,446.7h2.45a5.33,5.33,0,0,0,4.83-3.24c.44-.86,1-2.44,1.44-3,1.14-1.52,4.26-4.08,5.43-4.16s1,2.1.13,3.05a19.36,19.36,0,0,0-2.83,3.52c-.7,1.34,5.72,4.08,8.33,4.71s7.18-.76,7.63,1.4-3,2.48-3,2.48,1,1.95-1.84,3.56a2.65,2.65,0,0,1-1.34,2.93,2.94,2.94,0,0,1-1.93,3.05c-2.14.63-8.81,2.57-21.91-5.38Z"/><path class="cls-22" d="M172.23,391.1c4.94,18.68,9.79,26.95,9.79,26.95s5.55,8.47,17,16.5c7.92,5.57,20.64,12.15,20.64,12.15-2.19,2.86-3.74,8.5-2.9,10.19-26.45,0-49.59-25.07-49.59-25.07-18.51-32.22-19.72-58.45-19.42-68a18.27,18.27,0,0,1,2.94-9.47,9.48,9.48,0,0,1,3.56-3.46,19.27,19.27,0,0,1,10.69,12.27C167.66,372.46,172.23,391.1,172.23,391.1Z"/><path class="cls-25" d="M288.13,392.75s-5.88-2.08-8.59-1,4.79,5.19,4.79,5.19-9.08-4.84-10.65-2.89,7.12,6.9,7.12,6.9-6.65-2.34-8-1,4.85,5.26,4.85,5.26-5.46-1.32-6.6-.39,3.7,4.81,6.77,5.84,3.57-3.29,3.57-3.29,2.89-2.55,2.51-4.32c0,0,3-2,3.21-4.09C287.11,399,291.34,395.31,288.13,392.75Z"/><path class="cls-28" d="M185.32,319.44a5.11,5.11,0,0,1-1.8-.38.5.5,0,1,1,.38-.92,3,3,0,0,0,2,.19.53.53,0,0,0,.25-.46c.18-1.74-.3-7.56-.3-7.61a.49.49,0,0,1,.45-.54.5.5,0,0,1,.54.45,76.22,76.22,0,0,1,.3,7.8,1.53,1.53,0,0,1-.73,1.21A2.11,2.11,0,0,1,185.32,319.44Z"/><g class="cls-43"><g class="cls-44"><path class="cls-45" d="M703.84,707.44h-116c1.91,5,11.14,8.67,21.9,8.65l36.08,0,36.09,0C692.69,716.11,701.92,712.46,703.84,707.44Z"/><rect class="cls-45" x="596.99" y="661.7" width="6.32" height="46.46"/><rect class="cls-45" x="688.4" y="661.7" width="6.32" height="46.46"/><rect class="cls-45" x="603.31" y="692.47" width="85.09" height="2.63"/><path class="cls-45" d="M617.46,770.21s-19.37-11.13-22-20.85c-1.82-6.86,22-17.11,22-17.11l8.19,1.75-8.16,7.94c-2.91,3.86-6.48,5.39-3.84,9.29l5.91,5.5Z"/><path class="cls-45" d="M678.49,770.38s19.12-11.87,20.7-21.63c1.37-8.41-22-16.5-22-16.5l-6.76,1.45,9.36,8c2.9,3.86,4.28,6.19.32,10.39l-5,4.62Z"/><path class="cls-45" d="M621.41,744.85l-12.84-17.62s55.58-3.05,72.58-1.08l-8.64,19.19,6,25a178,178,0,0,1-26.14,2.76c-13.14.41-21.45-.52-34.89-2.93Z"/><path class="cls-45" d="M635.3,764.9a106.69,106.69,0,0,1,24.19,4.42c.3.1.37.29.14.42a1.42,1.42,0,0,1-1,.06c-.13,0-13.56-4.32-26.47-4.39-.38,0-.68-.14-.68-.3s.32-.3.7-.29C633.25,764.82,634.28,764.85,635.3,764.9Z"/><polygon class="cls-45" points="645.18 670.54 646.18 666.65 655.77 666.56 656.58 669.79 645.18 670.54"/><path class="cls-45" d="M643.68,732.2s-24.84.59-33.25-2.38-6.72-11.49,1.85-13.81,23.17-6.9,23.17-6.9l9.3-39.84,12.28-.18s11.31,40,5.57,47.77S643.68,732.2,643.68,732.2Z"/><path class="cls-45" d="M658.16,671.07c.67-.93.35-1.83-.32-2.73l-14.13.14a3.2,3.2,0,0,0-.27,2.67Z"/><path class="cls-45" d="M678.82,732.5H613.65l-6,15.19c-.52,1.32,1.83,2.52,4.93,2.52h67.37c3.1,0,5.45-1.2,4.93-2.52Z"/><path class="cls-45" d="M617,729.2h58.63a3.3,3.3,0,0,1,3.3,3.3v0a0,0,0,0,1,0,0H613.65a0,0,0,0,1,0,0v0A3.3,3.3,0,0,1,617,729.2Z"/><path class="cls-45" d="M652,740.73c0-1.35-2.53-2.44-5.66-2.44s-5.66,1.09-5.66,2.44,2.53,2.44,5.66,2.44S652,742.08,652,740.73Z"/><polygon class="cls-45" points="604.44 681.48 602.32 677.63 610.92 676.9 614.43 680.34 604.44 681.48"/><path class="cls-45" d="M656.29,732.86s-16.63,2.47-26.38-2.72-26.08-49-26.08-49l11.2-2,36,38.95s29.3-7.22,32.85,3C686.67,729.2,656.29,732.86,656.29,732.86Z"/><path class="cls-45" d="M617.56,681.11c0-1-1-1.84-2.35-2.63l-13.76,2.1a4.84,4.84,0,0,0,1.73,2.66Z"/><path class="cls-45" d="M608.89,678.26s-5.22,1.15-6.76,1.28-14.21-3.75-17.81-3.72c-6.51.07-8.6-4.05-4.89-4.61,10.71-1.63,30.53-1.43,30.53-1.43s4.4,5.14,4.49,6.87S611.72,677.49,608.89,678.26Z"/><path class="cls-45" d="M597.49,674.6a1.84,1.84,0,0,1,.62,0c.4.07.59.26.43.43a8.51,8.51,0,0,1-3.45,2,12,12,0,0,1-5.5.23c-.38-.09-.51-.29-.31-.45a1.5,1.5,0,0,1,1.06-.14,8.38,8.38,0,0,0,3.87-.18,7.25,7.25,0,0,0,2.88-1.72A.71.71,0,0,1,597.49,674.6Z"/><path class="cls-45" d="M600.09,675.38a1.61,1.61,0,0,1,.62,0c.4.06.59.26.43.43a8.51,8.51,0,0,1-3.45,2,11.76,11.76,0,0,1-5.5.22c-.38-.08-.51-.28-.31-.44a1.51,1.51,0,0,1,1.06-.14,8.54,8.54,0,0,0,3.87-.18,7.25,7.25,0,0,0,2.88-1.72A.71.71,0,0,1,600.09,675.38Z"/><path class="cls-45" d="M594.13,674a1.78,1.78,0,0,1,.61,0c.4.06.6.25.44.42a8.35,8.35,0,0,1-3.45,2,11.84,11.84,0,0,1-5.5.23c-.38-.08-.52-.29-.31-.45a1.45,1.45,0,0,1,1.06-.13,8.46,8.46,0,0,0,3.87-.19,7.12,7.12,0,0,0,2.88-1.72A.88.88,0,0,1,594.13,674Z"/><path class="cls-45" d="M649.88,666.82s5.34.7,6.83.71,11.91-4.54,15.3-4.76c6.15-.4,6.52-4.43,2.83-4.69-10.69-.76-29.23.85-29.23.85s-2.16,5.13-1.57,6.77S646.93,666.29,649.88,666.82Z"/><path class="cls-45" d="M659.17,662.56a1.87,1.87,0,0,0-.58,0c-.35.1-.45.29-.24.44a11.93,11.93,0,0,0,4,1.65,11.2,11.2,0,0,0,5.25-.18c.32-.11.37-.31.12-.44a1.5,1.5,0,0,0-1,0,8,8,0,0,1-3.7.1,10.43,10.43,0,0,1-3.37-1.41A1.09,1.09,0,0,0,659.17,662.56Z"/><path class="cls-45" d="M657,663.47a1.61,1.61,0,0,0-.58,0c-.35.09-.46.29-.24.43a11.72,11.72,0,0,0,4,1.65,10.93,10.93,0,0,0,5.26-.18c.32-.1.37-.3.11-.44a1.53,1.53,0,0,0-1-.05,8,8,0,0,1-3.7.1,10.29,10.29,0,0,1-3.38-1.41A1,1,0,0,0,657,663.47Z"/><path class="cls-45" d="M662.12,661.8a1.87,1.87,0,0,0-.58,0c-.35.09-.46.29-.24.44a12.18,12.18,0,0,0,4,1.65,11.25,11.25,0,0,0,5.26-.18c.32-.11.37-.31.11-.45a1.59,1.59,0,0,0-1,0,8,8,0,0,1-3.71.1,10.4,10.4,0,0,1-3.37-1.4A.88.88,0,0,0,662.12,661.8Z"/><path class="cls-45" d="M664.38,795.34s7.91-5.28,7-10.78,1.16-11.85-10.25-11.57-31.76-2-38.23,2.31S664.38,795.34,664.38,795.34Z"/><path class="cls-45" d="M667.31,785.63s2.05-8-6.72-10.17a27.1,27.1,0,0,0-15.12.26S664,786.83,667.31,785.63Z"/><path class="cls-45" d="M630.88,785.67s-3.15,1.81-5.49.31,1-5.92,6.7-4.84Z"/><path class="cls-45" d="M630.84,782.5a.62.62,0,0,0-.47.16c-.89,1.36-4.17,1.92-4.2,1.92-.25,0-.38.16-.28.27a.77.77,0,0,0,.62.12c.16,0,3.77-.63,4.79-2.2.08-.11-.07-.23-.33-.26Z"/><path class="cls-45" d="M627.53,783.19a.8.8,0,0,0-.27,0c-.22.06-.29.19-.14.28a5.14,5.14,0,0,0,1.82.64.85.85,0,0,0,.64-.11c.11-.1,0-.23-.25-.27a4.66,4.66,0,0,1-1.4-.48A.79.79,0,0,0,627.53,783.19Z"/><path class="cls-45" d="M663.33,785.67s3.15,1.81,5.5.31-1-5.92-6.71-4.84Z"/><path class="cls-45" d="M663.38,782.5a.6.6,0,0,1,.46.16c.89,1.36,4.17,1.92,4.2,1.92.25,0,.38.16.28.27a.77.77,0,0,1-.62.12c-.15,0-3.77-.63-4.79-2.2-.07-.11.08-.23.33-.26Z"/><path class="cls-45" d="M666.69,783.19a.75.75,0,0,1,.26,0c.22.06.29.19.14.28a5.14,5.14,0,0,1-1.82.64.85.85,0,0,1-.64-.11c-.1-.1,0-.23.25-.27a4.66,4.66,0,0,0,1.4-.48A.8.8,0,0,1,666.69,783.19Z"/><path class="cls-45" d="M654.86,777.39V773a14.11,14.11,0,0,0-7.16-2.39,16.36,16.36,0,0,0-7.76,1.92v4.56Z"/><path class="cls-45" d="M654.86,777.39v-1.95c-2.76-1.33-7.66-1.79-14.92-1.33v3Z"/><path class="cls-45" d="M665.61,788.68a19.66,19.66,0,0,0-1.32-5.55,7.89,7.89,0,0,0-.64-1.19c-2.15-3.24-7.52-8.8-22.55-6.48-6.63,1-9.71,4.21-11.08,7.45a14,14,0,0,0-1,6c.07,1.62,2.12,3.1,5.4,3.9,8.87,2.17,18.23,1.36,24.39.34C663.09,792.46,665.83,790.65,665.61,788.68Z"/><path class="cls-45" d="M640.49,785c0-.47-.56-.85-1.26-.85s-1.25.38-1.25.85.56.85,1.25.85S640.49,785.46,640.49,785Z"/><path class="cls-45" d="M656,785c0-.47-.56-.85-1.25-.85s-1.25.38-1.25.85.56.85,1.25.85S656,785.46,656,785Z"/><path class="cls-45" d="M636.75,787.82a48.16,48.16,0,0,0,5.36.34c.59,0,1-.22.93-.47h0c-.08-.19-.5-.33-1-.32a54.49,54.49,0,0,1-7.34-.39c0,.14.15.29.42.43A5.48,5.48,0,0,0,636.75,787.82Z"/><path class="cls-45" d="M657,787.8a48.16,48.16,0,0,1-5.36.34c-.58,0-1-.22-.93-.47h0c.08-.2.49-.34.95-.33A52.89,52.89,0,0,0,659,787c0,.14-.15.29-.42.43A5.11,5.11,0,0,1,657,787.8Z"/><path class="cls-45" d="M647.27,781.53a4.34,4.34,0,0,0-1,.11c-.28.07-.63.22-.7.51a13.14,13.14,0,0,0,.29,3.27c0,.12.25.21.52.2s.47-.11.44-.23a14.41,14.41,0,0,1-.29-3.2.28.28,0,0,1,.24-.19,6.64,6.64,0,0,1,1.94.07.76.76,0,0,0,.63-.11c.1-.11,0-.23-.26-.27A11.59,11.59,0,0,0,647.27,781.53Z"/><path class="cls-45" d="M641.12,780.21c.37-.8,1.59-2.26,5.69-2.26s5.26,1.34,5.66,2.26Z"/><path class="cls-45" d="M646.75,776.73a9.93,9.93,0,0,0-2.28.29c-.22.06-.29.19-.15.29a1,1,0,0,0,.66.07h0a7.28,7.28,0,0,1,1.77-.23,7.87,7.87,0,0,1,1.86.23.89.89,0,0,0,.66-.08c.14-.09.07-.22-.16-.28A10.29,10.29,0,0,0,646.75,776.73Z"/><path class="cls-45" d="M667.56,789a2,2,0,0,0-1.16-.38,5.78,5.78,0,0,0-.18-1.55c-.6-3-2.36-3.55-2.76-2.8a14.75,14.75,0,0,0-.12,4.27c-1.39,0-2.57.13-2.57.13l-1.62,2.94-.57-2.9a48,48,0,0,0-8.12.22l-1.91,2.89-1.18-2.78a30.75,30.75,0,0,0-8.22-.26l-1,3-2.42-3s-7.8-1.2-7.88,0c-.06.71,1.14,2.68,2.14,4.21s3.64,3.08,7.08,3.88a57,57,0,0,0,23.41.14C667.87,795.12,667.56,789,667.56,789Z"/><path class="cls-45" d="M632.09,795.11s-6.42-3.29-8.53-9.17-5-10.22,3.18-12.16c8.89-2.1,8.12,2.2,8,3.38s-7.69,4.37-2.64,13.39C633.72,793.46,632.09,795.11,632.09,795.11Z"/><path class="cls-45" d="M630.59,783h0c0-.05,0-.28,0-.65,0-.22.05-.5.1-.81.3-2,1.19-5.41,3.82-6.59a16.9,16.9,0,0,1,5.38-.8v1.55A16.11,16.11,0,0,0,634,778a10.8,10.8,0,0,0-3.27,4.35Z"/><path class="cls-45" d="M665.73,781c0-.27-.51-.49-1.14-.49s-1.13.22-1.13.49.51.49,1.13.49S665.73,781.31,665.73,781Z"/></g><g class="cls-44"><path class="cls-45" d="M178.3,824.26v-5.58a31.86,31.86,0,0,1,9.11-2.27c4.22-.19,6.19,1.68,6.19,1.68v5.78Z"/><path class="cls-45" d="M203.31,836.45a7.68,7.68,0,0,0,4.87,1.81c1.76,0,1.24-3.84-.57-4.84s-4.46-.66-5.05.22Z"/><path class="cls-46" d="M203.71,833.76s2.22-.41,3.18.57,1.88,2.17,1.14,3a7.06,7.06,0,0,1-3.93-2.29S205.48,834.17,203.71,833.76Z"/><path class="cls-45" d="M208.33,836.13a2.58,2.58,0,0,1-.27,1.09c-.07.09-.14.13-.19.09l-.44-.15a7.21,7.21,0,0,1-.79-.34,12.33,12.33,0,0,1-1.39-.8,2.76,2.76,0,0,1-.55-.45l-.51-.47,0,.08c.34-.25.61-.54.55-.87l-.15-.23-.31-.16a1.07,1.07,0,0,0-.37-.11l-.38-.09.36.11c.1,0,.25.06.32.13l.24.17.08.19c0,.27-.27.54-.59.75l-.08,0,0,0,.51.5a3,3,0,0,0,.56.49,9.37,9.37,0,0,0,1.48.82,6.28,6.28,0,0,0,.85.34l.47.13a.44.44,0,0,0,.54-.18A1.9,1.9,0,0,0,208.33,836.13Z"/><path class="cls-45" d="M207.69,836a2.74,2.74,0,0,1-1.14.25,2.46,2.46,0,0,1-.47,0,2.84,2.84,0,0,1-.42,0l-.44,0a3.68,3.68,0,0,0,.38.13,3,3,0,0,0,1,.11,1.92,1.92,0,0,0,.92-.24C207.67,836.06,207.69,836,207.69,836Z"/><path class="cls-45" d="M187.64,822s9,2.3,12.05,4.88c2.54,1.81,4.64,11,4.93,12.48l0,.15a.32.32,0,0,1,0,.07h0a6.55,6.55,0,0,1,.08.9c0,5.53-8.41,10-18.78,10s-18.77-4.48-18.77-10a5.47,5.47,0,0,1,.11-1.07h0s2.15-10.54,4.93-12.53c3.27-3,12.06-4.88,12.06-4.88A10.27,10.27,0,0,1,187.64,822Z"/><path class="cls-45" d="M168.44,836a7.71,7.71,0,0,1-4.87,1.81c-1.77,0-1.25-3.84.57-4.84s4.45-.67,5,.22Z"/><path class="cls-46" d="M168,833.34s-2.22-.41-3.17.57-1.89,2.17-1.15,3a7.1,7.1,0,0,0,3.94-2.29S166.26,833.75,168,833.34Z"/><path class="cls-45" d="M163.41,835.71a1.9,1.9,0,0,0,.05,1.13.42.42,0,0,0,.15.15.53.53,0,0,0,.39,0l.46-.13a6.55,6.55,0,0,0,.85-.34,9.06,9.06,0,0,0,1.49-.82,3,3,0,0,0,.56-.49l.51-.5,0,0-.07,0c-.33-.21-.61-.48-.59-.75l.08-.2.24-.16c.06-.07.21-.09.32-.13l.35-.11-.38.09a1.07,1.07,0,0,0-.37.11l-.31.16-.14.23c-.06.33.21.62.55.87l0-.09-.51.48a2.9,2.9,0,0,1-.56.45,12.33,12.33,0,0,1-1.39.8,6.3,6.3,0,0,1-.78.34l-.45.15q-.08,0-.18-.09A2.45,2.45,0,0,1,163.41,835.71Z"/><path class="cls-45" d="M164.05,835.54s0,.09.19.22a1.93,1.93,0,0,0,.93.24,3,3,0,0,0,1-.11,3.68,3.68,0,0,0,.38-.13l-.44,0a2.84,2.84,0,0,1-.42,0,2.36,2.36,0,0,1-.46,0A2.76,2.76,0,0,1,164.05,835.54Z"/><path class="cls-45" d="M192.27,828.54s-1.46-2.54-6.15-2.54c-2.4,0-5.62.8-5.76,2.54C180.36,828.54,190.62,828.42,192.27,828.54Z"/><path class="cls-45" d="M181.65,839.58a14.44,14.44,0,0,1-8.53,1.44s-1.62-.83-1.71-1.25A51.64,51.64,0,0,0,181.65,839.58Z"/><path class="cls-45" d="M190.65,839.58s4.33,1.94,7.67,1.48c0,0,2-.36,2.56-1.29A51.55,51.55,0,0,1,190.65,839.58Z"/><path class="cls-45" d="M184.29,822a10.29,10.29,0,0,1,2.74-.08c-12.57,2.24-17.88,10.66-17.88,10.66h0c.84-2.47,1.91-4.85,3.09-5.7C175.5,823.9,184.29,822,184.29,822Z"/><path class="cls-45" d="M182,835.71a6.15,6.15,0,0,1-2.71,2.24c-2.67,1.15-7.5.7-7.25-1.46,0,0,.19-2,3.57-2.25C178.37,834,181,834.67,182,835.71Z"/><path class="cls-45" d="M182,835.71a6.15,6.15,0,0,1-2.71,2.24c-2.67,1.15-7.5.7-7.25-1.46,0,0,.19-2,3.57-2.25C178.37,834,181,834.67,182,835.71Z"/><path class="cls-45" d="M179.32,838a9.19,9.19,0,0,1-4.48.54,2.6,2.6,0,0,1-1.38-2.2,2.47,2.47,0,0,1,.86-1.83,7.39,7.39,0,0,1,1.32-.22,12.76,12.76,0,0,1,3.93.29,2.42,2.42,0,0,1,.79,1.76,2.31,2.31,0,0,1-.45,1.36A5.43,5.43,0,0,1,179.32,838Z"/><path class="cls-45" d="M182,835.71l-.3.3a6.48,6.48,0,0,1-.88.76,3.9,3.9,0,0,1-.65.47c-.28.15-.58.29-.86.45a3.52,3.52,0,0,1-1,.39,8.27,8.27,0,0,1-1.22.23,8.83,8.83,0,0,1-2.52,0,5.73,5.73,0,0,1-1.05-.27,2.49,2.49,0,0,1-.75-.39,1.56,1.56,0,0,1-.61-.79l-.08-.34-.06.34a1.16,1.16,0,0,0,.42.91,2.43,2.43,0,0,0,.76.49,4.48,4.48,0,0,0,1.17.36,9.84,9.84,0,0,0,2.88.09,8.65,8.65,0,0,0,1.38-.29,4.37,4.37,0,0,0,1.13-.45c.31-.18.6-.36.86-.53a5.32,5.32,0,0,0,.59-.53,4,4,0,0,0,.66-.84A1.79,1.79,0,0,0,182,835.71Z"/><path class="cls-45" d="M189.9,835.71a6.15,6.15,0,0,0,2.71,2.24c2.66,1.15,7.49.7,7.24-1.46,0,0-.18-2-3.56-2.25C193.55,834,190.92,834.67,189.9,835.71Z"/><path class="cls-45" d="M192.61,838a6.23,6.23,0,0,1-1.73-1.12,2,2,0,0,1-.06-.49,2.33,2.33,0,0,1,.56-1.51,11.89,11.89,0,0,1,4.91-.59,2.3,2.3,0,0,1,.26,0,2.54,2.54,0,0,1,1.17,2.07,2.64,2.64,0,0,1-1.4,2.22A9.14,9.14,0,0,1,192.61,838Z"/><path class="cls-45" d="M189.9,835.71a1.79,1.79,0,0,0,.17.33,3.69,3.69,0,0,0,.66.84,5.16,5.16,0,0,0,.58.53c.27.17.55.35.86.53a4.51,4.51,0,0,0,1.13.45,8.55,8.55,0,0,0,1.39.29,9.77,9.77,0,0,0,2.87-.09,4.75,4.75,0,0,0,1.17-.36,2.38,2.38,0,0,0,.77-.49,1.14,1.14,0,0,0,.41-.91c0-.22-.06-.34-.06-.34s0,.12-.07.34a1.6,1.6,0,0,1-.62.79,2.56,2.56,0,0,1-.74.39,5.73,5.73,0,0,1-1,.27,8.9,8.9,0,0,1-2.53,0,8.8,8.8,0,0,1-1.22-.23,3.46,3.46,0,0,1-1-.39c-.29-.16-.58-.3-.87-.45a5,5,0,0,1-.65-.47,6.94,6.94,0,0,1-.87-.76Z"/><path class="cls-45" d="M176.1,837c.05-.2-.6-.41-1.44-.47s-1.55.07-1.6.27.6.42,1.44.47S176.06,837.18,176.1,837Z"/><path class="cls-45" d="M199.07,836.8c-.09-.2-.83-.29-1.65-.19s-1.43.34-1.34.54.82.28,1.64.19S199.15,837,199.07,836.8Z"/><path class="cls-45" d="M168,836.3s2.09,3.38,2.09,4.83,0,4.3,1.29,4.64a33.42,33.42,0,0,0,10.24.57c4.17-.51,12.5-1.6,18.21-.91,0,0,3-1.2,2.7-3.25S204,837,204,837l1.26.68s4.31,4.89,1.85,9.45c0,0,2.36,3.19-1.06,4.21s-10.66,2.63-15.24,3.48c-2.82.53-9.3.4-11.94-.45s-12.21-4.34-13.32-4.69c0,0-3.11-1.41-2.06-4.37,0,0-2.72-2,.6-7.42C164.05,837.84,167.19,837.38,168,836.3Z"/><path class="cls-45" d="M191.07,827.85c.25,0,.59.48.67.67-2.36-.07-9.55,0-11.08,0,.12-.44.71-.62.71-.62A61.15,61.15,0,0,1,191.07,827.85Z"/><path class="cls-45" d="M189.33,826.48c-2.5,1.23-5.53.46-6.74.07a11.51,11.51,0,0,1,3.53-.55A10.15,10.15,0,0,1,189.33,826.48Z"/><path class="cls-47" d="M168,836.3s2.09,3.38,2.09,4.83,0,4.3,1.29,4.64a33.42,33.42,0,0,0,10.24.57c4.17-.51,12.5-1.6,18.21-.91,0,0,3-1.2,2.7-3.25S204,837,204,837l1.26.68a12.16,12.16,0,0,1,1.12,1.6c-2.45-.78-.59,5.28-1.6,8.76-1.17,4-18,.86-19.63.51s-5.27,1.14-11.65.63-3.76-7-6.94-7.75c-1.35-.34-2.82.69-4.06,2-.19-1.18,0-3,1.59-5.51C164.05,837.84,167.19,837.38,168,836.3Z"/><path class="cls-45" d="M204,837.89c-.47.07-2.25.25-2.25.25h0c-2.65,1.46-10.94.64-12.5,0L189,838a33.89,33.89,0,0,0-6.36.09c-1.56.65-9.85,1.47-12.5,0h0s-1.78-.18-2.25-.25c0,0-.47-.64,0-1.07l1.53-.34c.18-.87.65-2.55,1.6-3.15s8.06-1.16,10.51,0a4,4,0,0,1,2.33,2.71,3.34,3.34,0,0,0,4.2.14h0a4,4,0,0,1,2.35-2.81c2.45-1.16,9.54-.59,10.51,0s1.42,2.28,1.6,3.15l1.53.34C204.51,837.25,204,837.89,204,837.89Zm-23-4.42c-2.19-1-8.73-.46-9.59.07-1.16.72-1.28,3.29-1.28,3.29,0,2.61,10.19,1.69,11.84,1a4.3,4.3,0,0,0,1.18-.64l.12-.19A4.11,4.11,0,0,0,181,833.47Zm19.51.11c-.86-.53-7.4-1.09-9.59-.07a3.92,3.92,0,0,0-2.23,3.34l.68.76c.16.08.35.17.57.26,1.66.69,11.87,1.61,11.85-1C201.79,836.87,201.67,834.3,200.51,833.58Z"/><path class="cls-45" d="M214.35,795c7.49-14.52,32.14-18.58,32.14-18.58a119.42,119.42,0,0,1,22.12,4.48c-1.82,2.33-2.61,4.69-3.62,7.77-9.08-1.35-16.92-2.07-16.92-2.07-19.17,4.74-30.79,27.42-30.79,27.42C205.88,808.28,214.35,795,214.35,795Z"/><path class="cls-45" d="M149.88,678.35l-8.11-5.79s1.48-2.58,7.49-4.58l9.7,6.66Z"/><path class="cls-45" d="M147.91,669.78s3.8.43,5.1-.27,4.55-10.21,7.6-12.3,0-3.19-1.9-3.61S130,667.5,130,667.5s6.64,4.9,9.85,5.85S144.51,670.78,147.91,669.78Z"/><path class="cls-45" d="M148.41,664.22a.64.64,0,0,0-.38.21c-.15.19,0,.41.36.49a18.42,18.42,0,0,0,5.12.46c3-.29,3.68-1.65,3.71-1.7s-.1-.41-.47-.47a.86.86,0,0,0-.85.25s-.55,1-2.65,1.18a16.59,16.59,0,0,1-4.33-.41A1.25,1.25,0,0,0,148.41,664.22Z"/><path class="cls-45" d="M148,665.74a.7.7,0,0,0-.39.21c-.14.19,0,.41.37.49a18.33,18.33,0,0,0,5.11.46c3-.29,3.69-1.64,3.72-1.7s-.11-.41-.47-.47a.85.85,0,0,0-.85.26s-.55,1-2.65,1.17a16.07,16.07,0,0,1-4.33-.41A1.26,1.26,0,0,0,148,665.74Z"/><path class="cls-45" d="M149.66,662.62a.61.61,0,0,0-.39.2c-.15.19,0,.42.37.5a18.43,18.43,0,0,0,5.11.45c3-.29,3.69-1.64,3.72-1.7s-.11-.41-.48-.46a.86.86,0,0,0-.85.25s-.55,1-2.65,1.17a16.54,16.54,0,0,1-4.32-.4A1.26,1.26,0,0,0,149.66,662.62Z"/><path class="cls-45" d="M199.62,668.42l1.23-7.2a30.92,30.92,0,0,1,11.31-.73L211,668.9Z"/><path class="cls-45" d="M209.7,661.5s2.38,1.75,4.3,1.69,16.91-6.23,22-6.71,4.16-2.48,3.26-3.51-40.32-.43-40.32-.43-1.45,6.78-.21,8.71S205.75,661,209.7,661.5Z"/><path class="cls-45" d="M219.46,656.92a1.23,1.23,0,0,0-.54,0c-.35.1-.48.33-.31.51a8,8,0,0,0,8.29,2c.31-.12.4-.36.19-.53a1.09,1.09,0,0,0-1-.09,5.9,5.9,0,0,1-3.44,0,7.51,7.51,0,0,1-2.85-1.78A.68.68,0,0,0,219.46,656.92Z"/><path class="cls-45" d="M217.3,657.94a1.28,1.28,0,0,0-.55,0c-.34.1-.48.33-.31.51a8.57,8.57,0,0,0,3.4,2.09,8.37,8.37,0,0,0,4.89,0c.32-.12.41-.35.2-.52a1.09,1.09,0,0,0-1-.1,5.93,5.93,0,0,1-3.45,0,7.33,7.33,0,0,1-2.84-1.78A.68.68,0,0,0,217.3,657.94Z"/><path class="cls-45" d="M222.33,656.11a1.1,1.1,0,0,0-.54,0c-.34.1-.48.32-.31.51a8.49,8.49,0,0,0,3.39,2.09,8.26,8.26,0,0,0,4.9-.05c.32-.11.4-.35.19-.52a1.07,1.07,0,0,0-1-.09,5.93,5.93,0,0,1-3.45,0,7.33,7.33,0,0,1-2.84-1.78A.75.75,0,0,0,222.33,656.11Z"/><path class="cls-45" d="M192.07,746.51l-8.19-36.16a147.43,147.43,0,0,1-14.36-12.13c-5.88-5.71-21.54-20.53-21.54-20.53l9.47-3.85,51.9,28.68,13.81,44.34Z"/><path class="cls-45" d="M159.79,673.93a9,9,0,0,0-4.3-2.57l-11,5a12.21,12.21,0,0,0,3.75,2.71Z"/><path class="cls-45" d="M150.16,745s14.61-19.16,33.6-34.11c0,0,2.84-14.54,7.69-22.29,2.12-3.39,6.24-19.45,6.24-19.45l14.41.35-3.72,44.66-15.24,32.35Z"/><path class="cls-45" d="M213.44,669.77a3.67,3.67,0,0,0,0-4l-16.68-.25a5.76,5.76,0,0,0-.69,3.89Z"/><path class="cls-45" d="M217.28,814.05c2.17-1.45,6.53-16.18,7.21-31.13,0-.35,0-.69,0-1,.07-1.58.13-3.17.19-4.76s.11-3.13.16-4.69c.08-2.54.15-5,.21-7.46,0-.27,0-.55,0-.82,0-2.35.09-4.61.12-6.71,0-.28,0-.55,0-.82.05-3.16.08-6,.08-8.21h0v-.91c0-1.57,0-2.82,0-3.66q-10.47-1.5-20.94-2.17l-.55,0-.93-.06h-.23l-3.63-.18q-9-.4-18-.18l-1.57,0-1.42,0-.64,0-1.2,0a265.42,265.42,0,0,0-26.44,2.47c0,1.85-.08,5.63-.1,10.49v.81c0,5.37,0,12,.15,18.74l0,1.61c0,.62,0,1.24,0,1.87,0,.11,0,.21,0,.32s0,.29,0,.44,0,.59,0,.88,0,.86,0,1.29,0,.65,0,1l.06,1.94c.42,13.46,1.28,25.83,2.9,29a2,2,0,0,0,.47.63,6,6,0,0,0,.62.43c.31.18.66.37,1.05.56a96.85,96.85,0,0,0,12.15,4.33c.55.18,1.11.34,1.66.51.08,0,12.92,2.34,13,2.36l13.43-.5S214.08,816.17,217.28,814.05Z"/><path class="cls-45" d="M163.1,794.65c0,.36-.85.51-1.25.23a36.27,36.27,0,0,1-10.58-11.19c-.49-.84-.92-1.66-1.29-2.43,0-.32,0-.65,0-1s0-.86,0-1.29,0-.59,0-.88,0-.3,0-.44,0-.21,0-.32a29.35,29.35,0,0,0,2.73,6.12A35.7,35.7,0,0,0,163,794.43a.28.28,0,0,1,.14.22Z"/><path class="cls-45" d="M165.83,755.57h0a101,101,0,0,1,34.7,6.5,82.5,82.5,0,0,1,13.65,6.45c.25.16.21.39-.08.53a1.18,1.18,0,0,1-1,0,81,81,0,0,0-13.42-6.33,98.3,98.3,0,0,0-33.87-6.35c-.39,0-.7-.17-.7-.38S165.45,755.57,165.83,755.57Z"/><path class="cls-45" d="M180.94,753a98.77,98.77,0,0,1,25.7,4c.34.1.45.33.26.51a1.14,1.14,0,0,1-1,.13c-.14,0-14.91-4.54-28-3.82-.39,0-.72-.13-.76-.33s.24-.39.62-.41C178.84,753,179.89,753,180.94,753Z"/><path class="cls-45" d="M177.34,808.74a76.49,76.49,0,0,1,22.76,7.51c.27.15.27.39,0,.53a1.16,1.16,0,0,1-1,0c-.12-.06-12.1-6.5-25.08-7.67-.38,0-.63-.22-.57-.43s.43-.34.81-.3C175.3,808.46,176.33,808.59,177.34,808.74Z"/><path class="cls-45" d="M310.82,810,224,743.77c-3-2.26-8.78-2.81-13-1.23l-34.57,12.9c-4.22,1.58-5.25,4.69-2.29,6.94L261,828.59c3,2.26,8.78,2.81,13,1.23l34.57-12.9C312.75,815.34,313.78,812.23,310.82,810Z"/><path class="cls-45" d="M226.3,774.24c5.08-1.89,8.47-4.59,10-7.54a8.27,8.27,0,0,0,.77-2.11c.68-3.19-.74-6.52-4.47-9.36s-9.1-4.69-15-5.45c-1.3-.16-2.63-.27-4-.33A43.43,43.43,0,0,0,197,751.87c-11.58,4.32-14.4,12.84-6.29,19S214.72,778.56,226.3,774.24Z"/><path class="cls-45" d="M212.11,769.26c4.44-1.65,5.52-4.92,2.42-7.29s-9.23-2.94-13.67-1.28-5.52,4.92-2.42,7.29S207.67,770.92,212.11,769.26Z"/><path class="cls-45" d="M237.06,764.59c.68-3.19-.74-6.52-4.47-9.36s-9.1-4.69-15-5.45c-2.83,1.72-3.72,3.68-3.71,5.48,0,4.15,4.93,7.88,12.22,9.32A27.59,27.59,0,0,0,237.06,764.59Z"/><path class="cls-45" d="M228,780.54l-.1.07-3,2.11a.3.3,0,0,1-.25,0l-5.36-1a.39.39,0,0,0-.16,0,1.33,1.33,0,0,1,.19.14l3.1,2.41c.06,0,0,.08,0,.12l-3.23,2.27-.08,0h.16l5.34-.76a.26.26,0,0,1,.25.05l2.89,2.23a.66.66,0,0,0,.15.09v-.07c0-1-.05-1.9-.08-2.85,0-.06,0-.09.15-.1l5.27-.81.15,0-.22,0-5-1c-.1,0-.13,0-.13-.09,0-.94,0-1.87,0-2.8A.38.38,0,0,0,228,780.54Z"/><path class="cls-45" d="M239.18,789l-.1.07-3,2.11a.27.27,0,0,1-.24,0l-5.36-1h-.16l.19.15,3.1,2.41s0,.07,0,.12l-3.23,2.26-.08.06.16,0,5.33-.76a.33.33,0,0,1,.25,0l2.9,2.24.14.09s0,0,0-.07c0-1-.05-1.9-.09-2.85,0-.07,0-.09.15-.11l5.28-.8.15,0-.22,0-5-1c-.1,0-.13,0-.13-.1,0-.93,0-1.86,0-2.79C239.19,789.11,239.18,789.08,239.18,789Z"/><path class="cls-45" d="M250.33,797.54l-.11.06-3,2.11a.25.25,0,0,1-.24,0l-5.36-1h-.16l.19.14,3.09,2.42c.06,0,.06.07,0,.11l-3.22,2.27-.08.06.15,0,5.34-.76a.29.29,0,0,1,.25,0l2.9,2.24.14.09v-.08c0-.95-.05-1.89-.08-2.84,0-.07,0-.09.15-.11l5.27-.8.16,0-.23,0-5-1c-.1,0-.13,0-.13-.1,0-.93,0-1.86,0-2.8Z"/><path class="cls-45" d="M261.48,806l-.11.07-3,2.11a.27.27,0,0,1-.24,0l-5.37-1a.35.35,0,0,0-.15,0l.19.14,3.09,2.41c.06,0,0,.08,0,.12-1.08.75-2.15,1.51-3.22,2.27l-.08,0h.15l5.34-.76a.26.26,0,0,1,.25,0l2.9,2.24a.58.58,0,0,0,.14.08v-.07c0-.95-.05-1.9-.08-2.85,0-.06,0-.09.15-.1l5.27-.81.16,0-.23,0-5-1c-.1,0-.13,0-.13-.09,0-.93,0-1.87,0-2.8Z"/><path class="cls-45" d="M272.63,814.53l-.11.07c-1,.7-2,1.4-3,2.11a.3.3,0,0,1-.25,0l-5.36-1h-.16l.19.15,3.1,2.41c.06,0,.05.07,0,.12l-3.22,2.26-.08.06.15,0,5.34-.76a.33.33,0,0,1,.25,0l2.9,2.24a.42.42,0,0,0,.14.09v-.07c0-.95,0-1.9-.08-2.85,0-.07,0-.09.15-.11l5.27-.8.16,0-.23,0-5-1c-.09,0-.12,0-.12-.1,0-.93,0-1.86,0-2.79Z"/><path class="cls-45" d="M283.55,816.88l-50.89-38.79c-.64-.49-.42-1.17.51-1.52h0a3.34,3.34,0,0,1,2.84.27l50.89,38.79c.64.49.42,1.17-.5,1.52h0A3.36,3.36,0,0,1,283.55,816.88Z"/><path class="cls-45" d="M290.72,814.2l-50.89-38.79c-.64-.49-.42-1.17.5-1.51h0a3.29,3.29,0,0,1,2.85.27L294.07,813c.64.5.42,1.17-.51,1.52h0A3.34,3.34,0,0,1,290.72,814.2Z"/><path class="cls-45" d="M217.17,762.07h2.45a6.51,6.51,0,0,1,4.83,1.73,16.87,16.87,0,0,0,1.44,1.6,16,16,0,0,0,5.43,2.22c1.17,0,1-1.12.13-1.63a16.12,16.12,0,0,1-2.83-1.87c-.7-.72,5.72-2.18,8.33-2.52s7.18.41,7.63-.75-3-1.32-3-1.32,1-1-1.84-1.9c0,0,.5-1-1.34-1.56,0,0,.21-1.29-1.93-1.63s-8.81-1.37-21.91,2.87Z"/><path class="cls-45" d="M172.23,791.74c4.94-10,9.79-14.38,9.79-14.38s5.55-4.52,17-8.8c7.92-3,20.64-6.49,20.64-6.49-2.19-1.52-3.74-4.53-2.9-5.43-26.45,0-49.59,13.37-49.59,13.37-18.51,17.19-19.72,31.18-19.42,36.28a7.15,7.15,0,0,0,2.94,5.05,9.42,9.42,0,0,0,3.56,1.85s7.94-1.58,10.69-6.55S172.23,791.74,172.23,791.74Z"/><path class="cls-45" d="M288.13,790.85s-5.88,1.11-8.59.51,4.79-2.76,4.79-2.76-9.08,2.58-10.65,1.54,7.12-3.68,7.12-3.68-6.65,1.25-8,.51,4.85-2.8,4.85-2.8-5.46.7-6.6.21,3.7-2.57,6.77-3.12,3.57,1.76,3.57,1.76,2.89,1.36,2.51,2.3c0,0,3,1.08,3.21,2.18C287.11,787.5,291.34,789.49,288.13,790.85Z"/><path class="cls-45" d="M185.11,830a9.27,9.27,0,0,0-1.8.2c-.25.06-.38.21-.27.35a.7.7,0,0,0,.65.14,5.32,5.32,0,0,1,2-.1.32.32,0,0,1,.24.25,21.15,21.15,0,0,1-.3,4.06c0,.14.18.27.46.28s.51-.09.53-.24a21,21,0,0,0,.3-4.16,1,1,0,0,0-.72-.65A3.72,3.72,0,0,0,185.11,830Z"/></g></g></svg>