<svg id="Layer_1" data-name="Layer 1" xmlns="http://www.w3.org/2000/svg" viewBox="0 0 236.49 251.46"><defs><style>.cls-1{fill:#565656;}</style></defs><title>Trust</title><path class="cls-1" d="M195.59,85.31c-16.69-10-25.85-20.6-30.6-27.73-5-7.47-6.27-12.79-6.35-13.13a5,5,0,0,0-5-4.07H82.85a5.12,5.12,0,0,0-5,4.09c0,.21-4.73,21.53-36.94,40.84A5.11,5.11,0,0,0,38.57,91c.45,1.76,11.12,43.48,26.8,69.49,9.67,16,22,28.68,28.44,34.78a116.51,116.51,0,0,0,13.35,11c6.27,4.31,9.33,4.81,11.08,4.81s4.82-.5,11.09-4.81a117.38,117.38,0,0,0,13.35-11c6.47-6.1,18.77-18.74,28.44-34.78,15.68-26,26.35-67.73,26.8-69.49A5.13,5.13,0,0,0,195.59,85.31ZM187,92c-1.27,4.6-3.73,13.16-7.12,23H153.45a35.53,35.53,0,0,0-30.09-30V50.6h26.52C152.78,58.38,161.72,75.89,187,92Zm-68.67,53.38a25.25,25.25,0,0,1-25.22-24.6,4.26,4.26,0,0,0,0-.63,4.44,4.44,0,0,0,0-.63,25.23,25.23,0,1,1,25.22,25.86ZM86.6,50.6h26.54V85.12a35.55,35.55,0,0,0-29.86,30H56.56c-3.38-9.88-5.85-18.44-7.12-23C74.77,75.89,83.71,58.38,86.6,50.6ZM100,187a161.71,161.71,0,0,1-25.87-31.83c-5.25-8.7-10-19.5-13.88-29.86h23a35.56,35.56,0,0,0,30,30v42.77A105.54,105.54,0,0,1,100,187Zm62.38-31.83A162.38,162.38,0,0,1,136.5,187a109.05,109.05,0,0,1-13,10.89v-42.6a35.54,35.54,0,0,0,30-30h22.8C172.33,135.66,167.61,146.46,162.37,155.16Z"/><path class="cls-1" d="M125.11,110.78l-11.27,11.27-2.94-3.58A5.11,5.11,0,1,0,103,125l6.52,7.92a5.13,5.13,0,0,0,3.7,1.86h.25a5.1,5.1,0,0,0,3.61-1.49L132.34,118a5.11,5.11,0,0,0-7.23-7.23Z"/></svg>