<svg id="Layer_1" data-name="Layer 1" xmlns="http://www.w3.org/2000/svg" viewBox="0 0 284.34 280.41"><defs><style>.cls-1{fill:#fff;}</style></defs><title>WD</title><path class="cls-1" d="M219,16.65c-7.27,1.31-12.12,6-16.2,11.76Q167.46,78.72,132,129c-2.77,3.94-5.7,7.76-8.46,11.51C133.27,151.94,134,152,142.9,142c.74-.82,1.51-1.63,2.26-2.44,27.74-30.2,55.61-60.3,83.09-90.73a35.42,35.42,0,0,0,7.83-15C238.7,22.77,230.13,14.63,219,16.65Zm-9.4,13.78-3.95-3.79,14.44-7c.19.45.37.89.55,1.34Z"/><path class="cls-1" d="M79,173c13.37,1.75,19.09-5.69,22.34-17,2.26-7.88,6.91-10.68,14.19-10.14,7.91.59,17.31,7.36,17.51,13.78a12.79,12.79,0,0,1-4.36,9.29C119.36,175.87,91.16,178.19,79,173Z"/><path class="cls-1" d="M170.4,242.1c-.55,10.51,3.73,18.68,11.59,25.62H100.57c9.81-7,14.5-15,13.86-25.62Z"/><path class="cls-1" d="M171.16,55.43s1.15,16-20.15,16H25.75V198.57H259V71.68H216.73s11.58-16.85,19.47-17.41h29.86s9.43,2.11,9.43,7.81V224.4s-4.36,6.24-10.56,6.24c-8.45,0-239.85,1.68-239.85,1.68s-8.63,1.05-15.68-7.92V62.08s5.35-7.25,11-7.25C28.84,54.83,170.77,55.05,171.16,55.43Z"/></svg>