<svg id="Layer_1" data-name="Layer 1" xmlns="http://www.w3.org/2000/svg" viewBox="0 0 231.82 255"><defs><style>.cls-1{fill:#fff;}</style></defs><title>Mapps-01</title><path class="cls-1" d="M168.16,32.1l3.27,3.13c3.65-3.1,6.39-5.44,9.13-7.78l-.46-1.1Z"/><path class="cls-1" d="M179.2,23.84c-6,1.09-10,4.93-13.39,9.73q-29.22,41.59-58.51,83.14c-2.29,3.25-4.71,6.42-7,9.52,8,9.46,8.59,9.49,16,1.21.61-.69,1.24-1.35,1.86-2,22.94-25,46-49.84,68.7-75A29.26,29.26,0,0,0,193.32,38C195.49,28.9,188.4,22.17,179.2,23.84Zm-7.77,11.39-3.27-3.13,11.94-5.75.46,1.1C177.82,29.79,175.08,32.13,171.43,35.23Z"/><path class="cls-1" d="M63.44,153.13c11,1.45,15.78-4.7,18.47-14.09,1.86-6.51,5.71-8.83,11.73-8.38,6.54.49,14.31,6.08,14.47,11.39a10.55,10.55,0,0,1-3.6,7.68C96.83,155.48,73.51,157.4,63.44,153.13Z"/><path class="cls-1" d="M139,210.24c-.45,8.68,3.09,15.44,9.58,21.18H81.28c8.12-5.79,12-12.36,11.46-21.18Z"/><path class="cls-1" d="M139.64,55.91S140.6,69.1,123,69.1H19.43V174.25H212.3V69.34h-35s9.58-13.93,16.1-14.4h24.69s7.79,1.75,7.79,6.47V195.6s-3.6,5.16-8.72,5.16c-7,0-198.3,1.39-198.3,1.39s-7.14.87-13-6.55V61.41s4.42-6,9.08-6C22,55.41,139.33,55.59,139.64,55.91Z"/></svg>