<?xml version="1.0" encoding="utf-8"?>
<!-- Generator: Adobe Illustrator 23.0.6, SVG Export Plug-In . SVG Version: 6.00 Build 0)  -->
<svg version="1.1" id="Layer_1" xmlns="http://www.w3.org/2000/svg" xmlns:xlink="http://www.w3.org/1999/xlink" x="0px" y="0px"
	 viewBox="0 0 231.8 255" style="enable-background:new 0 0 231.8 255;" xml:space="preserve">
<style type="text/css">
	.st0{fill:none;stroke:#000000;stroke-width:7;stroke-miterlimit:10;}
</style>
<g>
	<path class="st0" d="M69.8,105.1c5,0,10,0.1,15,0c1.4,0,1.8,0.4,1.8,1.8c-0.1,5.7-0.1,11.3,0,16.9c0,1.4-0.3,1.8-1.8,1.8
		c-10.1-0.1-20.1-0.1-30.2,0c-1.3,0-1.7-0.3-1.7-1.7c0.1-5.7,0.1-11.4,0-17.2c0-1.3,0.4-1.7,1.7-1.7
		C59.6,105.2,64.7,105.1,69.8,105.1z"/>
	<path class="st0" d="M69.6,73c-4.9,0-9.8,0-14.8,0c-1.4,0-2-0.2-2-1.8c0.1-5.6,0.1-11.3,0-16.9c0-1.3,0.3-1.7,1.7-1.7
		c10.1,0,20.2,0,30.4,0c1.4,0,1.7,0.5,1.6,1.8c0,5.7-0.1,11.4,0,17.1c0.1,1.3-0.3,1.6-1.5,1.6C79.8,73,74.7,73,69.6,73z"/>
	<path class="st0" d="M69.7,180.6c-5,0-10,0-15,0c-1.3,0-1.9-0.2-1.9-1.8c0.1-5.6,0.1-11.3,0-16.9c0-1.3,0.3-1.8,1.7-1.8
		c10.1,0.1,20.3,0.1,30.4,0c1.4,0,1.7,0.5,1.6,1.8c-0.1,5.6-0.1,11.3,0,16.9c0,1.5-0.5,1.8-1.9,1.8
		C79.7,180.5,74.7,180.6,69.7,180.6z"/>
	<path class="st0" d="M167.3,198.7c0-1.3-0.3-1.7-1.7-1.7c-5.1,0.2-10.3,0.2-15.4,0.2c-36,0.1-72,0.1-108,0.1
		c-1.9,0-2.2-0.5-2.2-2.3c0-52.2,0-104.3,0-156.4c0-2,0.6-2.3,2.4-2.3c35.1,0,70.3,0,105.4,0c1,0,2,0.1,3,0c1.2-0.1,1.5,0.4,1.4,1.5
		c-0.1,2.9,0,5.8-0.1,8.7c0,1.3,0.2,1.9,1.7,1.9c3.9-0.1,7.8-0.1,11.7,0c1.2,0,1.6-0.3,1.6-1.6c-0.1-4.6,0.1-9.1-0.1-13.7
		c-0.4-11.3-5.8-19.4-16-24.2c-2.1-1-4.5-1.2-6.7-2.1L46.3,7.1C44.1,7.3,42,7.9,40,8.8c-10.3,5.1-15.7,13.4-15.7,25
		c0,62.1,0,124.1,0,186.2c0,0.7,0,1.3,0,2c0.6,8.7,4,15.9,11.1,21.2c3.1,2.3,6.6,3.8,10.4,4.6h84.1c0.1-0.1,14.4-0.4,14.5-0.4
		c11.3-1,22.7-11.6,22.8-25.7C167.2,214,167.2,206.4,167.3,198.7z M96.2,234.5c-6.6,0-12-5.3-12.1-11.9s5.3-12,11.9-12.1
		c6.6,0,12,5.3,12.1,11.9C108.2,229,102.8,234.5,96.2,234.5z"/>
	<path class="st0" d="M220.9,115.8c0-1.4-0.4-1.7-1.7-1.7c-4.6,0.1-9.3,0-13.9,0.1c-1.1,0-1.6-0.2-1.9-1.4c-1-5.1-3-10-5.9-14.3
		c-0.7-1.1-0.5-1.7,0.4-2.5c3.3-3.2,6.6-6.6,9.9-9.8c0.9-0.9,0.9-1.3,0-2.2c-3.4-3.3-6.7-6.6-10-9.9c-0.9-0.9-1.3-1.2-2.4-0.1
		c-3.2,3.3-6.6,6.5-9.8,9.9c-0.5,0.8-1.5,1-2.3,0.5c-0.1-0.1-0.2-0.1-0.3-0.2c-4.2-2.8-9-4.8-13.9-5.8c-1.3-0.3-1.8-0.7-1.7-2.1
		c0.1-4.6,0-9.3,0.1-13.9c0-1.2-0.3-1.6-1.5-1.6c-4.7,0.1-9.4,0.1-14.1,0c-1.6,0-1.9,0.5-1.8,2c0.1,4.6,0,9.1,0.1,13.7
		c0,1.1-0.2,1.6-1.4,1.9c-5,1-9.9,2.9-14.2,5.7c-0.9,0.6-1.6,0.8-2.5-0.2c-3.2-3.3-6.6-6.5-9.8-9.9c-1-1-1.4-0.9-2.4,0
		c-3.3,3.4-6.6,6.7-10,9.9c-1,1-0.9,1.4,0,2.3c3.3,3.2,6.5,6.6,9.9,9.8c0.7,0.5,0.9,1.4,0.4,2.1c-0.1,0.1-0.1,0.2-0.2,0.2
		c-2.8,4.3-4.8,9.1-5.9,14.1c-0.3,1.4-0.8,1.7-2.1,1.7c-4.6-0.1-9.3,0-13.9,0c-1.1,0-1.5,0.3-1.5,1.4c0.1,2.4,0,4.8,0,7.2
		s0.1,4.8,0,7.2c-0.1,1.4,0.4,1.7,1.7,1.7c4.6-0.1,9.3,0,13.9,0c0.9,0,1.6,0,1.8,1.3c1,5.2,3.1,10.1,6,14.5c0.7,1,0.5,1.6-0.3,2.3
		c-3.4,3.3-6.7,6.6-10,9.9c-0.8,0.8-0.8,1.2,0,2c3.4,3.3,6.8,6.7,10.1,10.1c1,1,1.5,0.9,2.4-0.1c3.2-3.3,6.5-6.4,9.6-9.7
		c0.8-0.8,1.3-1.2,2.5-0.4c4.3,2.8,9.1,4.8,14.1,5.9c1.3,0.3,1.7,0.8,1.7,2.1c-0.1,4.6,0,9.1-0.1,13.7c0,1.4,0.4,1.7,1.7,1.7
		c4.7-0.1,9.4-0.1,14.1,0c1.4,0,1.7-0.5,1.6-1.8c-0.1-4.6,0-9.3-0.1-13.9c0-1.1,0.3-1.6,1.5-1.9c5.1-1.1,10-3.1,14.3-5.9
		c0.6-0.6,1.6-0.6,2.2,0.1c0.1,0.1,0.1,0.1,0.2,0.2c3.2,3.3,6.6,6.6,9.8,9.9c0.8,0.8,1.3,1.1,2.2,0.1c3.4-3.5,6.8-6.9,10.3-10.3
		c0.9-0.8,0.7-1.3-0.1-2c-3.4-3.3-6.6-6.6-10-9.9c-0.7-0.4-0.9-1.4-0.5-2.1c0.1-0.1,0.1-0.2,0.2-0.2c2.8-4.4,4.8-9.3,5.9-14.4
		c0.2-1.2,0.7-1.5,1.9-1.5c4.6,0.1,9.3,0,13.9,0.1c1.3,0,1.8-0.3,1.7-1.7C220.8,125.2,220.8,120.5,220.9,115.8z M158.6,141.8
		c-10.5-0.1-18.9-8.7-18.8-19.2c0.1-10.5,8.7-18.9,19.2-18.8c10.5,0.1,18.9,8.7,18.8,19.2c0,0,0,0.1,0,0.1
		C177.6,133.5,169.1,141.9,158.6,141.8L158.6,141.8z"/>
</g>
</svg>
