<?xml version="1.0" encoding="utf-8"?>
<!-- Generator: Adobe Illustrator 23.0.6, SVG Export Plug-In . SVG Version: 6.00 Build 0)  -->
<svg version="1.1" id="Layer_1" xmlns="http://www.w3.org/2000/svg" xmlns:xlink="http://www.w3.org/1999/xlink" x="0px" y="0px"
	 viewBox="0 0 231.8 255" style="enable-background:new 0 0 231.8 255;" xml:space="preserve">
<g>
	<path d="M168.2,32.1l3.3,3.1c3.6-3.1,6.4-5.4,9.1-7.8l-0.5-1.1L168.2,32.1z"/>
	<path d="M179.2,23.8c-6,1.1-10,4.9-13.4,9.7c-19.5,27.7-39,55.4-58.5,83.1c-2.3,3.2-4.7,6.4-7,9.5c8,9.5,8.6,9.5,16,1.2
		c0.6-0.7,1.2-1.3,1.9-2c22.9-25,46-49.8,68.7-75c3.1-3.6,5.3-7.8,6.5-12.4C195.5,28.9,188.4,22.2,179.2,23.8z M171.4,35.2l-3.3-3.1
		l11.9-5.8l0.5,1.1C177.8,29.8,175.1,32.1,171.4,35.2z"/>
	<path d="M63.4,153.1c11,1.4,15.8-4.7,18.5-14.1c1.9-6.5,5.7-8.8,11.7-8.4c6.5,0.5,14.3,6.1,14.5,11.4c-0.1,3-1.4,5.7-3.6,7.7
		C96.8,155.5,73.5,157.4,63.4,153.1z"/>
	<path d="M139,210.2c-0.4,8.7,3.1,15.4,9.6,21.2H81.3c8.1-5.8,12-12.4,11.5-21.2L139,210.2z"/>
	<path d="M139.6,55.9c0,0,1,13.2-16.6,13.2H19.4v105.2h192.9V69.3h-35c0,0,9.6-13.9,16.1-14.4h24.7c0,0,7.8,1.8,7.8,6.5v134.2
		c0,0-3.6,5.2-8.7,5.2c-7,0-198.3,1.4-198.3,1.4s-7.1,0.9-13-6.6V61.4c0,0,4.4-6,9.1-6C22,55.4,139.3,55.6,139.6,55.9z"/>
</g>
</svg>
